{
.appVersion = "3108";
.formatVersion = 3;
DisplayStrings = (
"ǻ"
);
axes = (
{
name = Weight;
tag = wght;
}
);
customParameters = (
{
name = panose;
value = (
2,
7,
5,
3,
7,
6,
0,
0,
0,
3
);
},
{
name = "Axis Mappings";
value = {
wght = {
400 = 400;
500 = 550;
700 = 700;
};
};
},
{
name = fsType;
value = (
);
},
{
name = "Use Line Breaks";
value = 1;
},
{
name = "Use Typo Metrics";
value = 1;
},
{
name = "Variable Font Origin";
value = "426C3F01-D24D-4224-A47E-56DA036E4742";
}
);
date = "2016-08-16 11:28:02 +0000";
familyName = "Libre Bodoni";
features = (
{
code = "sub f f i by f_f_i;
	sub f f l by f_f_l;
  sub f f by f_f;
  sub f i by f_i;
  sub f l by f_l;
";
tag = liga;
},
{
code = "sub [zero one two three four five six seven eight nine] [A a]' by [ordfeminine ordfeminine];
	sub [zero one two three four five six seven eight nine] [O o]' by [ordmasculine ordmasculine];
	sub [zero one two three four five six seven eight nine] period [A a]' by [ordfeminine ordfeminine];
	sub [zero one two three four five six seven eight nine] period [O o]' by [ordmasculine ordmasculine];
";
tag = ordn;
},
{
code = "sub one [slash fraction] two by onehalf;
	sub one [slash fraction] three by onethird;
	sub one [slash fraction] four by onequarter;
	sub one [slash fraction] eight by oneeighth;
	sub two [slash fraction] three by twothirds;
	sub three [slash fraction] four by threequarters;
	sub three [slash fraction] eight by threeeighths;
	sub five [slash fraction] eight by fiveeighths;
	sub seven [slash fraction] eight by seveneighths;
";
tag = frac;
},
{
code = "sub zero by zerosuperior;
	sub one by onesuperior;
	sub two by twosuperior;
	sub three by threesuperior;
	sub four by foursuperior;
	sub five by fivesuperior;
	sub six by sixsuperior;
	sub seven by sevensuperior;
	sub eight by eightsuperior;
	sub nine by ninesuperior;
";
tag = sups;
},
{
code = "sub zero by zeroinferior;
	sub one by oneinferior;
	sub two by twoinferior;
	sub three by threeinferior;

glyphs = (
{
glyphname = A;
kernLeft = A;
kernRight = A;
lastChange = "2016-08-22 13:42:24 +0000";
layers = (
{
anchors = (
{
name = bottom;
pos = (241,0);
},
{
name = ogonek;
pos = (474,10);
},
{
name = top;
pos = (508,754);
}
);
layerId = "426C3F01-D24D-4224-A47E-56DA036E4742";
shapes = (
{
closed = 1;
nodes = (
(21,20,l),
(384,551,l),
(493,764,l),
(-18,20,l)
);
},
{
closed = 1;
nodes = (
(123,0,l),
(123,25,l),
(-91,25,l),
(-91,0,l)
);
},
{
closed = 1;
nodes = (
(538,0,l),
(538,25,l),
(269,25,l),
(269,0,l)
);
},
{
closed = 1;
nodes = (
(434,247,l),
(434,275,l),
(165,275,l),
(165,247,l)
);
},
{
closed = 1;
nodes = (
(459,10,l),
(514,764,l),
(493,764,l),
(381,547,l),
(385,547,l),
(336,10,l)
);
}
);
width = 585;
},
{
anchors = (
{
name = bottom;
pos = (259,0);
},
{
name = ogonek;
pos = (507,10);
},
{
name = top;
pos = (516,754);
}
);
layerId = "DD3DBCA6-CF88-4DA3-ACF4-A2FFC969FFEC";
shapes = (
{
closed = 1;
nodes = (
(22,20,l),
(385,551,l),
(502,768,l),
(-20,20,l)
);
},
{
closed = 1;
nodes = (
(124,0,l),
(124,30,l),
(-66,30,l),
(-66,0,l)
);
},
{
closed = 1;
nodes = (
(569,0,l),
(569,30,l),
(250,30,l),
(250,0,l)
);
},
{
closed = 1;
nodes = (
(415,212,l),
(415,245,l),
(146,245,l),
(146,212,l)
);
},
{
closed = 1;
nodes = (
(490,10,l),
(545,768,l),
(494,768,l),
(382,547,l),
(386,547,l),
(337,10,l)
);
}
);
width = 621;
}
);
unicode = 65;
},
{
glyphname = AE;
kernLeft = AE;
kernRight = E;
lastChange = "2016-08-22 10:35:49 +0000";
layers = (
{
layerId = "426C3F01-D24D-4224-A47E-56DA036E4742";
shapes = (
{
closed = 1;
nodes = (
(-1,20,l),
(486,734,l),
(455,741,l),
(-40,20,l)
);
},
{
closed = 1;
nodes = (
(101,0,l),
(101,25,l),
(-113,25,l),
(-113,0,l)
);
},
{
closed = 1;
nodes = (
(412,247,l),
(412,275,l),
(143,275,l),
(143,247,l)
);
},
{
closed = 1;
nodes = (
(837,0,l),
(897,232,l),
(867,232,l),
(791,64,o),
(729,25,o),
(640,25,cs),
(247,25,l),
(247,0,l)
);
},
{
closed = 1;
nodes = (
(456,0,l),
(624,754,l),
(507,754,l),
(343,0,l)
);
},
{
closed = 1;
nodes = (
(706,226,l),
(765,534,l),
(740,534,l),
(709,430,o),
(674,403,o),
(594,403,cs),
(491,403,l),
(491,378,l),
(578,378,ls),
(661,378,o),
(676,351,o),
(676,226,c)
);
},
{
closed = 1;
nodes = (
(929,553,l),
(957,754,l),
(338,754,l),
(338,729,l),
(728,729,ls),
(870,729,o),
(899,692,o),
(899,553,c)
);
}
);
width = 946;
},
{
layerId = "DD3DBCA6-CF88-4DA3-ACF4-A2FFC969FFEC";
shapes = (
{
closed = 1;
nodes = (
(-14,20,l),
(542,734,l),
(505,741,l),
(-56,20,l)
);
},
{
closed = 1;
nodes = (
(88,0,l),
(88,30,l),
(-102,30,l),
(-102,0,l)
);
},
{
closed = 1;
nodes = (
(439,212,l),
(439,245,l),
(130,245,l),
(130,212,l)
);
},
{
closed = 1;
nodes = (
(905,0,l),
(965,232,l),
(925,232,l),
(849,68,o),
(787,30,o),
(698,30,cs),
(295,30,l),
(295,0,l)
);
},
{
closed = 1;
nodes = (
(534,0,l),
(702,754,l),
(551,754,l),
(387,0,l)
);
},
{
closed = 1;
nodes = (
(786,227,l),
(851,535,l),
(816,535,l),
(786,441,o),
(737,404,o),
(670,404,cs),
(567,404,l),
(567,374,l),
(654,374,ls),
(714,374,o),
(752,348,o),
(752,227,c)
);
},
{
closed = 1;
nodes = (
(997,548,l),
(1033,754,l),
(396,754,l),
(396,724,l),
(796,724,ls),
(920,724,o),
(957,687,o),
(957,548,c)
);
}
);
width = 998;
}
);
unicode = 198;
},
{
glyphname = B;
lastChange = "2016-08-22 13:41:59 +0000";
layers = (
{
anchors = (
{
name = bottom;
pos = (285,0);
},
{
name = top;
pos = (459,754);
}
);
layerId = "426C3F01-D24D-4224-A47E-56DA036E4742";
shapes = (
{
closed = 1;
nodes = (
(374,0,ls),
(540,0,o),
(632,85,o),
(632,198,cs),
(632,285,o),
(565,373,o),
(454,391,c),
(425,398,o),
(379,404,o),
(363,404,cs),
(231,404,l),
(231,378,l),
(378,378,l),
(458,378,o),
(503,337,o),
(503,236,cs),
(503,107,o),
(430,25,o),
(346,25,cs),
(-7,25,l),
(-7,0,l)
);
},
{
closed = 1;
nodes = (
(192,0,l),
(360,754,l),
(243,754,l),
(79,0,l)
);
},
{
closed = 1;
nodes = (
(343,378,ls),
(546,378,o),
(680,464,o),
(680,586,cs),
(680,684,o),
(593,754,o),
(423,754,cs),
(144,754,l),
(144,729,l),
(423,729,ls),
(526,729,o),
(553,690,o),
(553,609,cs),
(553,490,o),
(494,403,o),
(399,403,cs),
(201,403,l),
(201,378,l)
);
}
);
width = 674;
},
{
anchors = (
{
name = bottom;
pos = (295,0);
},
{
name = top;
pos = (469,754);
}
);
layerId = "DD3DBCA6-CF88-4DA3-ACF4-A2FFC969FFEC";
shapes = (
{
closed = 1;
nodes = (
(370,0,ls),
(519,0,o),
(644,82,o),
(644,224,cs),
(644,310,o),
(598,363,o),
(485,389,c),
(447,401,o),
(423,409,o),
(391,409,cs),
(198,409,l),
(198,379,l),
(379,379,ls),
(453,379,o),
(471,331,o),
(471,256,cs),
(471,104,o),
(398,31,o),
(291,31,cs),
(-28,31,l),
(-28,0,l)
);
},
{
closed = 1;
nodes = (
(198,0,l),
(366,754,l),
(215,754,l),
(51,0,l)
);
},
{
closed = 1;
nodes = (
(331,379,ls),
(558,379,o),
(684,455,o),
(684,584,cs),
(684,684,o),
(607,754,o),
(431,754,cs),
(110,754,l),
(110,724,l),
(419,724,ls),
(498,724,o),
(518,689,o),
(518,615,cs),
(518,489,o),
(461,409,o),
(359,409,cs),
(167,409,l),
(167,379,l)
);
}
);
width = 694;
}
);
unicode = 66;
},
{
glyphname = C;
kernLeft = C;
kernRight = C;
lastChange = "2016-08-22 13:47:47 +0000";
layers = (
{
anchors = (
{
name = bottom;
pos = (295,0);
},
{
name = top;
pos = (469,754);
}
);
layerId = "426C3F01-D24D-4224-A47E-56DA036E4742";
shapes = (
{
closed = 1;
nodes = (
(420,-13,o),
(484,12,o),
(539,49,c),
(569,0,l),
(594,0,l),
(647,206,l),
(622,206,l),
(532,56,o),
(435,19,o),
(355,19,cs),
(266,19,o),
(217,64,o),
(217,207,cs),
(217,389,o),
(297,736,o),
(489,736,cs),
(578,736,o),
(648,662,o),
(648,541,c),
(673,541,l),
(720,754,l),
(695,754,l),
(646,702,l),
(601,746,o),
(557,765,o),
(496,765,cs),
(275,765,o),
(79,515,o),
(79,288,cs),
(79,127,o),
(177,-13,o),
(348,-13,cs)
);
}
);
width = 693;
},
{
anchors = (
{
name = bottom;
pos = (289,0);
},
{
name = top;
pos = (463,754);
}
);
layerId = "DD3DBCA6-CF88-4DA3-ACF4-A2FFC969FFEC";
shapes = (
{
closed = 1;
nodes = (
(414,-13,o),
(474,8,o),
(529,34,c),
(559,0,l),
(589,0,l),
(642,206,l),
(612,206,l),
(523,59,o),
(424,24,o),
(357,24,cs),
(282,24,o),
(241,68,o),
(241,200,cs),
(241,390,o),
(327,731,o),
(495,731,cs),
(576,731,o),
(643,652,o),
(643,521,c),
(673,521,l),
(720,754,l),
(685,754,l),
(641,707,l),
(599,748,o),
(557,765,o),
(501,765,cs),
(289,765,o),
(64,517,o),
(64,283,cs),
(64,128,o),
(162,-13,o),
(344,-13,cs)
);
}
);
width = 681;
}
);
unicode = 67;
},
{
glyphname = D;
kernLeft = D;
kernRight = D;
lastChange = "2016-08-22 13:48:01 +0000";
layers = (
{
anchors = (
{
name = bottom;
pos = (330,0);
},
{
name = center;
pos = (417,377);
},
{
name = top;
pos = (504,754);
}
);
layerId = "426C3F01-D24D-4224-A47E-56DA036E4742";
shapes = (
{
closed = 1;
nodes = (
(312,0,ls),
(564,0,o),
(745,189,o),
(745,438,cs),
(745,634,o),
(623,754,o),
(416,754,cs),
(137,754,l),
(137,729,l),
(416,729,ls),
(553,729,o),
(617,667,o),
(617,498,cs),
(617,223,o),
(485,27,o),
(300,27,cs),
(-14,27,l),
(-14,0,l)
);
},
{
closed = 1;
nodes = (
(185,0,l),
(353,754,l),
(236,754,l),
(72,0,l)
);
}
);
width = 764;
},
{
anchors = (
{
name = bottom;
pos = (333,0);
},
{
name = center;
pos = (420,377);
},
{
name = top;
pos = (507,754);
}
);
layerId = "DD3DBCA6-CF88-4DA3-ACF4-A2FFC969FFEC";
shapes = (
{
closed = 1;
nodes = (
(325,0,ls),
(571,0,o),
(748,209,o),
(748,438,cs),
(748,634,o),
(643,754,o),
(436,754,cs),
(100,754,l),
(100,724,l),
(429,724,ls),
(574,724,o),
(590,631,o),
(590,518,cs),
(590,215,o),
(474,32,o),
(296,32,cs),
(-41,32,l),
(-41,0,l)
);
},
{
closed = 1;
nodes = (
(195,0,l),
(363,754,l),
(212,754,l),
(48,0,l)
);
}
);
width = 770;
}
);
unicode = 68;
},
{
glyphname = Eth;
kernRight = D;
lastChange = "2016-08-22 10:35:49 +0000";
layers = (
{
layerId = "426C3F01-D24D-4224-A47E-56DA036E4742";
shapes = (
{
closed = 1;
nodes = (
(381,367,l),
(381,402,l),
(16,402,l),
(16,367,l)
);
},
{
ref = D;
}
);
width = 764;
},
{
layerId = "DD3DBCA6-CF88-4DA3-ACF4-A2FFC969FFEC";
shapes = (
{
closed = 1;
nodes = (
(404,362,l),
(404,402,l),
(39,402,l),
(39,362,l)
);
},
{
ref = D;
}
);
width = 770;
}
);
unicode = 208;
},
{
glyphname = E;
kernLeft = E;
kernRight = E;
lastChange = "2016-08-22 13:41:59 +0000";
layers = (
{
anchors = (
{
name = bottom;
pos = (279,0);
},
{
name = ogonek;
pos = (544,10);
},
{
name = top;
pos = (453,754);
},
{
name = topleft;
pos = (142,754);
}
);
layerId = "426C3F01-D24D-4224-A47E-56DA036E4742";
shapes = (
{
closed = 1;
nodes = (
(172,0,l),
(340,754,l),
(223,754,l),
(59,0,l)
);
},
{
closed = 1;
nodes = (
(553,0,l),
(613,232,l),
(583,232,l),
(507,64,o),
(445,25,o),
(356,25,cs),
(-37,25,l),
(-37,0,l)
);
},
{
closed = 1;
nodes = (
(422,226,l),
(481,534,l),
(456,534,l),
(425,430,o),
(390,403,o),
(310,403,cs),
(207,403,l),
(207,378,l),
(294,378,ls),
(377,378,o),
(392,351,o),
(392,226,c)
);
},
{
closed = 1;
nodes = (
(645,553,l),
(673,754,l),
(114,754,l),
(114,729,l),
(444,729,ls),
(586,729,o),
(615,692,o),
(615,553,c)
);
}
);
width = 662;
},
{
anchors = (
{
name = bottom;
pos = (293,0);
},
{
name = ogonek;
pos = (569,10);
},
{
name = top;
pos = (467,754);
},
{
name = topleft;
pos = (142,754);
}
);
layerId = "DD3DBCA6-CF88-4DA3-ACF4-A2FFC969FFEC";
shapes = (
{
closed = 1;
nodes = (
(226,0,l),
(394,754,l),
(243,754,l),
(79,0,l)
);
},
{
closed = 1;
nodes = (
(597,0,l),
(657,232,l),
(617,232,l),
(541,68,o),
(479,30,o),
(390,30,cs),
(-13,30,l),
(-13,0,l)
);
},
{
closed = 1;
nodes = (
(478,227,l),
(543,535,l),
(508,535,l),
(478,441,o),
(429,404,o),
(362,404,cs),
(259,404,l),
(259,374,l),
(346,374,ls),
(406,374,o),
(444,348,o),
(444,227,c)
);
},
{
closed = 1;
nodes = (
(689,548,l),
(725,754,l),
(128,754,l),
(128,724,l),
(488,724,ls),
(612,724,o),
(649,687,o),
(649,548,c)
);
}
);
width = 690;
}
);
unicode = 69;
},
{
glyphname = F;
lastChange = "2016-08-22 13:41:59 +0000";
layers = (
{
anchors = (
{
name = bottom;
pos = (266,0);
},
{
name = top;
pos = (440,754);
}
);
layerId = "426C3F01-D24D-4224-A47E-56DA036E4742";
shapes = (
{
closed = 1;
nodes = (
(211,0,l),
(379,754,l),
(262,754,l),
(98,0,l)
);
},
{
closed = 1;
nodes = (
(321,0,l),
(321,25,l),
(2,25,l),
(2,0,l)
);
},
{
closed = 1;
nodes = (
(450,224,l),
(506,528,l),
(481,528,l),
(450,428,o),
(415,401,o),
(338,401,cs),
(235,401,l),
(235,376,l),
(322,376,ls),
(405,376,o),
(420,349,o),
(420,224,c)
);
},
{
closed = 1;
nodes = (
(681,529,l),
(712,754,l),
(153,754,l),
(153,729,l),
(483,729,ls),
(622,729,o),
(651,692,o),
(651,529,c)
);
}
);
width = 635;
},
{
anchors = (
{
name = bottom;
pos = (278,0);
},
{
name = top;
pos = (452,754);
}
);
layerId = "DD3DBCA6-CF88-4DA3-ACF4-A2FFC969FFEC";
shapes = (
{
closed = 1;
nodes = (
(214,0,l),
(382,754,l),
(231,754,l),
(67,0,l)
);
},
{
closed = 1;
nodes = (
(349,0,l),
(349,31,l),
(-20,31,l),
(-20,0,l)
);
},
{
closed = 1;
nodes = (
(466,227,l),
(531,535,l),
(496,535,l),
(466,441,o),
(417,404,o),
(350,404,cs),
(247,404,l),
(247,374,l),
(334,374,ls),
(394,374,o),
(432,348,o),
(432,227,c)
);
},
{
closed = 1;
nodes = (
(677,548,l),
(713,754,l),
(116,754,l),
(116,724,l),
(476,724,ls),
(600,724,o),
(637,687,o),
(637,548,c)
);
}
);
width = 659;
}
);
unicode = 70;
},
{
glyphname = G;
kernLeft = G;
kernRight = G;
lastChange = "2016-08-22 13:41:59 +0000";
layers = (
{
anchors = (
{
name = bottom;
pos = (323,0);
},
{
name = top;
pos = (497,754);
}
);
layerId = "426C3F01-D24D-4224-A47E-56DA036E4742";
shapes = (
{
closed = 1;
nodes = (
(519,-13,o),
(652,69,o),
(702,256,c),
(547,256,l),
(515,76,o),
(469,19,o),
(363,19,cs),
(271,19,o),
(222,62,o),
(222,205,cs),
(222,390,o),
(304,736,o),
(505,736,cs),
(598,736,o),
(673,662,o),
(673,541,c),
(698,541,l),
(745,754,l),
(720,754,l),
(671,702,l),
(618,751,o),
(569,765,o),
(509,765,cs),
(259,765,o),
(84,519,o),
(84,314,cs),
(84,188,o),
(149,-13,o),
(375,-13,cs)
);
},
{
closed = 1;
nodes = (
(778,253,l),
(778,278,l),
(441,278,l),
(441,253,l)
);
}
);
width = 749;
},
{
anchors = (
{
name = bottom;
pos = (329,0);
},
{
name = top;
pos = (503,754);
}
);
layerId = "DD3DBCA6-CF88-4DA3-ACF4-A2FFC969FFEC";
shapes = (
{
closed = 1;
nodes = (
(559,-13,o),
(644,73,o),
(698,243,c),
(522,243,l),
(494,65,o),
(430,24,o),
(363,24,cs),
(290,24,o),
(248,73,o),
(248,207,cs),
(248,399,o),
(335,731,o),
(502,731,cs),
(585,731,o),
(651,650,o),
(651,521,c),
(681,521,l),
(728,754,l),
(693,754,l),
(649,707,l),
(607,748,o),
(565,765,o),
(509,765,cs),
(297,765,o),
(72,525,o),
(72,287,cs),
(72,134,o),
(165,-13,o),
(364,-13,cs)
);
},
{
closed = 1;
nodes = (
(773,237,l),
(773,267,l),
(423,267,l),
(423,237,l)
);
}
);
width = 762;
}
);
unicode = 71;
},
{
glyphname = H;
kernLeft = H;
kernRight = H;
lastChange = "2016-08-22 13:41:59 +0000";
layers = (
{
anchors = (
{
name = bottom;
pos = (342,0);
},
{
name = center;
pos = (429,377);
},
{
name = top;
pos = (516,754);
},
{
name = topleft;
pos = (142,754);
}
);
layerId = "426C3F01-D24D-4224-A47E-56DA036E4742";
shapes = (
{
closed = 1;
nodes = (
(625,0,l),
(793,754,l),
(676,754,l),
(512,0,l)
);
},
{
closed = 1;
nodes = (
(288,0,l),
(288,25,l),
(-1,25,l),
(-1,0,l)
);
},
{
closed = 1;
nodes = (
(727,0,l),
(727,25,l),
(431,25,l),
(431,0,l)
);
},
{
closed = 1;
nodes = (
(188,0,l),
(356,754,l),
(239,754,l),
(75,0,l)
);
},
{
closed = 1;
nodes = (
(631,377,l),
(631,405,l),
(192,405,l),
(192,377,l)
);
},
{
closed = 1;
nodes = (
(441,729,l),
(441,754,l),
(152,754,l),
(152,729,l)
);
},
{
closed = 1;
nodes = (
(876,729,l),
(876,754,l),
(580,754,l),
(580,729,l)
);
}
);
width = 787;
},
{
anchors = (
{
name = bottom;
pos = (352,0);
},
{
name = center;
pos = (439,377);
},
{
name = top;
pos = (526,754);
},
{
name = topleft;
pos = (142,754);
}
);
layerId = "DD3DBCA6-CF88-4DA3-ACF4-A2FFC969FFEC";
shapes = (
{
closed = 1;
nodes = (
(630,0,l),
(798,754,l),
(647,754,l),
(483,0,l)
);
},
{
closed = 1;
nodes = (
(336,0,l),
(336,31,l),
(-13,31,l),
(-13,0,l)
);
},
{
closed = 1;
nodes = (
(745,0,l),
(745,31,l),
(396,31,l),
(396,0,l)
);
},
{
closed = 1;
nodes = (
(221,0,l),
(389,754,l),
(238,754,l),
(74,0,l)
);
},
{
closed = 1;
nodes = (
(608,365,l),
(608,395,l),
(269,395,l),
(269,365,l)
);
},
{
closed = 1;
nodes = (
(477,724,l),
(477,754,l),
(138,754,l),
(138,724,l)
);
},
{
closed = 1;
nodes = (
(886,724,l),
(886,754,l),
(547,754,l),
(547,724,l)
);
}
);
width = 807;
}
);
unicode = 72;
},
{
glyphname = Hbar;
lastChange = "2016-08-22 10:35:49 +0000";
layers = (
{
layerId = "426C3F01-D24D-4224-A47E-56DA036E4742";
shapes = (
{
closed = 1;
nodes = (
(857,548,l),
(857,578,l),
(88,578,l),
(88,548,l)
);
},
{
ref = H;
}
);
width = 787;
},
{
layerId = "DD3DBCA6-CF88-4DA3-ACF4-A2FFC969FFEC";
shapes = (
{
closed = 1;
nodes = (
(869,538,l),
(869,578,l),
(100,578,l),
(100,538,l)
);
},
{
ref = H;
}
);
width = 807;
}
);
unicode = 294;
},
{
glyphname = I;
kernLeft = I;
kernRight = I;
lastChange = "2016-08-22 13:41:59 +0000";
layers = (
{
anchors = (
{
name = bottom;
pos = (128,0);
},
{
name = ogonek;
pos = (272,10);
},
{
name = top;
pos = (302,754);
},
{
name = topleft;
pos = (142,754);
}
);
layerId = "426C3F01-D24D-4224-A47E-56DA036E4742";
shapes = (
{
closed = 1;
nodes = (
(193,0,l),
(361,754,l),
(244,754,l),
(80,0,l)
);
},
{
closed = 1;
nodes = (
(303,0,l),
(303,25,l),
(-6,25,l),
(-6,0,l)
);
},
{
closed = 1;
nodes = (
(444,729,l),
(444,754,l),
(145,754,l),
(145,729,l)
);
}
);
width = 360;
},
{
anchors = (
{
name = bottom;
pos = (143,0);
},
{
name = ogonek;
pos = (299,10);
},
{
name = top;
pos = (317,754);
},
{
name = topleft;
pos = (142,754);
}
);
layerId = "DD3DBCA6-CF88-4DA3-ACF4-A2FFC969FFEC";
shapes = (
{
closed = 1;
nodes = (
(207,0,l),
(375,754,l),
(224,754,l),
(60,0,l)
);
},
{
closed = 1;
nodes = (
(302,0,l),
(302,31,l),
(-7,31,l),
(-7,0,l)
);
},
{
closed = 1;
nodes = (
(443,724,l),
(443,754,l),
(144,754,l),
(144,724,l)
);
}
);
width = 390;
}
);
unicode = 73;
},
{
glyphname = J;
kernLeft = J;
kernRight = J;
lastChange = "2016-08-22 13:41:59 +0000";
layers = (
{
anchors = (
{
name = bottom;
pos = (132,0);
},
{
name = top;
pos = (306,754);
}
);
layerId = "426C3F01-D24D-4224-A47E-56DA036E4742";
shapes = (
{
closed = 1;
nodes = (
(131,-101,o),
(211,-36,o),
(253,152,cs),
(387,754,l),
(270,754,l),
(121,71,ls),
(91,-67,o),
(55,-71,o),
(37,-71,cs),
(14,-71,o),
(1,-65,o),
(1,-50,cs),
(1,-31,o),
(23,-21,o),
(23,7,cs),
(23,33,o),
(4,60,o),
(-31,60,cs),
(-65,60,o),
(-92,34,o),
(-92,-8,cs),
(-92,-60,o),
(-50,-101,o),
(30,-101,cs)
);
},
{
closed = 1;
nodes = (
(470,729,l),
(470,754,l),
(181,754,l),
(181,729,l)
);
}
);
width = 368;
},
{
anchors = (
{
name = bottom;
pos = (168,0);
},
{
name = top;
pos = (342,754);
}
);
layerId = "DD3DBCA6-CF88-4DA3-ACF4-A2FFC969FFEC";
shapes = (
{
closed = 1;
nodes = (
(141,-119,o),
(257,-46,o),
(296,142,cs),
(423,754,l),
(272,754,l),
(114,34,ls),
(93,-64,o),
(73,-83,o),
(45,-83,cs),
(27,-83,o),
(19,-75,o),
(19,-65,cs),
(19,-48,o),
(47,-31,o),
(47,12,cs),
(47,59,o),
(13,84,o),
(-24,84,cs),
(-73,84,o),
(-101,39,o),
(-101,-3,cs),
(-101,-61,o),
(-49,-119,o),
(41,-119,cs)
);
},
{
closed = 1;
nodes = (
(491,724,l),
(491,754,l),
(162,754,l),
(162,724,l)
);
}
);
width = 440;
}
);
unicode = 74;
},
{
glyphname = K;
kernLeft = K;
kernRight = K;
lastChange = "2016-08-22 13:41:59 +0000";
layers = (
{
anchors = (
{
name = bottom;
pos = (311,0);
},
{
name = top;
pos = (485,754);
}
);
layerId = "426C3F01-D24D-4224-A47E-56DA036E4742";
shapes = (
{
closed = 1;
nodes = (
(214,0,l),
(382,754,l),
(265,754,l),
(101,0,l)
);
},
{
closed = 1;
nodes = (
(324,0,l),
(324,25,l),
(15,25,l),
(15,0,l)
);
},
{
closed = 1;
nodes = (
(764,0,l),
(764,25,l),
(418,25,l),
(418,0,l)
);
},
{
closed = 1;
nodes = (
(673,9,l),
(421,461,l),
(322,395,l),
(541,9,l)
);
},
{
closed = 1;
nodes = (
(475,729,l),
(475,754,l),
(156,754,l),
(156,729,l)
);
},
{
closed = 1;
nodes = (
(365,395,l),
(730,734,l),
(687,734,l),
(322,395,l)
);
},
{
closed = 1;
nodes = (
(833,729,l),
(833,754,l),
(568,754,l),
(568,729,l)
);
}
);
width = 726;
},
{
anchors = (
{
name = bottom;
pos = (317,0);
},
{
name = top;
pos = (491,754);
}
);
layerId = "DD3DBCA6-CF88-4DA3-ACF4-A2FFC969FFEC";
shapes = (
{
closed = 1;
nodes = (
(221,0,l),
(389,754,l),
(238,754,l),
(74,0,l)
);
},
{
closed = 1;
nodes = (
(316,0,l),
(316,31,l),
(7,31,l),
(7,0,l)
);
},
{
closed = 1;
nodes = (
(750,0,l),
(750,30,l),
(394,30,l),
(394,0,l)
);
},
{
closed = 1;
nodes = (
(674,9,l),
(457,472,l),
(328,395,l),
(497,9,l)
);
},
{
closed = 1;
nodes = (
(457,724,l),
(457,754,l),
(158,754,l),
(158,724,l)
);
},
{
closed = 1;
nodes = (
(380,395,l),
(765,734,l),
(713,734,l),
(328,395,l)
);
},
{
closed = 1;
nodes = (
(816,724,l),
(816,754,l),
(551,754,l),
(551,724,l)
);
}
);
width = 738;
}
);
unicode = 75;
},
{
glyphname = L;
kernLeft = L;
kernRight = L;
lastChange = "2016-08-22 13:41:59 +0000";
layers = (
{
anchors = (
{
name = bottom;
pos = (247,0);
},
{
name = center;
pos = (334,377);
},
{
name = top;
pos = (421,754);
},
{
name = topright;
pos = (700,754);
}
);
layerId = "426C3F01-D24D-4224-A47E-56DA036E4742";
shapes = (
{
closed = 1;
nodes = (
(167,0,l),
(335,754,l),
(218,754,l),
(54,0,l)
);
},
{
closed = 1;
nodes = (
(536,0,l),
(596,232,l),
(566,232,l),
(490,64,o),
(428,25,o),
(339,25,cs),
(-22,25,l),
(-22,0,l)
);
},
{
closed = 1;
nodes = (
(418,729,l),
(418,754,l),
(129,754,l),
(129,729,l)
);
}
);
width = 598;
},
{
anchors = (
{
name = bottom;
pos = (261,0);
},
{
name = center;
pos = (348,377);
},
{
name = top;
pos = (435,754);
},
{
name = topright;
pos = (728,754);
}
);
layerId = "DD3DBCA6-CF88-4DA3-ACF4-A2FFC969FFEC";
shapes = (
{
closed = 1;
nodes = (
(210,0,l),
(378,754,l),
(227,754,l),
(63,0,l)
);
},
{
closed = 1;
nodes = (
(561,0,l),
(621,232,l),
(581,232,l),
(505,78,o),
(423,30,o),
(344,30,cs),
(-29,30,l),
(-29,0,l)
);
},
{
closed = 1;
nodes = (
(486,724,l),
(486,754,l),
(107,754,l),
(107,724,l)
);
}
);
width = 626;
}
);
unicode = 76;
},
{
glyphname = Lslash;
lastChange = "2016-08-22 10:35:49 +0000";
layers = (
{
layerId = "426C3F01-D24D-4224-A47E-56DA036E4742";
shapes = (
{
closed = 1;
nodes = (
(399,463,l),
(399,503,l),
(12,277,l),
(12,237,l)
);
},
{
ref = L;
}
);
width = 598;
},
{
layerId = "DD3DBCA6-CF88-4DA3-ACF4-A2FFC969FFEC";
shapes = (
{
closed = 1;
nodes = (
(452,453,l),
(463,503,l),
(29,277,l),
(18,227,l)
);
},
{
ref = L;
}
);
width = 626;
}
);
unicode = 321;
},
{
glyphname = M;
lastChange = "2016-08-22 13:41:59 +0000";
layers = (
{
anchors = (
{
name = bottom;
pos = (388,0);
},
{
name = top;
pos = (562,754);
}
);
layerId = "426C3F01-D24D-4224-A47E-56DA036E4742";
shapes = (
{
closed = 1;
nodes = (
(798,754,l),
(759,754,l),
(458,227,l),
(368,0,l)
);
},
{
closed = 1;
nodes = (
(236,0,l),
(236,25,l),
(14,25,l),
(14,0,l)
);
},
{
closed = 1;
nodes = (
(131,0,l),
(295,754,l),
(265,754,l),
(101,0,l)
);
},
{
closed = 1;
nodes = (
(825,0,l),
(825,25,l),
(509,25,l),
(509,0,l)
);
},
{
closed = 1;
nodes = (
(368,0,l),
(458,227,l),
(454,227,l),
(408,754,l),
(284,754,l),
(284,705,l),
(288,705,l),
(347,0,l)
);
},
{
closed = 1;
nodes = (
(408,729,l),
(408,754,l),
(166,754,l),
(166,729,l)
);
},
{
closed = 1;
nodes = (
(708,0,l),
(876,754,l),
(759,754,l),
(595,0,l)
);
},
{
closed = 1;
nodes = (
(975,729,l),
(975,754,l),
(759,754,l),
(759,729,l)
);
}
);
width = 879;
},
{
anchors = (
{
name = bottom;
pos = (402,0);
},
{
name = top;
pos = (576,754);
}
);
layerId = "DD3DBCA6-CF88-4DA3-ACF4-A2FFC969FFEC";
shapes = (
{
closed = 1;
nodes = (
(796,754,l),
(747,754,l),
(480,272,l),
(366,0,l)
);
},
{
closed = 1;
nodes = (
(234,0,l),
(234,30,l),
(12,30,l),
(12,0,l)
);
},
{
closed = 1;
nodes = (
(129,0,l),
(293,754,l),
(253,754,l),
(89,0,l)
);
},
{
closed = 1;
nodes = (
(854,0,l),
(854,31,l),
(505,31,l),
(505,0,l)
);
},
{
closed = 1;
nodes = (
(366,0,l),
(480,272,l),
(476,272,l),
(420,754,l),
(282,754,l),
(265,626,l),
(269,626,l),
(345,0,l)
);
},
{
closed = 1;
nodes = (
(420,724,l),
(420,754,l),
(164,754,l),
(164,724,l)
);
},
{
closed = 1;
nodes = (
(739,0,l),
(907,754,l),
(756,754,l),
(592,0,l)
);
},
{
closed = 1;
nodes = (
(995,724,l),
(995,754,l),
(786,754,l),
(786,724,l)
);
}
);
width = 907;
}
);
unicode = 77;
},
{
glyphname = N;
kernLeft = N;
kernRight = N;
lastChange = "2016-08-22 13:41:59 +0000";
layers = (
{
anchors = (
{
name = bottom;
pos = (333,0);
},
{
name = top;
pos = (507,754);
}
);
layerId = "426C3F01-D24D-4224-A47E-56DA036E4742";
shapes = (
{
closed = 1;
nodes = (
(580,-13,l),
(613,228,l),
(609,228,l),
(399,754,l),
(275,754,l),
(275,705,l),
(279,705,l),
(560,-13,l)
);
},
{
closed = 1;
nodes = (
(237,0,l),
(237,25,l),
(-5,25,l),
(-5,0,l)
);
},
{
closed = 1;
nodes = (
(122,0,l),
(286,754,l),
(256,754,l),
(92,0,l)
);
},
{
closed = 1;
nodes = (
(399,729,l),
(399,754,l),
(147,754,l),
(147,729,l)
);
},
{
closed = 1;
nodes = (
(590,-13,l),
(757,754,l),
(727,754,l),
(560,-13,l)
);
},
{
closed = 1;
nodes = (
(854,729,l),
(854,754,l),
(612,754,l),
(612,729,l)
);
}
);
width = 769;
},
{
anchors = (
{
name = bottom;
pos = (323,0);
},
{
name = top;
pos = (497,754);
}
);
layerId = "DD3DBCA6-CF88-4DA3-ACF4-A2FFC969FFEC";
shapes = (
{
closed = 1;
nodes = (
(575,-13,l),
(619,267,l),
(615,267,l),
(384,754,l),
(270,754,l),
(251,637,l),
(255,637,l),
(555,-13,l)
);
},
{
closed = 1;
nodes = (
(222,0,l),
(222,30,l),
(-15,30,l),
(-15,0,l)
);
},
{
closed = 1;
nodes = (
(112,0,l),
(276,754,l),
(236,754,l),
(72,0,l)
);
},
{
closed = 1;
nodes = (
(384,724,l),
(384,754,l),
(127,754,l),
(127,724,l)
);
},
{
closed = 1;
nodes = (
(586,-13,l),
(753,754,l),
(713,754,l),
(564,-13,l)
);
},
{
closed = 1;
nodes = (
(830,724,l),
(830,754,l),
(612,754,l),
(612,724,l)
);
}
);
width = 749;
}
);
unicode = 78;
},
{
glyphname = Eng;
kernLeft = N;
lastChange = "2016-08-22 10:35:49 +0000";
layers = (
{
layerId = "426C3F01-D24D-4224-A47E-56DA036E4742";
shapes = (
{
closed = 1;
nodes = (
(537,-158,o),
(572,-81,o),
(598,35,cs),
(753,737,l),
(723,737,l),
(567,19,ls),
(537,-117,o),
(495,-129,o),
(472,-129,cs),
(454,-129,o),
(445,-122,o),
(445,-107,cs),
(445,-83,o),
(467,-73,o),
(467,-48,cs),
(467,-24,o),
(448,3,o),
(413,3,cs),
(379,3,o),
(352,-23,o),
(352,-64,cs),
(352,-118,o),
(397,-158,o),
(456,-158,cs)
);
},
{
closed = 1;
nodes = (
(237,0,l),
(237,25,l),
(-5,25,l),
(-5,0,l)
);
},
{
closed = 1;
nodes = (
(122,0,l),
(286,754,l),
(256,754,l),
(92,0,l)
);
},
{
closed = 1;
nodes = (
(593,47,l),
(625,286,l),
(621,286,l),
(399,754,l),
(275,754,l),
(275,705,l),
(279,705,l),
(573,47,l)
);
},
{
closed = 1;
nodes = (
(399,729,l),
(399,754,l),
(147,754,l),
(147,729,l)
);
},
{
closed = 1;
nodes = (
(854,729,l),
(854,754,l),
(612,754,l),
(612,729,l)
);
}
);
width = 769;
},
{
layerId = "DD3DBCA6-CF88-4DA3-ACF4-A2FFC969FFEC";
shapes = (
{
closed = 1;
nodes = (
(532,-157,o),
(573,-81,o),
(594,16,cs),
(751,737,l),
(711,737,l),
(548,-4,ls),
(528,-93,o),
(498,-114,o),
(471,-114,cs),
(450,-114,o),
(443,-105,o),
(443,-95,cs),
(443,-68,o),
(481,-77,o),
(481,-26,cs),
(481,21,o),
(447,46,o),
(410,46,cs),
(361,46,o),
(333,1,o),
(333,-41,cs),
(333,-95,o),
(378,-157,o),
(451,-157,cs)
);
},
{
closed = 1;
nodes = (
(222,0,l),
(222,30,l),
(-15,30,l),
(-15,0,l)
);
},
{
closed = 1;
nodes = (
(112,0,l),
(276,754,l),
(236,754,l),
(72,0,l)
);
},
{
closed = 1;
nodes = (
(587,39,l),
(623,337,l),
(619,337,l),
(384,754,l),
(270,754,l),
(251,637,l),
(255,637,l),
(567,39,l)
);
},
{
closed = 1;
nodes = (
(384,724,l),
(384,754,l),
(127,754,l),
(127,724,l)
);
},
{
closed = 1;
nodes = (
(830,724,l),
(830,754,l),
(612,754,l),
(612,724,l)
);
}
);
width = 751;
}
);
unicode = 330;
},
{
glyphname = O;
kernLeft = O;
kernRight = O;
lastChange = "2016-08-22 14:09:58 +0000";
layers = (
{
anchors = (
{
name = bottom;
pos = (333,0);
},
{
name = center;
pos = (420,377);
},
{
name = ogonek;
pos = (640,10);
},
{
name = top;
pos = (533,754);
},
{
name = topleft;
pos = (142,754);
},
{
name = topright;
pos = (666,703);
}
);
layerId = "426C3F01-D24D-4224-A47E-56DA036E4742";
shapes = (
{
closed = 1;
nodes = (
(599,-11,o),
(781,278,o),
(781,475,cs),
(781,617,o),
(686,763,o),
(518,763,cs),
(300,763,o),
(72,516,o),
(72,280,cs),
(72,131,o),
(163,-11,o),
(343,-11,cs)
);
},
{
closed = 1;
nodes = (
(248,19,o),
(210,89,o),
(210,208,cs),
(210,390,o),
(298,736,o),
(520,736,cs),
(588,736,o),
(651,704,o),
(651,547,cs),
(651,377,o),
(578,19,o),
(349,19,cs)
);
}
);
width = 769;
},
{
anchors = (
{
name = bottom;
pos = (343,0);
},
{
name = center;
pos = (430,377);
},
{
name = ogonek;
pos = (658,10);
},
{
name = top;
pos = (517,754);
},
{
name = topleft;
pos = (142,754);
},
{
name = topright;
pos = (658,701);
}
);
layerId = "DD3DBCA6-CF88-4DA3-ACF4-A2FFC969FFEC";
shapes = (
{
closed = 1;
nodes = (
(589,-11,o),
(798,227,o),
(798,454,cs),
(798,630,o),
(672,763,o),
(500,763,cs),
(272,763,o),
(65,529,o),
(65,304,cs),
(65,129,o),
(190,-11,o),
(363,-11,cs)
);
},
{
closed = 1;
nodes = (
(270,21,o),
(238,89,o),
(238,194,cs),
(238,384,o),
(298,731,o),
(503,731,cs),
(613,731,o),
(624,630,o),
(624,551,cs),
(624,369,o),
(565,21,o),
(357,21,cs)
);
}
);
width = 789;
}
);
unicode = 79;
},
{
glyphname = Oslash;
lastChange = "2016-08-22 14:17:28 +0000";
layers = (
{
layerId = "426C3F01-D24D-4224-A47E-56DA036E4742";
shapes = (
{
closed = 1;
nodes = (
(81,-53,l),
(169,49,l),
(212,12,o),
(270,-11,o),
(343,-11,cs),
(599,-11,o),
(781,278,o),
(781,475,cs),
(781,548,o),
(756,622,o),
(709,676,c),
(819,804,l),
(781,804,l),
(689,697,l),
(646,737,o),
(588,763,o),
(518,763,cs),
(300,763,o),
(72,516,o),
(72,280,cs),
(72,201,o),
(97,123,o),
(148,68,c),
(44,-53,l)
);
},
{
closed = 1;
nodes = (
(279,19,o),
(240,52,o),
(222,111,c),
(647,605,l),
(689,367,o),
(547,19,o),
(349,19,cs)
);
},
{
closed = 1;
nodes = (
(211,164,o),
(210,185,o),
(210,208,cs),
(210,390,o),
(298,736,o),
(520,736,cs),
(571,736,o),
(620,717,o),
(640,640,c),
(214,145,l)
);
}
);
width = 769;
},
{
layerId = "DD3DBCA6-CF88-4DA3-ACF4-A2FFC969FFEC";
shapes = (
{
closed = 1;
nodes = (
(112,-53,l),
(193,42,l),
(240,8,o),
(298,-11,o),
(363,-11,cs),
(589,-11,o),
(798,227,o),
(798,454,cs),
(798,534,o),
(771,606,o),
(726,660,c),
(850,804,l),
(792,804,l),
(695,692,l),
(644,737,o),
(576,763,o),
(500,763,cs),
(272,763,o),
(65,529,o),
(65,304,cs),
(65,210,o),
(100,127,o),
(160,70,c),
(54,-53,l)
);
},
{
closed = 1;
nodes = (
(297,21,o),
(264,50,o),
(249,106,c),
(624,541,l),
(622,357,o),
(561,21,o),
(357,21,cs)
);
},
{
closed = 1;
nodes = (
(239,168,o),
(238,191,o),
(238,194,cs),
(238,384,o),
(298,731,o),
(503,731,cs),
(588,731,o),
(614,670,o),
(621,606,c),
(239,162,l)
);
}
);
width = 789;
}
);
unicode = 216;
},
{
glyphname = OE;
kernLeft = O;
kernRight = E;
lastChange = "2016-08-22 11:02:24 +0000";
layers = (
{
layerId = "426C3F01-D24D-4224-A47E-56DA036E4742";
shapes = (
{
closed = 1;
nodes = (
(575,0,o),
(735,279,o),
(735,472,cs),
(735,613,o),
(644,754,o),
(503,754,cs),
(292,754,o),
(72,516,o),
(72,284,cs),
(72,140,o),
(170,0,o),
(343,0,cs)
);
},
{
closed = 1;
nodes = (
(259,30,o),
(210,75,o),
(210,204,cs),
(210,389,o),
(295,727,o),
(508,727,cs),
(572,727,o),
(631,695,o),
(631,551,cs),
(631,373,o),
(551,30,o),
(336,30,cs)
);
},
{
closed = 1;
nodes = (
(1024,0,l),
(1084,232,l),
(1054,232,l),
(978,64,o),
(916,25,o),
(827,25,cs),
(572,25,l),
(571,124,l),
(471,49,l),
(352,0,l)
);
},
{
closed = 1;
nodes = (
(643,0,l),
(811,754,l),
(694,754,l),
(530,0,l)
);
},
{
closed = 1;
nodes = (
(893,226,l),
(952,534,l),
(927,534,l),
(896,430,o),
(861,403,o),
(781,403,cs),
(678,403,l),
(678,378,l),
(765,378,ls),
(848,378,o),
(863,351,o),
(863,226,c)
);
},
{
closed = 1;
nodes = (
(1116,553,l),
(1144,754,l),
(503,754,l),
(573,723,l),
(672,631,l),
(729,729,l),
(915,729,ls),
(1057,729,o),
(1086,692,o),
(1086,553,c)
);
}
);
width = 1133;
},
{
layerId = "DD3DBCA6-CF88-4DA3-ACF4-A2FFC969FFEC";
shapes = (
{
closed = 1;
nodes = (
(540,0,o),
(742,241,o),
(742,466,cs),
(742,619,o),
(651,754,o),
(507,754,cs),
(285,754,o),
(65,511,o),
(65,286,cs),
(65,135,o),
(170,0,o),
(337,0,cs)
);
},
{
closed = 1;
nodes = (
(270,32,o),
(233,66,o),
(233,170,cs),
(233,323,o),
(303,722,o),
(511,722,cs),
(594,722,o),
(609,662,o),
(609,591,cs),
(609,430,o),
(538,32,o),
(331,32,cs)
);
},
{
closed = 1;
nodes = (
(1021,0,l),
(1081,232,l),
(1041,232,l),
(965,68,o),
(903,30,o),
(814,30,cs),
(572,30,l),
(515,100,l),
(436,30,l),
(351,0,l)
);
},
{
closed = 1;
nodes = (
(650,0,l),
(818,754,l),
(667,754,l),
(503,0,l)
);
},
{
closed = 1;
nodes = (
(902,227,l),
(967,535,l),
(932,535,l),
(902,441,o),
(853,404,o),
(786,404,cs),
(683,404,l),
(683,374,l),
(770,374,ls),
(830,374,o),
(868,348,o),
(868,227,c)
);
},
{
closed = 1;
nodes = (
(1113,548,l),
(1149,754,l),
(512,754,l),
(602,724,l),
(656,643,l),
(705,724,l),
(912,724,ls),
(1036,724,o),
(1073,687,o),
(1073,548,c)
);
}
);
width = 1114;
}
);
unicode = 338;
},
{
glyphname = P;
kernLeft = P;
lastChange = "2016-08-22 13:41:59 +0000";
layers = (
{
anchors = (
{
name = bottom;
pos = (270,0);
},
{
name = top;
pos = (444,754);
}
);
layerId = "426C3F01-D24D-4224-A47E-56DA036E4742";
shapes = (
{
closed = 1;
nodes = (
(347,348,ls),
(538,348,o),
(676,437,o),
(676,569,cs),
(676,675,o),
(586,754,o),
(417,754,cs),
(126,754,l),
(126,729,l),
(405,729,ls),
(517,729,o),
(540,694,o),
(540,601,cs),
(540,449,o),
(478,373,o),
(342,373,cs),
(183,373,l),
(183,348,l)
);
},
{
closed = 1;
nodes = (
(294,0,l),
(294,25,l),
(-25,25,l),
(-25,0,l)
);
},
{
closed = 1;
nodes = (
(174,0,l),
(342,754,l),
(225,754,l),
(61,0,l)
);
}
);
width = 643;
},
{
anchors = (
{
name = bottom;
pos = (290,0);
},
{
name = top;
pos = (464,754);
}
);
layerId = "DD3DBCA6-CF88-4DA3-ACF4-A2FFC969FFEC";
shapes = (
{
closed = 1;
nodes = (
(342,348,ls),
(581,348,o),
(715,436,o),
(715,571,cs),
(715,684,o),
(622,754,o),
(442,754,cs),
(121,754,l),
(121,724,l),
(430,724,ls),
(529,724,o),
(549,690,o),
(549,604,cs),
(549,448,o),
(484,373,o),
(370,373,cs),
(178,373,l),
(178,348,l)
);
},
{
closed = 1;
nodes = (
(304,0,l),
(304,31,l),
(-5,31,l),
(-5,0,l)
);
},
{
closed = 1;
nodes = (
(209,0,l),
(377,754,l),
(226,754,l),
(62,0,l)
);
}
);
width = 683;
}
);
unicode = 80;
},
{
glyphname = Thorn;
lastChange = "2016-08-22 10:35:49 +0000";
layers = (
{
layerId = "426C3F01-D24D-4224-A47E-56DA036E4742";
shapes = (
{
closed = 1;
nodes = (
(171,0,l),
(339,754,l),
(222,754,l),
(58,0,l)
);
},
{
closed = 1;
nodes = (
(291,0,l),
(291,25,l),
(-28,25,l),
(-28,0,l)
);
},
{
closed = 1;
nodes = (
(304,178,ls),
(495,178,o),
(633,267,o),
(633,399,cs),
(633,505,o),
(543,584,o),
(374,584,cs),
(213,584,l),
(213,559,l),
(362,559,ls),
(474,559,o),
(497,524,o),
(497,431,cs),
(497,279,o),
(435,203,o),
(299,203,cs),
(140,203,l),
(140,178,l)
);
},
{
closed = 1;
nodes = (
(445,729,l),
(445,754,l),
(116,754,l),
(116,729,l)
);
}
);
width = 622;
},
{
layerId = "DD3DBCA6-CF88-4DA3-ACF4-A2FFC969FFEC";
shapes = (
{
closed = 1;
nodes = (
(204,0,l),
(372,754,l),
(221,754,l),
(57,0,l)
);
},
{
closed = 1;
nodes = (
(299,0,l),
(299,31,l),
(-10,31,l),
(-10,0,l)
);
},
{
closed = 1;
nodes = (
(303,175,ls),
(542,175,o),
(676,263,o),
(676,398,cs),
(676,511,o),
(583,581,o),
(403,581,cs),
(222,581,l),
(222,551,l),
(391,551,ls),
(490,551,o),
(510,517,o),
(510,431,cs),
(510,275,o),
(445,200,o),
(331,200,cs),
(139,200,l),
(139,175,l)
);
},
{
closed = 1;
nodes = (
(453,723,l),
(453,754,l),
(144,754,l),
(144,723,l)
);
}
);
width = 642;
}
);
unicode = 222;
},
{
glyphname = Q;
kernLeft = O;
lastChange = "2016-08-22 13:41:59 +0000";
layers = (
{
anchors = (
{
name = bottom;
pos = (333,0);
},
{
name = top;
pos = (507,754);
}
);
layerId = "426C3F01-D24D-4224-A47E-56DA036E4742";
shapes = (
{
closed = 1;
nodes = (
(599,-11,o),
(781,278,o),
(781,475,cs),
(781,617,o),
(686,763,o),
(518,763,cs),
(300,763,o),
(72,516,o),
(72,280,cs),
(72,131,o),
(163,-11,o),
(343,-11,cs)
);
},
{
closed = 1;
nodes = (
(539,-242,o),
(577,-239,o),
(618,-232,c),
(611,-202,l),
(585,-208,o),
(561,-210,o),
(541,-210,cs),
(455,-210,o),
(404,-172,o),
(404,-85,cs),
(404,-48,o),
(413,-18,o),
(431,12,c),
(265,6,l),
(263,-10,o),
(262,-26,o),
(262,-40,cs),
(262,-173,o),
(350,-242,o),
(506,-242,cs)
);
},
{
closed = 1;
nodes = (
(248,19,o),
(210,89,o),
(210,208,cs),
(210,390,o),
(298,736,o),
(520,736,cs),
(588,736,o),
(651,704,o),
(651,547,cs),
(651,377,o),
(578,19,o),
(349,19,cs)
);
}
);
width = 769;
},
{
anchors = (
{
name = bottom;
pos = (343,0);
},
{
name = top;
pos = (517,754);
}
);
layerId = "DD3DBCA6-CF88-4DA3-ACF4-A2FFC969FFEC";
shapes = (
{
closed = 1;
nodes = (
(583,-11,o),
(810,236,o),
(810,466,cs),
(810,623,o),
(701,763,o),
(525,763,cs),
(295,763,o),
(68,516,o),
(68,286,cs),
(68,129,o),
(177,-11,o),
(353,-11,cs)
);
},
{
closed = 1;
nodes = (
(524,-242,o),
(562,-239,o),
(603,-232,c),
(596,-192,l),
(570,-198,o),
(546,-200,o),
(526,-200,cs),
(452,-200,o),
(409,-165,o),
(409,-85,cs),
(409,-48,o),
(411,-18,o),
(416,12,c),
(251,15,l),
(249,-1,o),
(247,-26,o),
(247,-40,cs),
(247,-173,o),
(335,-242,o),
(491,-242,cs)
);
},
{
closed = 1;
nodes = (
(279,21,o),
(236,57,o),
(236,170,cs),
(236,326,o),
(310,731,o),
(529,731,cs),
(624,731,o),
(642,666,o),
(642,591,cs),
(642,427,o),
(567,21,o),
(349,21,cs)
);
}
);
width = 789;
}
);
unicode = 81;
},
{
glyphname = R;
kernLeft = P;
kernRight = R;
lastChange = "2016-08-22 13:41:59 +0000";
layers = (
{
anchors = (
{
name = bottom;
pos = (300,0);
},
{
name = top;
pos = (474,754);
}
);
layerId = "426C3F01-D24D-4224-A47E-56DA036E4742";
shapes = (
{
closed = 1;
nodes = (
(198,0,l),
(366,754,l),
(249,754,l),
(85,0,l)
);
},
{
closed = 1;
nodes = (
(318,0,l),
(318,25,l),
(-1,25,l),
(-1,0,l)
);
},
{
closed = 1;
nodes = (
(688,-10,o),
(708,4,o),
(727,25,c),
(711,39,l),
(699,27,o),
(686,23,o),
(665,23,cs),
(605,23,o),
(603,56,o),
(600,138,cs),
(594,283,o),
(576,335,o),
(438,389,c),
(438,393,l),
(315,390,l),
(398,390,o),
(451,345,o),
(458,233,cs),
(463,154,o),
(446,-10,o),
(633,-10,cs)
);
},
{
closed = 1;
nodes = (
(371,391,ls),
(580,391,o),
(700,469,o),
(700,585,cs),
(700,685,o),
(610,754,o),
(441,754,cs),
(150,754,l),
(150,729,l),
(429,729,ls),
(542,729,o),
(564,700,o),
(564,620,cs),
(564,487,o),
(502,416,o),
(392,416,cs),
(207,416,l),
(207,391,l)
);
}
);
width = 703;
},
{
anchors = (
{
name = bottom;
pos = (310,0);
},
{
name = top;
pos = (484,754);
}
);
layerId = "DD3DBCA6-CF88-4DA3-ACF4-A2FFC969FFEC";
shapes = (
{
closed = 1;
nodes = (
(213,0,l),
(381,754,l),
(230,754,l),
(66,0,l)
);
},
{
closed = 1;
nodes = (
(308,0,l),
(308,31,l),
(-1,31,l),
(-1,0,l)
);
},
{
closed = 1;
nodes = (
(668,-11,o),
(708,4,o),
(732,25,c),
(716,54,l),
(699,44,o),
(684,38,o),
(666,38,cs),
(614,38,o),
(620,93,o),
(615,161,cs),
(607,287,o),
(576,352,o),
(457,387,c),
(457,391,l),
(334,385,l),
(436,385,o),
(440,310,o),
(443,233,cs),
(448,110,o),
(453,-11,o),
(612,-11,cs)
);
},
{
closed = 1;
nodes = (
(346,385,ls),
(586,385,o),
(719,454,o),
(719,578,cs),
(719,681,o),
(626,754,o),
(446,754,cs),
(125,754,l),
(125,724,l),
(434,724,ls),
(529,724,o),
(553,690,o),
(553,614,cs),
(553,491,o),
(488,415,o),
(374,415,cs),
(182,415,l),
(182,385,l)
);
}
);
width = 723;
}
);
unicode = 82;
},
{
glyphname = S;
kernLeft = S;
kernRight = S;
lastChange = "2016-08-22 13:41:59 +0000";
layers = (
{
anchors = (
{
name = bottom;
pos = (237,0);
},
{
name = top;
pos = (411,754);
}
);
layerId = "426C3F01-D24D-4224-A47E-56DA036E4742";
shapes = (
{
closed = 1;
nodes = (
(419,-13,o),
(535,93,o),
(535,247,cs),
(535,492,o),
(212,464,o),
(212,617,cs),
(212,695,o),
(301,738,o),
(374,738,cs),
(473,738,o),
(530,664,o),
(530,555,c),
(555,555,l),
(595,754,l),
(570,754,l),
(528,708,l),
(497,740,o),
(449,763,o),
(377,763,cs),
(223,763,o),
(149,658,o),
(149,543,cs),
(149,317,o),
(466,349,o),
(466,177,cs),
(466,102,o),
(399,12,o),
(275,12,cs),
(169,12,o),
(106,79,o),
(87,213,c),
(62,213,l),
(17,0,l),
(42,0,l),
(99,54,l),
(137,14,o),
(192,-13,o),
(268,-13,cs)
);
}
);
width = 577;
},
{
anchors = (
{
name = bottom;
pos = (239,0);
},
{
name = top;
pos = (413,754);
}
);
layerId = "DD3DBCA6-CF88-4DA3-ACF4-A2FFC969FFEC";
shapes = (
{
closed = 1;
nodes = (
(430,-13,o),
(545,97,o),
(545,253,cs),
(545,514,o),
(221,467,o),
(221,618,cs),
(221,677,o),
(270,728,o),
(355,728,cs),
(447,728,o),
(523,669,o),
(523,555,c),
(553,555,l),
(587,754,l),
(562,754,l),
(522,708,l),
(488,740,o),
(431,763,o),
(366,763,cs),
(217,763,o),
(124,643,o),
(124,515,cs),
(124,277,o),
(444,318,o),
(444,161,cs),
(444,94,o),
(385,22,o),
(274,22,cs),
(169,22,o),
(106,86,o),
(82,213,c),
(52,213,l),
(15,0,l),
(50,0,l),
(100,49,l),
(141,12,o),
(199,-13,o),
(274,-13,cs)
);
}
);
width = 581;
}
);
unicode = 83;
},
{
glyphname = Schwa;
lastChange = "2016-08-22 13:49:19 +0000";
layers = (
{
layerId = "426C3F01-D24D-4224-A47E-56DA036E4742";
shapes = (
{
closed = 1;
nodes = (
(529,-13,o),
(731,225,o),
(731,462,cs),
(731,619,o),
(642,763,o),
(473,763,cs),
(343,763,o),
(218,678,o),
(123,544,c),
(157,521,l),
(237,643,o),
(356,729,o),
(470,729,cs),
(560,729,o),
(600,675,o),
(600,538,cs),
(600,323,o),
(502,20,o),
(315,20,cs),
(249,20,o),
(211,57,o),
(211,157,cs),
(211,286,o),
(275,388,o),
(466,388,cs),
(508,388,o),
(551,383,o),
(592,371,c),
(595,408,l),
(574,413,o),
(473,426,o),
(400,426,cs),
(204,426,o),
(65,331,o),
(65,189,cs),
(65,61,o),
(177,-13,o),
(303,-13,cs)
);
}
);
width = 729;
},
{
layerId = "DD3DBCA6-CF88-4DA3-ACF4-A2FFC969FFEC";
shapes = (
{
closed = 1;
nodes = (
(533,-11,o),
(745,223,o),
(745,453,cs),
(745,613,o),
(642,763,o),
(449,763,cs),
(301,763,o),
(179,675,o),
(101,532,c),
(142,500,l),
(235,654,o),
(327,697,o),
(437,697,cs),
(538,697,o),
(577,661,o),
(577,527,cs),
(577,306,o),
(472,23,o),
(307,23,cs),
(236,23,o),
(203,76,o),
(203,160,cs),
(203,282,o),
(274,380,o),
(441,380,cs),
(528,380,o),
(567,380,o),
(605,363,c),
(613,421,l),
(595,425,o),
(473,440,o),
(390,440,cs),
(156,440,o),
(34,318,o),
(34,191,cs),
(34,69,o),
(148,-11,o),
(290,-11,cs)
);
}
);
width = 749;
}
);
unicode = 399;
},
{
glyphname = T;
kernLeft = T;
kernRight = T;
lastChange = "2016-08-22 13:41:59 +0000";
layers = (
{
anchors = (
{
name = bottom;
pos = (289,0);
},
{
name = center;
pos = (376,377);
},
{
name = top;
pos = (463,754);
}
);
layerId = "426C3F01-D24D-4224-A47E-56DA036E4742";
shapes = (
{
closed = 1;
nodes = (
(353,0,l),
(521,754,l),
(404,754,l),
(240,0,l)
);
},
{
closed = 1;
nodes = (
(473,0,l),
(473,25,l),
(134,25,l),
(134,0,l)
);
},
{
closed = 1;
nodes = (
(118,513,l),
(177,661,o),
(266,729,o),
(344,729,cs),
(565,729,ls),
(679,729,o),
(701,684,o),
(701,513,c),
(731,513,l),
(764,754,l),
(160,754,l),
(88,513,l)
);
}
);
width = 681;
},
{
anchors = (
{
name = bottom;
pos = (299,0);
},
{
name = center;
pos = (386,377);
},
{
name = top;
pos = (473,754);
}
);
layerId = "DD3DBCA6-CF88-4DA3-ACF4-A2FFC969FFEC";
shapes = (
{
closed = 1;
nodes = (
(377,0,l),
(545,754,l),
(394,754,l),
(230,0,l)
);
},
{
closed = 1;
nodes = (
(512,0,l),
(512,31,l),
(133,31,l),
(133,0,l)
);
},
{
closed = 1;
nodes = (
(123,513,l),
(180,658,o),
(267,724,o),
(344,724,cs),
(565,724,ls),
(683,724,o),
(706,680,o),
(706,513,c),
(741,513,l),
(774,754,l),
(160,754,l),
(88,513,l)
);
}
);
width = 701;
}
);
unicode = 84;
},
{
glyphname = Tbar;
lastChange = "2016-08-22 10:35:49 +0000";
layers = (
{
layerId = "426C3F01-D24D-4224-A47E-56DA036E4742";
shapes = (
{
closed = 1;
nodes = (
(605,416,l),
(605,451,l),
(190,451,l),
(190,416,l)
);
},
{
ref = T;
}
);
width = 681;
},
{
layerId = "DD3DBCA6-CF88-4DA3-ACF4-A2FFC969FFEC";
shapes = (
{
closed = 1;
nodes = (
(603,406,l),
(603,451,l),
(188,451,l),
(188,406,l)
);
},
{
ref = T;
}
);
width = 701;
}
);
unicode = 358;
},
{
glyphname = U;
kernLeft = U;
kernRight = U;
lastChange = "2016-08-22 14:07:27 +0000";
layers = (
{
anchors = (
{
name = bottom;
pos = (314,0);
},
{
name = ogonek;
pos = (607,10);
},
{
name = top;
pos = (488,754);
},
{
name = topright;
pos = (806,701);
}
);
layerId = "426C3F01-D24D-4224-A47E-56DA036E4742";
shapes = (
{
closed = 1;
nodes = (
(540,-13,o),
(603,92,o),
(633,231,cs),
(745,754,l),
(715,754,l),
(598,205,ls),
(573,86,o),
(493,17,o),
(387,17,cs),
(294,17,o),
(237,70,o),
(237,167,cs),
(237,192,o),
(241,227,o),
(250,266,cs),
(361,754,l),
(244,754,l),
(137,266,ls),
(130,233,o),
(126,203,o),
(126,176,cs),
(126,51,o),
(214,-13,o),
(357,-13,cs)
);
},
{
closed = 1;
nodes = (
(448,729,l),
(448,754,l),
(125,754,l),
(125,729,l)
);
},
{
closed = 1;
nodes = (
(842,729,l),
(842,754,l),
(600,754,l),
(600,729,l)
);
}
);
width = 732;
},
{
anchors = (
{
name = bottom;
pos = (324,0);
},
{
name = ogonek;
pos = (625,10);
},
{
name = top;
pos = (498,754);
},
{
name = topright;
pos = (820,701);
}
);
layerId = "DD3DBCA6-CF88-4DA3-ACF4-A2FFC969FFEC";
shapes = (
{
closed = 1;
nodes = (
(539,-11,o),
(610,69,o),
(644,226,cs),
(758,754,l),
(718,754,l),
(604,226,ls),
(575,90,o),
(491,31,o),
(398,31,cs),
(315,31,o),
(260,79,o),
(260,168,cs),
(260,185,o),
(262,206,o),
(267,226,cs),
(385,754,l),
(234,754,l),
(120,226,ls),
(116,206,o),
(114,187,o),
(114,170,cs),
(114,64,o),
(196,-11,o),
(365,-11,cs)
);
},
{
closed = 1;
nodes = (
(473,724,l),
(473,754,l),
(114,754,l),
(114,724,l)
);
},
{
closed = 1;
nodes = (
(838,724,l),
(838,754,l),
(611,754,l),
(611,724,l)
);
}
);
width = 752;
}
);
unicode = 85;
},
{
glyphname = Uhorn;
kernLeft = U;
kernRight = U;
lastChange = "2016-08-22 14:17:42 +0000";
layers = (
{
anchors = (
{
name = bottom;
pos = (314,0);
},
{
name = ogonek;
pos = (607,10);
},
{
name = top;
pos = (488,754);
},
{
name = topright;
pos = (806,701);
}
);
layerId = "426C3F01-D24D-4224-A47E-56DA036E4742";
shapes = (
{
closed = 1;
nodes = (
(540,-13,o),
(603,92,o),
(633,231,cs),
(745,754,l),
(715,754,l),
(598,205,ls),
(573,86,o),
(493,17,o),
(387,17,cs),
(294,17,o),
(237,70,o),
(237,167,cs),
(237,192,o),
(241,227,o),
(250,266,cs),
(361,754,l),
(244,754,l),
(137,266,ls),
(130,233,o),
(126,203,o),
(126,176,cs),
(126,51,o),
(214,-13,o),
(357,-13,cs)
);
},
{
closed = 1;
nodes = (
(448,729,l),
(448,754,l),
(125,754,l),
(125,729,l)
);
},
{
closed = 1;
nodes = (
(733,729,l),
(733,754,l),
(600,754,l),
(600,729,l)
);
},
{
pos = (501,251);
ref = horncomb;
}
);
width = 732;
},
{
anchors = (
{
name = bottom;
pos = (324,0);
},
{
name = ogonek;
pos = (625,10);
},
{
name = top;
pos = (498,754);
},
{
name = topright;
pos = (820,701);
}
);
layerId = "DD3DBCA6-CF88-4DA3-ACF4-A2FFC969FFEC";
shapes = (
{
closed = 1;
nodes = (
(539,-11,o),
(610,69,o),
(644,226,cs),
(758,754,l),
(718,754,l),
(604,226,ls),
(575,90,o),
(491,31,o),
(398,31,cs),
(315,31,o),
(260,79,o),
(260,168,cs),
(260,185,o),
(262,206,o),
(267,226,cs),
(385,754,l),
(234,754,l),
(120,226,ls),
(116,206,o),
(114,187,o),
(114,170,cs),
(114,64,o),
(196,-11,o),
(365,-11,cs)
);
},
{
closed = 1;
nodes = (
(473,724,l),
(473,754,l),
(114,754,l),
(114,724,l)
);
},
{
closed = 1;
nodes = (
(744,724,l),
(744,754,l),
(611,754,l),
(611,724,l)
);
},
{
pos = (507,251);
ref = horncomb;
}
);
width = 752;
}
);
unicode = 431;
},
{
glyphname = V;
lastChange = "2016-08-22 13:41:59 +0000";
layers = (
{
anchors = (
{
name = bottom;
pos = (230,0);
},
{
name = top;
pos = (404,754);
}
);
layerId = "426C3F01-D24D-4224-A47E-56DA036E4742";
shapes = (
{
closed = 1;
nodes = (
(158,-10,l),
(667,734,l),
(628,734,l),
(265,203,l),
(153,-10,l)
);
},
{
closed = 1;
nodes = (
(156,-10,l),
(268,207,l),
(264,207,l),
(313,744,l),
(190,744,l),
(135,-10,l)
);
},
{
closed = 1;
nodes = (
(380,729,l),
(380,754,l),
(111,754,l),
(111,729,l)
);
},
{
closed = 1;
nodes = (
(740,729,l),
(740,754,l),
(526,754,l),
(526,729,l)
);
}
);
width = 564;
},
{
anchors = (
{
name = bottom;
pos = (256,0);
},
{
name = top;
pos = (430,754);
}
);
layerId = "DD3DBCA6-CF88-4DA3-ACF4-A2FFC969FFEC";
shapes = (
{
closed = 1;
nodes = (
(174,-13,l),
(731,734,l),
(694,734,l),
(305,220,l),
(164,-13,l)
);
},
{
closed = 1;
nodes = (
(172,-13,l),
(308,224,l),
(304,224,l),
(339,744,l),
(176,744,l),
(141,-13,l)
);
},
{
closed = 1;
nodes = (
(416,724,l),
(416,754,l),
(97,754,l),
(97,724,l)
);
},
{
closed = 1;
nodes = (
(802,724,l),
(802,754,l),
(582,754,l),
(582,724,l)
);
}
);
width = 616;
}
);
unicode = 86;
},
{
glyphname = W;
kernLeft = W;
kernRight = W;
lastChange = "2016-08-22 13:41:59 +0000";
layers = (
{
anchors = (
{
name = bottom;
pos = (383,0);
},
{
name = top;
pos = (557,754);
}
);
layerId = "426C3F01-D24D-4224-A47E-56DA036E4742";
shapes = (
{
closed = 1;
nodes = (
(428,-10,l),
(979,734,l),
(946,734,l),
(538,196,l),
(423,-10,l)
);
},
{
closed = 1;
nodes = (
(150,-10,l),
(500,458,l),
(467,458,l),
(264,198,l),
(146,-10,l)
);
},
{
closed = 1;
nodes = (
(150,-10,l),
(267,202,l),
(263,202,l),
(307,744,l),
(184,744,l),
(129,-10,l)
);
},
{
closed = 1;
nodes = (
(428,-10,l),
(541,200,l),
(537,200,l),
(585,744,l),
(462,744,l),
(407,-10,l)
);
},
{
closed = 1;
nodes = (
(796,729,l),
(796,754,l),
(105,754,l),
(105,729,l)
);
},
{
closed = 1;
nodes = (
(733,738,l),
(700,738,l),
(497,478,l),
(531,467,l)
);
},
{
closed = 1;
nodes = (
(1052,729,l),
(1052,754,l),
(838,754,l),
(838,729,l)
);
}
);
width = 870;
},
{
anchors = (
{
name = bottom;
pos = (409,0);
},
{
name = top;
pos = (583,754);
}
);
layerId = "DD3DBCA6-CF88-4DA3-ACF4-A2FFC969FFEC";
shapes = (
{
closed = 1;
nodes = (
(452,-13,l),
(1029,734,l),
(990,734,l),
(580,210,l),
(442,-13,l)
);
},
{
closed = 1;
nodes = (
(150,-13,l),
(478,388,l),
(465,424,l),
(281,206,l),
(140,-13,l)
);
},
{
closed = 1;
nodes = (
(148,-13,l),
(284,210,l),
(280,210,l),
(315,744,l),
(152,744,l),
(117,-13,l)
);
},
{
closed = 1;
nodes = (
(444,-13,l),
(580,210,l),
(576,210,l),
(611,744,l),
(448,744,l),
(413,-13,l)
);
},
{
closed = 1;
nodes = (
(826,724,l),
(826,754,l),
(68,754,l),
(68,724,l)
);
},
{
closed = 1;
nodes = (
(775,734,l),
(738,734,l),
(560,501,l),
(571,464,l)
);
},
{
closed = 1;
nodes = (
(1083,724,l),
(1083,754,l),
(863,754,l),
(863,724,l)
);
}
);
width = 922;
}
);
unicode = 87;
},
{
glyphname = X;
lastChange = "2016-08-22 13:41:59 +0000";
layers = (
{
anchors = (
{
name = bottom;
pos = (250,0);
},
{
name = top;
pos = (424,754);
}
);
layerId = "426C3F01-D24D-4224-A47E-56DA036E4742";
shapes = (
{
closed = 1;
nodes = (
(556,0,l),
(274,754,l),
(149,754,l),
(435,0,l)
);
},
{
closed = 1;
nodes = (
(202,0,l),
(202,25,l),
(-55,25,l),
(-55,0,l)
);
},
{
closed = 1;
nodes = (
(73,20,l),
(309,323,l),
(313,323,l),
(362,389,l),
(327,389,l),
(38,20,l)
);
},
{
closed = 1;
nodes = (
(650,0,l),
(650,25,l),
(321,25,l),
(321,0,l)
);
},
{
closed = 1;
nodes = (
(381,729,l),
(381,754,l),
(62,754,l),
(62,729,l)
);
},
{
closed = 1;
nodes = (
(369,395,l),
(641,734,l),
(606,734,l),
(387,462,l),
(383,462,l),
(334,395,l)
);
},
{
closed = 1;
nodes = (
(732,729,l),
(732,754,l),
(487,754,l),
(487,729,l)
);
}
);
width = 603;
},
{
anchors = (
{
name = bottom;
pos = (266,0);
},
{
name = top;
pos = (440,754);
}
);
layerId = "DD3DBCA6-CF88-4DA3-ACF4-A2FFC969FFEC";
shapes = (
{
closed = 1;
nodes = (
(577,0,l),
(295,754,l),
(130,754,l),
(416,0,l)
);
},
{
closed = 1;
nodes = (
(203,0,l),
(203,30,l),
(-54,30,l),
(-54,0,l)
);
},
{
closed = 1;
nodes = (
(74,20,l),
(297,306,l),
(301,306,l),
(363,389,l),
(320,389,l),
(34,20,l)
);
},
{
closed = 1;
nodes = (
(651,0,l),
(651,30,l),
(322,30,l),
(322,0,l)
);
},
{
closed = 1;
nodes = (
(382,724,l),
(382,754,l),
(63,754,l),
(63,724,l)
);
},
{
closed = 1;
nodes = (
(383,408,l),
(642,734,l),
(607,734,l),
(401,479,l),
(397,479,l),
(345,408,l)
);
},
{
closed = 1;
nodes = (
(733,724,l),
(733,754,l),
(488,754,l),
(488,724,l)
);
}
);
width = 635;
}
);
unicode = 88;
},
{
glyphname = Y;
kernLeft = Y;
kernRight = Y;
lastChange = "2016-08-22 13:41:59 +0000";
layers = (
{
anchors = (
{
name = bottom;
pos = (240,0);
},
{
name = top;
pos = (414,754);
},
{
name = topleft;
pos = (142,754);
}
);
layerId = "426C3F01-D24D-4224-A47E-56DA036E4742";
shapes = (
{
closed = 1;
nodes = (
(393,365,l),
(249,754,l),
(124,754,l),
(284,334,l)
);
},
{
closed = 1;
nodes = (
(372,317,l),
(664,734,l),
(629,734,l),
(388,390,l),
(384,390,l),
(337,317,l)
);
},
{
closed = 1;
nodes = (
(317,0,l),
(401,376,l),
(284,376,l),
(204,0,l)
);
},
{
closed = 1;
nodes = (
(447,0,l),
(447,25,l),
(95,25,l),
(95,0,l)
);
},
{
closed = 1;
nodes = (
(376,729,l),
(376,754,l),
(42,754,l),
(42,729,l)
);
},
{
closed = 1;
nodes = (
(755,729,l),
(755,754,l),
(510,754,l),
(510,729,l)
);
}
);
width = 583;
},
{
anchors = (
{
name = bottom;
pos = (272,0);
},
{
name = top;
pos = (446,754);
},
{
name = topleft;
pos = (142,754);
}
);
layerId = "DD3DBCA6-CF88-4DA3-ACF4-A2FFC969FFEC";
shapes = (
{
closed = 1;
nodes = (
(445,348,l),
(294,754,l),
(139,754,l),
(299,294,l)
);
},
{
closed = 1;
nodes = (
(430,300,l),
(701,734,l),
(666,734,l),
(439,374,l),
(435,374,l),
(384,300,l)
);
},
{
closed = 1;
nodes = (
(366,0,l),
(445,347,l),
(294,347,l),
(219,0,l)
);
},
{
closed = 1;
nodes = (
(491,0,l),
(491,31,l),
(112,31,l),
(112,0,l)
);
},
{
closed = 1;
nodes = (
(421,724,l),
(421,754,l),
(67,754,l),
(67,724,l)
);
},
{
closed = 1;
nodes = (
(772,724,l),
(772,754,l),
(547,754,l),
(547,724,l)
);
}
);
width = 647;
}
);
unicode = 89;
},
{
glyphname = Z;
kernLeft = Z;
kernRight = Z;
lastChange = "2016-08-22 13:41:59 +0000";
layers = (
{
anchors = (
{
name = bottom;
pos = (273,0);
},
{
name = top;
pos = (447,754);
}
);
layerId = "426C3F01-D24D-4224-A47E-56DA036E4742";
shapes = (
{
closed = 1;
nodes = (
(149,25,l),
(149,29,l),
(702,729,l),
(556,729,l),
(556,725,l),
(9,25,l)
);
},
{
closed = 1;
nodes = (
(550,0,l),
(610,232,l),
(580,232,l),
(504,64,o),
(442,25,o),
(353,25,cs),
(9,25,l),
(9,0,l)
);
},
{
closed = 1;
nodes = (
(180,542,l),
(256,694,o),
(318,729,o),
(407,729,cs),
(702,729,l),
(702,754,l),
(210,754,l),
(150,542,l)
);
}
);
width = 649;
},
{
anchors = (
{
name = bottom;
pos = (283,0);
},
{
name = top;
pos = (457,754);
}
);
layerId = "DD3DBCA6-CF88-4DA3-ACF4-A2FFC969FFEC";
shapes = (
{
closed = 1;
nodes = (
(190,30,l),
(190,35,l),
(720,724,l),
(543,724,l),
(543,720,l),
(-1,30,l)
);
},
{
closed = 1;
nodes = (
(556,0,l),
(616,232,l),
(576,232,l),
(500,68,o),
(438,30,o),
(349,30,cs),
(-1,30,l),
(-1,0,l)
);
},
{
closed = 1;
nodes = (
(181,533,l),
(235,664,o),
(318,724,o),
(392,724,cs),
(720,724,l),
(720,754,l),
(208,754,l),
(146,533,l)
);
}
);
width = 669;
}
);
unicode = 90;
},
{
glyphname = a;
kernLeft = a;
kernRight = a;
lastChange = "2016-08-22 13:41:59 +0000";
layers = (
{
anchors = (
{
name = bottom;
pos = (225,0);
},
{
name = ogonek;
pos = (447,10);
},
{
name = top;
pos = (329,450);
}
);
layerId = "426C3F01-D24D-4224-A47E-56DA036E4742";
shapes = (
{
closed = 1;
nodes = (
(252,-13,o),
(304,17,o),
(334,70,c),
(340,70,l),
(352,170,l),
(310,52,o),
(258,19,o),
(217,19,cs),
(176,19,o),
(154,53,o),
(154,117,cs),
(154,218,o),
(210,433,o),
(310,433,cs),
(354,433,o),
(386,392,o),
(386,335,cs),
(386,321,o),
(384,313,o),
(383,298,c),
(404,389,l),
(398,389,l),
(384,430,o),
(359,462,o),
(298,462,cs),
(172,462,o),
(43,328,o),
(43,173,cs),
(43,59,o),
(112,-13,o),
(197,-13,cs)
);
},
{
closed = 1;
nodes = (
(475,-13,o),
(526,68,o),
(556,142,c),
(536,151,l),
(502,71,o),
(466,30,o),
(443,30,cs),
(432,30,o),
(426,39,o),
(426,59,cs),
(426,77,o),
(431,106,o),
(441,147,cs),
(515,450,l),
(418,450,l),
(348,154,ls),
(341,125,o),
(338,101,o),
(338,81,cs),
(338,8,o),
(377,-13,o),
(410,-13,cs)
);
}
);
width = 554;
},
{
anchors = (
{
name = bottom;
pos = (241,0);
},
{
name = ogonek;
pos = (475,10);
},
{
name = top;
pos = (345,450);
}
);
layerId = "DD3DBCA6-CF88-4DA3-ACF4-A2FFC969FFEC";
shapes = (
{
closed = 1;
nodes = (
(257,-11,o),
(305,32,o),
(329,70,c),
(336,70,l),
(368,208,l),
(336,76,o),
(258,30,o),
(213,30,cs),
(183,30,o),
(171,48,o),
(171,107,cs),
(171,256,o),
(244,423,o),
(326,423,cs),
(358,423,o),
(392,385,o),
(392,333,cs),
(392,324,o),
(390,312,o),
(389,299,c),
(412,390,l),
(405,390,l),
(384,439,o),
(354,462,o),
(305,462,cs),
(174,462,o),
(29,320,o),
(29,166,cs),
(29,54,o),
(107,-11,o),
(192,-11,cs)
);
},
{
closed = 1;
nodes = (
(514,-11,o),
(577,69,o),
(603,152,c),
(578,161,l),
(541,69,o),
(500,41,o),
(480,41,cs),
(473,41,o),
(468,45,o),
(468,54,cs),
(468,58,o),
(469,70,o),
(473,87,cs),
(560,450,l),
(426,450,l),
(352,153,ls),
(339,100,o),
(336,86,o),
(336,70,cs),
(336,15,o),
(371,-11,o),
(423,-11,cs)
);
}
);
width = 586;
}
);
unicode = 97;
},
{
glyphname = ae;
kernLeft = a;
kernRight = a;
lastChange = "2016-08-22 14:17:55 +0000";
layers = (
{
layerId = "426C3F01-D24D-4224-A47E-56DA036E4742";
shapes = (
{
closed = 1;
nodes = (
(632,-13,o),
(702,31,o),
(751,119,c),
(731,133,l),
(679,47,o),
(617,17,o),
(553,17,cs),
(488,17,o),
(461,48,o),
(461,139,cs),
(461,263,o),
(512,432,o),
(615,432,cs),
(652,432,o),
(677,410,o),
(677,355,cs),
(677,284,o),
(634,219,o),
(512,219,cs),
(485,219,o),
(462,222,o),
(439,229,c),
(434,204,l),
(447,201,o),
(507,193,o),
(552,193,cs),
(676,193,o),
(765,254,o),
(765,341,cs),
(765,413,o),
(705,462,o),
(625,462,cs),
(487,462,o),
(362,314,o),
(362,179,cs),
(362,84,o),
(424,-13,o),
(548,-13,cs)
);
},
{
closed = 1;
nodes = (
(267,-13,o),
(329,31,o),
(368,110,c),
(374,110,l),
(374,143,l),
(350,157,l),
(329,63,o),
(270,19,o),
(217,19,cs),
(176,19,o),
(154,46,o),
(154,108,cs),
(154,209,o),
(211,433,o),
(313,433,cs),
(356,433,o),
(387,393,o),
(387,335,cs),
(387,325,o),
(387,313,o),
(385,300,c),
(407,391,l),
(401,391,l),
(387,431,o),
(360,462,o),
(301,462,cs),
(175,462,o),
(43,320,o),
(43,164,cs),
(43,53,o),
(111,-13,o),
(197,-13,cs)
);
},
{
closed = 1;
nodes = (
(441,147,l),
(517,450,l),
(420,450,l),
(337,102,l)
);
}
);
width = 777;
},
{
layerId = "DD3DBCA6-CF88-4DA3-ACF4-A2FFC969FFEC";
shapes = (
{
closed = 1;
nodes = (
(670,-11,o),
(755,42,o),
(808,129,c),
(783,148,l),
(721,57,o),
(649,29,o),
(584,29,cs),
(539,29,o),
(511,55,o),
(511,95,cs),
(511,196,o),
(565,432,o),
(652,432,cs),
(693,432,o),
(713,402,o),
(713,359,cs),
(713,291,o),
(670,232,o),
(574,232,cs),
(522,232,o),
(499,232,o),
(476,242,c),
(471,207,l),
(482,204,o),
(555,196,o),
(605,196,cs),
(751,196,o),
(826,267,o),
(826,344,cs),
(826,413,o),
(756,462,o),
(665,462,cs),
(530,462,o),
(368,319,o),
(368,176,cs),
(368,79,o),
(437,-11,o),
(569,-11,cs)
);
},
{
closed = 1;
nodes = (
(282,-11,o),
(343,47,o),
(377,100,c),
(384,100,l),
(376,154,l),
(368,208,l),
(336,76,o),
(258,30,o),
(213,30,cs),
(183,30,o),
(171,48,o),
(171,107,cs),
(171,256,o),
(244,423,o),
(326,423,cs),
(358,423,o),
(392,385,o),
(392,333,cs),
(392,324,o),
(390,312,o),
(389,299,c),
(412,390,l),
(405,390,l),
(384,439,o),
(354,462,o),
(305,462,cs),
(174,462,o),
(29,320,o),
(29,166,cs),
(29,54,o),
(107,-11,o),
(192,-11,cs)
);
},
{
closed = 1;
nodes = (
(473,97,l),
(560,450,l),
(426,450,l),
(352,153,l)
);
}
);
width = 847;
}
);
unicode = 230;
},
{
glyphname = b;
lastChange = "2016-08-22 13:41:59 +0000";
layers = (
{
anchors = (
{
name = bottom;
pos = (206,0);
},
{
name = top;
pos = (310,450);
}
);
layerId = "426C3F01-D24D-4224-A47E-56DA036E4742";
shapes = (
{
closed = 1;
nodes = (
(350,-13,o),
(487,127,o),
(487,284,cs),
(487,396,o),
(417,462,o),
(337,462,cs),
(292,462,o),
(250,441,o),
(225,416,c),
(218,416,l),
(197,328,l),
(233,397,o),
(276,430,o),
(323,430,cs),
(365,430,o),
(380,403,o),
(380,335,cs),
(380,175,o),
(297,16,o),
(207,16,cs),
(170,16,o),
(147,42,o),
(147,90,cs),
(147,108,o),
(150,124,o),
(153,138,cs),
(301,754,l),
(194,754,l),
(64,204,ls),
(54,163,o),
(52,147,o),
(52,131,cs),
(52,49,o),
(102,-13,o),
(201,-13,cs)
);
},
{
closed = 1;
nodes = (
(289,729,l),
(289,754,l),
(94,754,l),
(94,729,l)
);
}
);
width = 516;
},
{
anchors = (
{
name = bottom;
pos = (218,0);
},
{
name = top;
pos = (322,450);
}
);
layerId = "DD3DBCA6-CF88-4DA3-ACF4-A2FFC969FFEC";
shapes = (
{
closed = 1;
nodes = (
(361,-13,o),
(501,129,o),
(501,284,cs),
(501,407,o),
(414,462,o),
(342,462,cs),
(289,462,o),
(243,431,o),
(218,389,c),
(211,389,l),
(187,291,l),
(222,380,o),
(276,425,o),
(320,425,cs),
(348,425,o),
(356,406,o),
(356,351,cs),
(356,193,o),
(291,26,o),
(206,26,cs),
(176,26,o),
(153,46,o),
(153,93,cs),
(153,110,o),
(156,134,o),
(159,148,cs),
(298,754,l),
(171,754,l),
(40,204,ls),
(33,173,o),
(32,146,o),
(32,135,cs),
(32,48,o),
(95,-13,o),
(200,-13,cs)
);
},
{
closed = 1;
nodes = (
(286,724,l),
(286,754,l),
(71,754,l),
(71,724,l)
);
}
);
width = 540;
}
);
unicode = 98;
},
{
glyphname = c;
kernLeft = c;
kernRight = c;
lastChange = "2016-08-22 13:41:59 +0000";
layers = (
{
anchors = (
{
name = bottom;
pos = (183,0);
},
{
name = top;
pos = (287,450);
}
);
layerId = "426C3F01-D24D-4224-A47E-56DA036E4742";
shapes = (
{
closed = 1;
nodes = (
(312,-13,o),
(379,34,o),
(424,119,c),
(404,133,l),
(355,47,o),
(296,17,o),
(240,17,cs),
(173,17,o),
(149,60,o),
(149,134,cs),
(149,240,o),
(199,432,o),
(326,432,cs),
(348,432,o),
(377,426,o),
(377,412,cs),
(377,398,o),
(347,395,o),
(347,359,cs),
(347,327,o),
(371,311,o),
(402,311,cs),
(436,311,o),
(460,332,o),
(460,369,cs),
(460,425,o),
(408,462,o),
(328,462,cs),
(175,462,o),
(44,329,o),
(44,191,cs),
(44,89,o),
(115,-13,o),
(232,-13,cs)
);
}
);
width = 470;
},
{
anchors = (
{
name = bottom;
pos = (188,0);
},
{
name = top;
pos = (292,450);
}
);
layerId = "DD3DBCA6-CF88-4DA3-ACF4-A2FFC969FFEC";
shapes = (
{
closed = 1;
nodes = (
(324,-11,o),
(409,42,o),
(462,129,c),
(437,148,l),
(375,57,o),
(303,29,o),
(238,29,cs),
(182,29,o),
(158,50,o),
(167,105,cs),
(212,380,o),
(257,432,o),
(312,432,cs),
(331,432,o),
(346,426,o),
(346,407,cs),
(346,388,o),
(330,366,o),
(330,343,cs),
(330,314,o),
(354,287,o),
(399,287,cs),
(452,287,o),
(474,323,o),
(474,357,cs),
(474,414,o),
(409,462,o),
(318,462,cs),
(162,462,o),
(22,318,o),
(22,177,cs),
(22,78,o),
(91,-11,o),
(223,-11,cs)
);
}
);
width = 479;
}
);
unicode = 99;
},
{
glyphname = d;
kernLeft = d;
kernRight = d;
lastChange = "2016-08-22 13:41:59 +0000";
layers = (
{
anchors = (
{
name = bottom;
pos = (228,0);
},
{
name = center;
pos = (280,225);
},
{
name = top;
pos = (332,450);
},
{
name = topright;
pos = (592,450);
}
);
layerId = "426C3F01-D24D-4224-A47E-56DA036E4742";
shapes = (
{
closed = 1;
nodes = (
(498,-13,o),
(549,68,o),
(593,157,c),
(573,166,l),
(525,73,o),
(488,38,o),
(455,38,cs),
(440,38,o),
(432,45,o),
(432,63,cs),
(432,69,o),
(433,80,o),
(437,97,cs),
(599,754,l),
(492,754,l),
(349,153,ls),
(341,121,o),
(338,94,o),
(338,74,cs),
(338,11,o),
(368,-13,o),
(414,-13,cs)
);
},
{
closed = 1;
nodes = (
(263,-13,o),
(308,23,o),
(334,70,c),
(341,70,l),
(353,170,l),
(308,40,o),
(254,19,o),
(217,19,cs),
(172,19,o),
(146,48,o),
(146,120,cs),
(146,227,o),
(203,433,o),
(304,433,cs),
(351,433,o),
(387,389,o),
(387,333,cs),
(387,323,o),
(386,311,o),
(384,298,c),
(407,389,l),
(400,389,l),
(383,431,o),
(353,462,o),
(295,462,cs),
(173,462,o),
(32,324,o),
(32,169,cs),
(32,54,o),
(109,-13,o),
(198,-13,cs)
);
},
{
closed = 1;
nodes = (
(587,729,l),
(587,754,l),
(392,754,l),
(392,729,l)
);
}
);
width = 560;
},
{
anchors = (
{
name = bottom;
pos = (253,0);
},
{
name = center;
pos = (305,225);
},
{
name = top;
pos = (357,450);
},
{
name = topright;
pos = (641,450);
}
);
layerId = "DD3DBCA6-CF88-4DA3-ACF4-A2FFC969FFEC";
shapes = (
{
closed = 1;
nodes = (
(531,-11,o),
(594,69,o),
(620,152,c),
(595,161,l),
(558,69,o),
(517,41,o),
(497,41,cs),
(490,41,o),
(485,45,o),
(485,54,cs),
(485,58,o),
(486,70,o),
(490,87,cs),
(648,754,l),
(514,754,l),
(369,153,ls),
(356,100,o),
(353,86,o),
(353,70,cs),
(353,15,o),
(388,-11,o),
(440,-11,cs)
);
},
{
closed = 1;
nodes = (
(268,-11,o),
(320,32,o),
(346,70,c),
(353,70,l),
(385,208,l),
(351,76,o),
(267,30,o),
(220,30,cs),
(190,30,o),
(178,48,o),
(178,107,cs),
(178,250,o),
(251,423,o),
(332,423,cs),
(370,423,o),
(409,385,o),
(409,334,cs),
(409,322,o),
(407,313,o),
(406,298,c),
(429,389,l),
(422,389,l),
(399,439,o),
(365,462,o),
(312,462,cs),
(181,462,o),
(36,324,o),
(36,168,cs),
(36,53,o),
(114,-11,o),
(199,-11,cs)
);
},
{
closed = 1;
nodes = (
(591,724,l),
(591,754,l),
(396,754,l),
(396,724,l)
);
}
);
width = 609;
}
);
unicode = 100;
},
{
glyphname = eth;
lastChange = "2016-08-22 13:49:52 +0000";
layers = (
{
layerId = "426C3F01-D24D-4224-A47E-56DA036E4742";
shapes = (
{
closed = 1;
nodes = (
(418,-13,o),
(531,198,o),
(531,390,cs),
(531,585,o),
(415,718,o),
(257,752,c),
(242,725,l),
(369,693,o),
(421,623,o),
(421,515,cs),
(421,489,o),
(418,458,o),
(411,426,c),
(407,425,l),
(382,449,o),
(341,464,o),
(295,464,cs),
(156,464,o),
(31,329,o),
(31,186,cs),
(31,69,o),
(114,-13,o),
(231,-13,cs)
);
},
{
closed = 1;
nodes = (
(184,14,o),
(152,31,o),
(152,125,cs),
(152,254,o),
(212,434,o),
(317,434,cs),
(352,434,o),
(385,414,o),
(403,384,c),
(400,321,o),
(391,268,o),
(381,221,cs),
(349,72,o),
(314,14,o),
(230,14,cs)
);
},
{
closed = 1;
nodes = (
(593,666,l),
(584,695,l),
(257,590,l),
(267,561,l)
);
}
);
width = 547;
},
{
layerId = "DD3DBCA6-CF88-4DA3-ACF4-A2FFC969FFEC";
shapes = (
{
closed = 1;
nodes = (
(447,-11,o),
(592,191,o),
(592,393,cs),
(592,593,o),
(459,747,o),
(279,754,c),
(263,725,l),
(373,708,o),
(438,617,o),
(438,481,cs),
(438,458,o),
(436,452,o),
(435,432,c),
(431,431,l),
(408,446,o),
(370,455,o),
(328,455,cs),
(172,455,o),
(22,328,o),
(22,179,cs),
(22,60,o),
(117,-11,o),
(241,-11,cs)
);
},
{
closed = 1;
nodes = (
(203,24,o),
(180,60,o),
(180,127,cs),
(180,244,o),
(249,415,o),
(352,415,cs),
(392,415,o),
(420,390,o),
(429,364,c),
(429,308,o),
(419,264,o),
(409,223,cs),
(371,73,o),
(332,24,o),
(263,24,cs)
);
},
{
closed = 1;
nodes = (
(627,682,l),
(616,725,l),
(253,600,l),
(266,557,l)
);
}
);
width = 583;
}
);
unicode = 240;
},
{
glyphname = e;
kernLeft = e;
kernRight = e;
lastChange = "2016-08-22 13:41:59 +0000";
layers = (
{
anchors = (
{
name = bottom;
pos = (181,0);
},
{
name = ogonek;
pos = (367,10);
},
{
name = top;
pos = (285,450);
}
);
layerId = "426C3F01-D24D-4224-A47E-56DA036E4742";
shapes = (
{
closed = 1;
nodes = (
(334,-13,o),
(400,42,o),
(443,119,c),
(423,133,l),
(370,45,o),
(305,17,o),
(250,17,cs),
(182,17,o),
(153,59,o),
(153,148,cs),
(153,265,o),
(204,432,o),
(304,432,cs),
(341,432,o),
(366,410,o),
(366,357,cs),
(366,289,o),
(323,229,o),
(204,229,cs),
(177,229,o),
(154,229,o),
(131,239,c),
(126,214,l),
(139,211,o),
(199,203,o),
(245,203,cs),
(366,203,o),
(454,259,o),
(454,344,cs),
(454,413,o),
(395,462,o),
(311,462,cs),
(171,462,o),
(33,325,o),
(33,190,cs),
(33,86,o),
(115,-13,o),
(240,-13,cs)
);
}
);
width = 466;
},
{
anchors = (
{
name = bottom;
pos = (200,0);
},
{
name = ogonek;
pos = (402,10);
},
{
name = top;
pos = (304,450);
}
);
layerId = "DD3DBCA6-CF88-4DA3-ACF4-A2FFC969FFEC";
shapes = (
{
closed = 1;
nodes = (
(329,-11,o),
(414,42,o),
(467,129,c),
(442,148,l),
(380,57,o),
(308,29,o),
(243,29,cs),
(187,29,o),
(163,50,o),
(172,105,cs),
(213,383,o),
(268,432,o),
(313,432,cs),
(350,432,o),
(370,397,o),
(370,352,cs),
(370,285,o),
(327,232,o),
(233,232,cs),
(181,232,o),
(158,232,o),
(135,242,c),
(130,207,l),
(141,204,o),
(214,196,o),
(264,196,cs),
(408,196,o),
(483,261,o),
(483,337,cs),
(483,409,o),
(414,462,o),
(322,462,cs),
(170,462,o),
(27,319,o),
(27,177,cs),
(27,79,o),
(96,-11,o),
(228,-11,cs)
);
}
);
width = 504;
}
);
unicode = 101;
},
{
glyphname = schwa;
lastChange = "2016-08-22 11:22:41 +0000";
layers = (
{
layerId = "426C3F01-D24D-4224-A47E-56DA036E4742";
shapes = (
{
closed = 1;
nodes = (
(318,-13,o),
(456,120,o),
(456,261,cs),
(456,361,o),
(387,462,o),
(254,462,cs),
(164,462,o),
(98,415,o),
(50,330,c),
(70,316,l),
(122,402,o),
(184,432,o),
(242,432,cs),
(305,432,o),
(336,396,o),
(336,302,cs),
(336,182,o),
(285,17,o),
(185,17,cs),
(148,17,o),
(123,39,o),
(123,92,cs),
(123,162,o),
(166,222,o),
(285,222,cs),
(312,222,o),
(335,219,o),
(358,212,c),
(363,237,l),
(350,240,o),
(290,248,o),
(244,248,cs),
(124,248,o),
(35,192,o),
(35,106,cs),
(35,36,o),
(94,-13,o),
(178,-13,c)
);
}
);
width = 486;
},
{
layerId = "DD3DBCA6-CF88-4DA3-ACF4-A2FFC969FFEC";
shapes = (
{
closed = 1;
nodes = (
(361,-11,o),
(501,129,o),
(501,267,cs),
(501,367,o),
(432,462,o),
(303,462,cs),
(202,462,o),
(117,409,o),
(64,322,c),
(89,303,l),
(151,394,o),
(223,422,o),
(288,422,cs),
(343,422,o),
(365,393,o),
(356,338,cs),
(312,69,o),
(271,19,o),
(219,19,cs),
(178,19,o),
(158,49,o),
(158,93,cs),
(158,157,o),
(201,211,o),
(295,211,cs),
(347,211,o),
(370,211,o),
(393,201,c),
(398,236,l),
(387,239,o),
(314,247,o),
(264,247,cs),
(120,247,o),
(45,181,o),
(45,108,cs),
(45,38,o),
(115,-11,o),
(206,-11,cs)
);
}
);
width = 506;
}
);
unicode = 601;
},
{
glyphname = f;
kernLeft = f;
kernRight = f;
lastChange = "2016-08-22 13:41:59 +0000";
layers = (
{
anchors = (
{
name = bottom;
pos = (104,0);
},
{
name = top;
pos = (208,450);
}
);
layerId = "426C3F01-D24D-4224-A47E-56DA036E4742";
shapes = (
{
closed = 1;
nodes = (
(3,-324,o),
(101,-256,o),
(171,45,cs),
(277,501,ls),
(319,682,o),
(359,736,o),
(417,736,cs),
(438,736,o),
(452,729,o),
(452,718,cs),
(452,705,o),
(431,695,o),
(431,669,cs),
(431,645,o),
(450,625,o),
(481,625,cs),
(515,625,o),
(535,651,o),
(535,681,cs),
(535,732,o),
(482,766,o),
(424,766,cs),
(320,766,o),
(201,656,o),
(156,440,cs),
(35,-140,ls),
(10,-260,o),
(-26,-294,o),
(-68,-294,cs),
(-88,-294,o),
(-92,-287,o),
(-92,-276,cs),
(-92,-267,o),
(-89,-256,o),
(-89,-247,cs),
(-89,-223,o),
(-108,-203,o),
(-136,-203,cs),
(-164,-203,o),
(-185,-223,o),
(-185,-251,cs),
(-185,-293,o),
(-140,-324,o),
(-82,-324,cs)
);
},
{
closed = 1;
nodes = (
(383,425,l),
(383,450,l),
(62,450,l),
(62,425,l)
);
}
);
width = 312;
},
{
anchors = (
{
name = bottom;
pos = (108,0);
},
{
name = top;
pos = (212,450);
}
);
layerId = "DD3DBCA6-CF88-4DA3-ACF4-A2FFC969FFEC";
shapes = (
{
closed = 1;
nodes = (
(35,-324,o),
(153,-177,o),
(223,175,cs),
(288,501,ls),
(322,682,o),
(361,736,o),
(408,736,cs),
(426,736,o),
(434,728,o),
(434,718,cs),
(434,702,o),
(413,691,o),
(413,658,cs),
(413,623,o),
(438,600,o),
(476,600,cs),
(519,600,o),
(539,629,o),
(539,667,cs),
(539,727,o),
(487,766,o),
(422,766,cs),
(314,766,o),
(183,659,o),
(136,434,cs),
(52,33,ls),
(-11,-268,o),
(-28,-289,o),
(-61,-289,cs),
(-76,-289,o),
(-84,-285,o),
(-84,-272,cs),
(-84,-256,o),
(-71,-245,o),
(-71,-224,cs),
(-71,-198,o),
(-91,-172,o),
(-131,-172,cs),
(-172,-172,o),
(-193,-199,o),
(-193,-235,cs),
(-193,-279,o),
(-163,-324,o),
(-92,-324,cs)
);
},
{
closed = 1;
nodes = (
(399,420,l),
(399,450,l),
(38,450,l),
(38,420,l)
);
}
);
width = 320;
}
);
unicode = 102;
},
{
glyphname = g;
kernLeft = g;
kernRight = g;
lastChange = "2016-08-22 13:41:59 +0000";
layers = (
{
anchors = (
{
name = bottom;
pos = (207,0);
},
{
name = top;
pos = (311,450);
}
);
layerId = "426C3F01-D24D-4224-A47E-56DA036E4742";
shapes = (
{
closed = 1;
nodes = (
(355,-326,o),
(440,-197,o),
(440,-80,cs),
(440,-8,o),
(407,47,o),
(330,52,cs),
(172,62,ls),
(93,67,o),
(76,78,o),
(76,105,cs),
(76,137,o),
(100,158,o),
(143,166,c),
(145,197,l),
(115,192,o),
(4,156,o),
(4,69,cs),
(4,0,o),
(75,-30,o),
(113,-33,cs),
(336,-51,ls),
(374,-54,o),
(400,-77,o),
(400,-118,cs),
(400,-188,o),
(324,-296,o),
(168,-296,cs),
(70,-296,o),
(18,-254,o),
(18,-178,cs),
(18,-114,o),
(54,-62,o),
(205,-16,c),
(174,-5,l),
(-21,-52,o),
(-56,-118,o),
(-56,-177,cs),
(-56,-267,o),
(25,-326,o),
(158,-326,cs)
);
},
{
closed = 1;
nodes = (
(344,136,o),
(435,208,o),
(435,319,cs),
(435,401,o),
(385,462,o),
(292,462,cs),
(187,462,o),
(88,385,o),
(88,281,cs),
(88,213,o),
(131,136,o),
(239,136,cs)
);
},
{
closed = 1;
nodes = (
(194,156,o),
(183,186,o),
(183,237,cs),
(183,336,o),
(224,442,o),
(299,442,cs),
(335,442,o),
(347,418,o),
(347,367,cs),
(347,272,o),
(305,156,o),
(231,156,cs)
);
},
{
closed = 1;
nodes = (
(450,362,o),
(461,409,o),
(474,409,cs),
(484,409,o),
(488,382,o),
(516,382,cs),
(541,382,o),
(553,404,o),
(553,421,cs),
(553,443,o),
(535,462,o),
(508,462,cs),
(473,462,o),
(449,430,o),
(431,369,c),
(427,369,l),
(431,282,l)
);
}
);
width = 517;
},
{
anchors = (
{
name = bottom;
pos = (213,0);
},
{
name = top;
pos = (317,450);
}
);
layerId = "DD3DBCA6-CF88-4DA3-ACF4-A2FFC969FFEC";
shapes = (
{
closed = 1;
nodes = (
(366,-319,o),
(459,-187,o),
(459,-70,cs),
(459,7,o),
(419,56,o),
(349,58,cs),
(169,64,ls),
(88,67,o),
(71,81,o),
(71,108,cs),
(71,138,o),
(92,157,o),
(140,166,c),
(142,197,l),
(112,192,o),
(1,154,o),
(1,53,cs),
(1,-23,o),
(65,-58,o),
(103,-60,cs),
(333,-75,ls),
(380,-78,o),
(406,-92,o),
(406,-126,cs),
(406,-187,o),
(326,-284,o),
(169,-284,cs),
(73,-284,o),
(27,-248,o),
(27,-174,cs),
(27,-107,o),
(65,-58,o),
(202,-16,c),
(171,-5,l),
(53,-35,o),
(-59,-86,o),
(-59,-176,cs),
(-59,-263,o),
(22,-319,o),
(158,-319,cs)
);
},
{
closed = 1;
nodes = (
(370,131,o),
(476,204,o),
(476,323,cs),
(476,403,o),
(391,462,o),
(305,462,cs),
(185,462,o),
(66,384,o),
(66,275,cs),
(66,204,o),
(116,131,o),
(243,131,cs)
);
},
{
closed = 1;
nodes = (
(198,156,o),
(188,176,o),
(188,220,cs),
(188,308,o),
(229,437,o),
(314,437,cs),
(348,437,o),
(354,416,o),
(354,382,cs),
(354,300,o),
(319,156,o),
(231,156,cs)
);
},
{
closed = 1;
nodes = (
(485,367,o),
(495,391,o),
(506,391,cs),
(513,391,o),
(522,380,o),
(542,380,cs),
(573,380,o),
(584,405,o),
(584,423,cs),
(584,445,o),
(569,464,o),
(539,464,cs),
(501,464,o),
(483,432,o),
(463,374,c),
(457,374,l),
(471,287,l)
);
}
);
width = 529;
}
);
unicode = 103;
},
{
glyphname = h;
kernLeft = h;
kernRight = h;
lastChange = "2016-08-22 13:41:59 +0000";
layers = (
{
anchors = (
{
name = bottom;
pos = (225,0);
},
{
name = center;
pos = (277,225);
},
{
name = top;
pos = (329,450);
}
);
layerId = "426C3F01-D24D-4224-A47E-56DA036E4742";
shapes = (
{
closed = 1;
nodes = (
(122,0,l),
(304,754,l),
(197,754,l),
(19,0,l)
);
},
{
closed = 1;
nodes = (
(469,-13,o),
(523,69,o),
(562,157,c),
(542,166,l),
(500,73,o),
(467,38,o),
(438,38,cs),
(424,38,o),
(416,46,o),
(416,63,cs),
(416,69,o),
(417,80,o),
(421,97,cs),
(482,338,ls),
(486,355,o),
(488,370,o),
(488,382,cs),
(488,438,o),
(446,462,o),
(395,462,cs),
(321,462,o),
(254,413,o),
(214,363,c),
(207,363,l),
(179,236,l),
(209,342,o),
(289,420,o),
(349,420,cs),
(371,420,o),
(386,410,o),
(386,387,cs),
(386,379,o),
(384,371,o),
(382,361,cs),
(316,87,ls),
(314,78,o),
(312,67,o),
(312,56,cs),
(312,15,o),
(341,-13,o),
(388,-13,cs)
);
},
{
closed = 1;
nodes = (
(292,729,l),
(292,754,l),
(98,754,l),
(98,729,l)
);
}
);
width = 554;
},
{
anchors = (
{
name = bottom;
pos = (240,0);
},
{
name = center;
pos = (292,225);
},
{
name = top;
pos = (344,450);
}
);
layerId = "DD3DBCA6-CF88-4DA3-ACF4-A2FFC969FFEC";
shapes = (
{
closed = 1;
nodes = (
(146,0,l),
(334,754,l),
(197,754,l),
(13,0,l)
);
},
{
closed = 1;
nodes = (
(487,-11,o),
(550,21,o),
(596,146,c),
(571,155,l),
(535,69,o),
(497,35,o),
(472,35,cs),
(461,35,o),
(456,42,o),
(456,55,cs),
(456,61,o),
(457,72,o),
(461,89,cs),
(523,331,ls),
(527,348,o),
(529,362,o),
(529,375,cs),
(529,437,o),
(480,462,o),
(422,462,cs),
(339,462,o),
(282,412,o),
(242,362,c),
(235,362,l),
(202,231,l),
(234,343,o),
(329,416,o),
(373,416,cs),
(388,416,o),
(397,408,o),
(397,393,cs),
(397,384,o),
(394,365,o),
(392,356,cs),
(328,107,ls),
(326,98,o),
(324,88,o),
(324,75,cs),
(324,19,o),
(360,-11,o),
(422,-11,cs)
);
},
{
closed = 1;
nodes = (
(322,724,l),
(322,754,l),
(103,754,l),
(103,724,l)
);
}
);
width = 584;
}
);
unicode = 104;
},
{
glyphname = hbar;
kernRight = h;
lastChange = "2016-08-22 10:35:49 +0000";
layers = (
{
layerId = "426C3F01-D24D-4224-A47E-56DA036E4742";
shapes = (
{
closed = 1;
nodes = (
(389,576,l),
(389,611,l),
(64,611,l),
(64,576,l)
);
},
{
ref = h;
}
);
width = 554;
},
{
layerId = "DD3DBCA6-CF88-4DA3-ACF4-A2FFC969FFEC";
shapes = (
{
closed = 1;
nodes = (
(409,581,l),
(409,621,l),
(84,621,l),
(84,581,l)
);
},
{
ref = h;
}
);
width = 584;
}
);
unicode = 295;
},
{
glyphname = i;
kernLeft = i;
kernRight = i;
lastChange = "2016-08-22 13:50:11 +0000";
layers = (
{
anchors = (
{
name = bottom;
pos = (104,0);
}
);
layerId = "426C3F01-D24D-4224-A47E-56DA036E4742";
shapes = (
{
closed = 1;
nodes = (
(213,-13,o),
(271,73,o),
(310,157,c),
(290,166,l),
(244,73,o),
(208,38,o),
(176,38,cs),
(162,38,o),
(154,45,o),
(154,63,cs),
(154,69,o),
(155,80,o),
(159,97,cs),
(248,450,l),
(141,450,l),
(54,87,ls),
(52,78,o),
(50,67,o),
(50,56,cs),
(50,15,o),
(78,-13,o),
(127,-13,cs)
);
},
{
closed = 1;
nodes = (
(236,425,l),
(236,450,l),
(47,450,l),
(47,425,l)
);
},
{
closed = 1;
nodes = (
(265,601,o),
(295,631,o),
(295,667,cs),
(295,703,o),
(265,733,o),
(229,733,cs),
(193,733,o),
(163,703,o),
(163,667,cs),
(163,631,o),
(193,601,o),
(229,601,cs)
);
}
);
width = 312;
},
{
anchors = (
{
name = bottom;
pos = (113,0);
}
);
layerId = "DD3DBCA6-CF88-4DA3-ACF4-A2FFC969FFEC";
shapes = (
{
closed = 1;
nodes = (
(233,-11,o),
(298,38,o),
(335,147,c),
(310,156,l),
(269,65,o),
(225,37,o),
(203,37,cs),
(195,37,o),
(190,41,o),
(190,54,cs),
(190,58,o),
(191,68,o),
(195,87,cs),
(279,450,l),
(145,450,l),
(71,153,ls),
(58,100,o),
(55,86,o),
(55,70,cs),
(55,15,o),
(90,-11,o),
(142,-11,cs)
);
},
{
closed = 1;
nodes = (
(222,420,l),
(222,450,l),
(48,450,l),
(48,420,l)
);
},
{
closed = 1;
nodes = (
(290,577,o),
(325,612,o),
(325,656,cs),
(325,700,o),
(290,735,o),
(246,735,cs),
(202,735,o),
(167,700,o),
(167,656,cs),
(167,612,o),
(202,577,o),
(246,577,cs)
);
}
);
width = 330;
}
);
unicode = 105;
},
{
glyphname = idotless;
lastChange = "2016-08-22 14:11:03 +0000";
layers = (
{
anchors = (
{
name = bottom;
pos = (104,0);
},
{
name = ogonek;
pos = (229,10);
},
{
name = top;
pos = (208,450);
}
);
layerId = "426C3F01-D24D-4224-A47E-56DA036E4742";
shapes = (
{
closed = 1;
nodes = (
(213,-13,o),
(271,73,o),
(310,157,c),
(290,166,l),
(244,73,o),
(208,38,o),
(176,38,cs),
(162,38,o),
(154,45,o),
(154,63,cs),
(154,69,o),
(155,80,o),
(159,97,cs),
(248,450,l),
(141,450,l),
(54,87,ls),
(52,78,o),
(50,67,o),
(50,56,cs),
(50,15,o),
(78,-13,o),
(127,-13,cs)
);
},
{
closed = 1;
nodes = (
(236,425,l),
(236,450,l),
(47,450,l),
(47,425,l)
);
}
);
width = 312;
},
{
anchors = (
{
name = bottom;
pos = (113,0);
},
{
name = ogonek;
pos = (245,10);
},
{
name = top;
pos = (217,450);
}
);
layerId = "DD3DBCA6-CF88-4DA3-ACF4-A2FFC969FFEC";
shapes = (
{
closed = 1;
nodes = (
(233,-11,o),
(298,38,o),
(335,147,c),
(310,156,l),
(269,65,o),
(225,37,o),
(203,37,cs),
(195,37,o),
(190,41,o),
(190,54,cs),
(190,58,o),
(191,68,o),
(195,87,cs),
(279,450,l),
(145,450,l),
(71,153,ls),
(58,100,o),
(55,86,o),
(55,70,cs),
(55,15,o),
(90,-11,o),
(142,-11,cs)
);
},
{
closed = 1;
nodes = (
(222,420,l),
(222,450,l),
(48,450,l),
(48,420,l)
);
}
);
width = 330;
}
);
unicode = 305;
},
{
glyphname = iacute;
kernLeft = i;
kernRight = i;
lastChange = "2016-08-22 14:11:03 +0000";
layers = (
{
layerId = "426C3F01-D24D-4224-A47E-56DA036E4742";
shapes = (
{
pos = (-189,-42);
ref = acutecomb;
},
{
ref = idotless;
}
);
width = 316;
},
{
background = {
shapes = (
{
closed = 1;
nodes = (
(279,450,l),
(145,450,l),
(71,153,ls),
(58,100,o),
(55,86,o),
(55,70,cs),
(55,15,o),
(90,-11,o),
(142,-11,cs),
(233,-11,o),
(298,38,o),
(335,147,c),
(310,156,l),
(269,65,o),
(225,37,o),
(203,37,cs),
(195,37,o),
(190,41,o),
(190,54,cs),
(190,58,o),
(191,68,o),
(195,87,cs)
);
},
{
closed = 1;
nodes = (
(48,420,l),
(222,420,l),
(222,450,l),
(48,450,l)
);
}
);
};
layerId = "DD3DBCA6-CF88-4DA3-ACF4-A2FFC969FFEC";
shapes = (
{
pos = (-123,0);
ref = acutecomb;
},
{
ref = idotless;
}
);
width = 330;
}
);
unicode = 237;
},
{
glyphname = igrave;
kernLeft = i;
kernRight = i;
lastChange = "2016-08-22 14:11:03 +0000";
layers = (
{
layerId = "426C3F01-D24D-4224-A47E-56DA036E4742";
shapes = (
{
pos = (-161,-26);
ref = gravecomb;
},
{
ref = idotless;
}
);
width = 316;
},
{
background = {
shapes = (
{
closed = 1;
nodes = (
(279,450,l),
(145,450,l),
(71,153,ls),
(58,100,o),
(55,86,o),
(55,70,cs),
(55,15,o),
(90,-11,o),
(142,-11,cs),
(233,-11,o),
(298,38,o),
(335,147,c),
(310,156,l),
(269,65,o),
(225,37,o),
(203,37,cs),
(195,37,o),
(190,41,o),
(190,54,cs),
(190,58,o),
(191,68,o),
(195,87,cs)
);
},
{
closed = 1;
nodes = (
(48,420,l),
(222,420,l),
(222,450,l),
(48,450,l)
);
}
);
};
layerId = "DD3DBCA6-CF88-4DA3-ACF4-A2FFC969FFEC";
shapes = (
{
pos = (-168,0);
ref = gravecomb;
},
{
ref = idotless;
}
);
width = 330;
}
);
unicode = 236;
},
{
glyphname = j;
kernLeft = j;
kernRight = j;
lastChange = "2016-08-22 13:50:23 +0000";
layers = (
{
layerId = "426C3F01-D24D-4224-A47E-56DA036E4742";
shapes = (
{
closed = 1;
nodes = (
(13,-324,o),
(102,-257,o),
(129,-134,cs),
(257,450,l),
(150,450,l),
(25,-152,ls),
(-3,-289,o),
(-36,-294,o),
(-51,-294,cs),
(-65,-294,o),
(-73,-290,o),
(-73,-278,cs),
(-73,-270,o),
(-70,-256,o),
(-70,-246,cs),
(-70,-223,o),
(-88,-203,o),
(-117,-203,cs),
(-145,-203,o),
(-166,-221,o),
(-166,-251,cs),
(-166,-297,o),
(-117,-324,o),
(-67,-324,cs)
);
},
{
closed = 1;
nodes = (
(245,425,l),
(245,450,l),
(56,450,l),
(56,425,l)
);
},
{
closed = 1;
nodes = (
(275,601,o),
(305,631,o),
(305,667,cs),
(305,703,o),
(275,733,o),
(239,733,cs),
(203,733,o),
(173,703,o),
(173,667,cs),
(173,631,o),
(203,601,o),
(239,601,cs)
);
}
);
width = 291;
},
{
layerId = "DD3DBCA6-CF88-4DA3-ACF4-A2FFC969FFEC";
shapes = (
{
closed = 1;
nodes = (
(10,-324,o),
(116,-257,o),
(173,-3,cs),
(274,450,l),
(137,450,l),
(12,-110,ls),
(-26,-281,o),
(-48,-287,o),
(-59,-287,cs),
(-71,-287,o),
(-75,-280,o),
(-75,-272,cs),
(-75,-263,o),
(-71,-252,o),
(-71,-236,cs),
(-71,-197,o),
(-93,-180,o),
(-127,-180,cs),
(-166,-180,o),
(-189,-203,o),
(-189,-237,cs),
(-189,-289,o),
(-137,-324,o),
(-75,-324,cs)
);
},
{
closed = 1;
nodes = (
(262,420,l),
(262,450,l),
(43,450,l),
(43,420,l)
);
},
{
closed = 1;
nodes = (
(280,577,o),
(315,612,o),
(315,656,cs),
(315,700,o),
(280,735,o),
(236,735,cs),
(192,735,o),
(157,700,o),
(157,656,cs),
(157,612,o),
(192,577,o),
(236,577,cs)
);
}
);
width = 287;
}
);
unicode = 106;
},
{
glyphname = jdotless;
lastChange = "2016-08-22 14:11:03 +0000";
layers = (
{
layerId = "426C3F01-D24D-4224-A47E-56DA036E4742";
shapes = (
{
closed = 1;
nodes = (
(13,-324,o),
(102,-257,o),
(129,-134,cs),
(257,450,l),
(150,450,l),
(25,-152,ls),
(-3,-289,o),
(-36,-294,o),
(-51,-294,cs),
(-65,-294,o),
(-73,-290,o),
(-73,-278,cs),
(-73,-270,o),
(-70,-256,o),
(-70,-246,cs),
(-70,-223,o),
(-88,-203,o),
(-117,-203,cs),
(-145,-203,o),
(-166,-221,o),
(-166,-251,cs),
(-166,-297,o),
(-117,-324,o),
(-67,-324,cs)
);
},
{
closed = 1;
nodes = (
(245,425,l),
(245,450,l),
(56,450,l),
(56,425,l)
);
}
);
width = 291;
},
{
layerId = "DD3DBCA6-CF88-4DA3-ACF4-A2FFC969FFEC";
shapes = (
{
closed = 1;
nodes = (
(10,-324,o),
(116,-257,o),
(173,-3,cs),
(274,450,l),
(137,450,l),
(12,-110,ls),
(-26,-281,o),
(-48,-287,o),
(-59,-287,cs),
(-71,-287,o),
(-75,-280,o),
(-75,-272,cs),
(-75,-263,o),
(-71,-252,o),
(-71,-236,cs),
(-71,-197,o),
(-93,-180,o),
(-127,-180,cs),
(-166,-180,o),
(-189,-203,o),
(-189,-237,cs),
(-189,-289,o),
(-137,-324,o),
(-75,-324,cs)
);
},
{
closed = 1;
nodes = (
(262,420,l),
(262,450,l),
(43,450,l),
(43,420,l)
);
}
);
width = 287;
}
);
unicode = 567;
},
{
glyphname = k;
kernLeft = k;
kernRight = k;
lastChange = "2016-08-22 13:41:59 +0000";
layers = (
{
anchors = (
{
name = bottom;
pos = (210,0);
},
{
name = top;
pos = (314,450);
}
);
layerId = "426C3F01-D24D-4224-A47E-56DA036E4742";
shapes = (
{
closed = 1;
nodes = (
(124,0,l),
(296,754,l),
(189,754,l),
(21,0,l)
);
},
{
closed = 1;
nodes = (
(399,-13,o),
(451,41,o),
(491,146,c),
(468,157,l),
(439,86,o),
(402,45,o),
(373,45,cs),
(363,45,o),
(357,50,o),
(357,71,cs),
(357,98,o),
(367,142,o),
(367,174,cs),
(367,218,o),
(348,254,o),
(290,284,c),
(321,318,o),
(355,430,o),
(392,430,cs),
(399,430,o),
(407,426,o),
(407,417,cs),
(407,405,o),
(391,396,o),
(391,372,cs),
(391,345,o),
(412,332,o),
(435,332,cs),
(470,332,o),
(488,353,o),
(488,384,cs),
(488,414,o),
(466,462,o),
(410,462,cs),
(324,462,o),
(314,346,o),
(250,285,c),
(224,285,o),
(201,282,o),
(168,275,c),
(161,239,l),
(169,237,o),
(172,237,o),
(179,237,cs),
(216,237,o),
(237,242,o),
(273,264,c),
(282,257,o),
(286,243,o),
(286,227,cs),
(286,181,o),
(253,113,o),
(253,65,cs),
(253,11,o),
(294,-13,o),
(336,-13,cs)
);
},
{
closed = 1;
nodes = (
(284,729,l),
(284,754,l),
(95,754,l),
(95,729,l)
);
}
);
width = 523;
},
{
anchors = (
{
name = bottom;
pos = (220,0);
},
{
name = top;
pos = (324,450);
}
);
layerId = "DD3DBCA6-CF88-4DA3-ACF4-A2FFC969FFEC";
shapes = (
{
closed = 1;
nodes = (
(146,0,l),
(334,754,l),
(197,754,l),
(13,0,l)
);
},
{
closed = 1;
nodes = (
(444,-13,o),
(499,32,o),
(545,132,c),
(518,145,l),
(488,74,o),
(456,39,o),
(433,39,cs),
(423,39,o),
(418,45,o),
(418,64,cs),
(418,90,o),
(428,128,o),
(428,162,cs),
(428,204,o),
(413,248,o),
(318,278,c),
(346,312,o),
(390,414,o),
(414,414,cs),
(419,414,o),
(422,410,o),
(422,402,cs),
(422,396,o),
(420,385,o),
(420,375,cs),
(420,341,o),
(445,325,o),
(477,325,cs),
(518,325,o),
(538,352,o),
(538,383,cs),
(538,415,o),
(516,462,o),
(454,462,cs),
(363,462,o),
(352,357,o),
(284,285,c),
(265,285,o),
(232,280,o),
(212,269,c),
(204,236,l),
(213,230,o),
(222,227,o),
(233,227,cs),
(254,227,o),
(280,237,o),
(297,254,c),
(308,247,o),
(312,238,o),
(312,223,cs),
(312,178,o),
(277,130,o),
(277,77,cs),
(277,14,o),
(327,-13,o),
(378,-13,cs)
);
},
{
closed = 1;
nodes = (
(322,724,l),
(322,754,l),
(103,754,l),
(103,724,l)
);
}
);
width = 543;
}
);
unicode = 107;
},
{
glyphname = kgreenlandic;
kernRight = k;
lastChange = "2016-08-22 11:30:29 +0000";
layers = (
{
layerId = "426C3F01-D24D-4224-A47E-56DA036E4742";
shapes = (
{
closed = 1;
nodes = (
(399,-13,o),
(451,41,o),
(491,146,c),
(468,157,l),
(439,86,o),
(402,45,o),
(373,45,cs),
(363,45,o),
(357,50,o),
(357,71,cs),
(357,98,o),
(367,142,o),
(367,174,cs),
(367,218,o),
(348,254,o),
(290,284,c),
(321,318,o),
(355,430,o),
(392,430,cs),
(399,430,o),
(407,426,o),
(407,417,cs),
(407,405,o),
(391,396,o),
(391,372,cs),
(391,345,o),
(412,332,o),
(435,332,cs),
(470,332,o),
(488,353,o),
(488,384,cs),
(488,414,o),
(466,462,o),
(410,462,cs),
(324,462,o),
(314,346,o),
(250,285,c),
(224,285,o),
(201,282,o),
(168,275,c),
(161,239,l),
(169,237,o),
(172,237,o),
(179,237,cs),
(216,237,o),
(237,242,o),
(273,264,c),
(282,257,o),
(286,243,o),
(286,227,cs),
(286,181,o),
(253,113,o),
(253,65,cs),
(253,11,o),
(294,-13,o),
(336,-13,cs)
);
},
{
closed = 1;
nodes = (
(124,0,l),
(227,450,l),
(121,450,l),
(21,0,l)
);
},
{
closed = 1;
nodes = (
(215,425,l),
(215,450,l),
(26,450,l),
(26,425,l)
);
}
);
width = 523;
},
{
background = {
shapes = (
{
closed = 1;
nodes = (
(208,236,l),
(217,230,o),
(226,227,o),
(237,227,cs),
(258,227,o),
(284,237,o),
(301,254,c),
(312,247,o),
(316,238,o),
(316,223,cs),
(316,178,o),
(281,130,o),
(281,77,cs),
(281,14,o),
(331,-13,o),
(382,-13,cs),
(448,-13,o),
(503,32,o),
(549,132,c),
(522,145,l),
(492,74,o),
(460,39,o),
(437,39,cs),
(427,39,o),
(422,45,o),
(422,64,cs),
(422,90,o),
(432,128,o),
(432,162,cs),
(432,204,o),
(417,248,o),
(322,278,c),
(350,312,o),
(394,414,o),
(418,414,cs),
(423,414,o),
(426,410,o),
(426,402,cs),
(426,396,o),
(424,385,o),
(424,375,cs),
(424,341,o),
(449,325,o),
(481,325,cs),
(522,325,o),
(542,352,o),
(542,383,cs),
(542,415,o),
(520,462,o),
(458,462,cs),
(367,462,o),
(356,357,o),
(288,285,c),
(269,285,o),
(236,280,o),
(216,269,c)
);
},
{
closed = 1;
nodes = (
(338,754,l),
(201,754,l),
(17,0,l),
(150,0,l)
);
},
{
closed = 1;
nodes = (
(107,724,l),
(326,724,l),
(326,754,l),
(107,754,l)
);
}
);
};
layerId = "DD3DBCA6-CF88-4DA3-ACF4-A2FFC969FFEC";
shapes = (
{
closed = 1;
nodes = (
(466,-13,o),
(521,32,o),
(567,132,c),
(540,145,l),
(510,74,o),
(478,39,o),
(455,39,cs),
(445,39,o),
(440,45,o),
(440,64,cs),
(440,84,o),
(440,115,o),
(440,142,cs),
(440,184,o),
(425,228,o),
(330,258,c),
(361,296,o),
(411,414,o),
(438,414,cs),
(443,414,o),
(446,410,o),
(446,402,cs),
(446,396,o),
(444,385,o),
(444,375,cs),
(444,341,o),
(469,325,o),
(501,325,cs),
(542,325,o),
(562,357,o),
(562,393,cs),
(562,421,o),
(540,462,o),
(478,462,cs),
(380,462,o),
(368,345,o),
(296,265,c),
(277,265,o),
(244,260,o),
(224,249,c),
(216,216,l),
(225,207,o),
(234,207,o),
(245,207,cs),
(266,207,o),
(292,217,o),
(309,234,c),
(320,227,o),
(324,218,o),
(324,203,cs),
(324,164,o),
(299,122,o),
(299,77,cs),
(299,14,o),
(349,-13,o),
(400,-13,cs)
);
},
{
closed = 1;
nodes = (
(168,0,l),
(280,450,l),
(143,450,l),
(35,0,l)
);
},
{
closed = 1;
nodes = (
(268,420,l),
(268,450,l),
(49,450,l),
(49,420,l)
);
}
);
width = 565;
}
);
unicode = 312;
},
{
glyphname = l;
kernLeft = l;
kernRight = l;
lastChange = "2016-08-22 13:41:59 +0000";
layers = (
{
anchors = (
{
name = bottom;
pos = (110,0);
},
{
name = center;
pos = (162,225);
},
{
name = top;
pos = (214,450);
},
{
name = topright;
pos = (356,450);
}
);
layerId = "426C3F01-D24D-4224-A47E-56DA036E4742";
shapes = (
{
closed = 1;
nodes = (
(209,-13,o),
(268,73,o),
(308,157,c),
(288,166,l),
(240,73,o),
(203,38,o),
(169,38,cs),
(155,38,o),
(147,45,o),
(147,63,cs),
(147,69,o),
(148,80,o),
(152,97,cs),
(314,754,l),
(207,754,l),
(47,87,ls),
(45,78,o),
(43,67,o),
(43,56,cs),
(43,15,o),
(71,-13,o),
(120,-13,cs)
);
},
{
closed = 1;
nodes = (
(302,729,l),
(302,754,l),
(107,754,l),
(107,729,l)
);
}
);
width = 324;
},
{
anchors = (
{
name = bottom;
pos = (104,0);
},
{
name = center;
pos = (156,225);
},
{
name = top;
pos = (208,450);
},
{
name = topright;
pos = (344,450);
}
);
layerId = "DD3DBCA6-CF88-4DA3-ACF4-A2FFC969FFEC";
shapes = (
{
closed = 1;
nodes = (
(199,-11,o),
(258,43,o),
(291,152,c),
(266,161,l),
(233,69,o),
(196,41,o),
(178,41,cs),
(171,41,o),
(166,45,o),
(166,54,cs),
(166,58,o),
(167,70,o),
(171,87,cs),
(330,754,l),
(196,754,l),
(57,132,ls),
(52,108,o),
(48,83,o),
(48,67,cs),
(48,26,o),
(74,-11,o),
(131,-11,cs)
);
},
{
closed = 1;
nodes = (
(273,724,l),
(273,754,l),
(118,754,l),
(118,724,l)
);
}
);
width = 312;
}
);
unicode = 108;
},
{
glyphname = lslash;
lastChange = "2016-08-22 10:35:49 +0000";
layers = (
{
layerId = "426C3F01-D24D-4224-A47E-56DA036E4742";
shapes = (
{
closed = 1;
nodes = (
(338,448,l),
(338,488,l),
(30,327,l),
(30,287,l)
);
},
{
ref = l;
}
);
width = 324;
},
{
layerId = "DD3DBCA6-CF88-4DA3-ACF4-A2FFC969FFEC";
shapes = (
{
closed = 1;
nodes = (
(331,439,l),
(342,489,l),
(1,328,l),
(-10,278,l)
);
},
{
ref = l;
}
);
width = 312;
}
);
unicode = 322;
},
{
glyphname = m;
lastChange = "2016-08-22 13:41:59 +0000";
layers = (
{
anchors = (
{
name = bottom;
pos = (354,0);
},
{
name = top;
pos = (458,450);
}
);
layerId = "426C3F01-D24D-4224-A47E-56DA036E4742";
shapes = (
{
closed = 1;
nodes = (
(725,-13,o),
(779,69,o),
(818,157,c),
(798,166,l),
(756,73,o),
(723,38,o),
(694,38,cs),
(680,38,o),
(672,46,o),
(672,63,cs),
(672,69,o),
(673,80,o),
(677,97,cs),
(737,336,ls),
(741,353,o),
(743,368,o),
(743,380,cs),
(743,437,o),
(701,462,o),
(651,462,cs),
(580,462,o),
(522,413,o),
(484,361,c),
(477,361,l),
(449,234,l),
(476,339,o),
(546,420,o),
(604,420,cs),
(625,420,o),
(641,410,o),
(641,385,cs),
(641,377,o),
(639,369,o),
(637,359,cs),
(572,87,ls),
(570,78,o),
(568,67,o),
(568,56,cs),
(568,15,o),
(597,-13,o),
(644,-13,cs)
);
},
{
closed = 1;
nodes = (
(129,0,l),
(240,450,l),
(133,450,l),
(26,0,l)
);
},
{
closed = 1;
nodes = (
(392,0,l),
(474,336,ls),
(492,414,o),
(464,462,o),
(388,462,cs),
(317,462,o),
(259,413,o),
(221,361,c),
(214,361,l),
(186,234,l),
(213,339,o),
(283,420,o),
(341,420,cs),
(362,420,o),
(378,410,o),
(378,385,cs),
(378,377,o),
(376,369,o),
(374,359,cs),
(288,0,l)
);
},
{
closed = 1;
nodes = (
(228,425,l),
(228,450,l),
(39,450,l),
(39,425,l)
);
}
);
width = 812;
},
{
anchors = (
{
name = bottom;
pos = (349,0);
},
{
name = top;
pos = (453,450);
}
);
layerId = "DD3DBCA6-CF88-4DA3-ACF4-A2FFC969FFEC";
shapes = (
{
closed = 1;
nodes = (
(724,-11,o),
(775,17,o),
(818,126,c),
(793,135,l),
(761,63,o),
(735,35,o),
(713,35,cs),
(702,35,o),
(697,42,o),
(697,55,cs),
(697,61,o),
(698,72,o),
(702,89,cs),
(766,338,ls),
(770,355,o),
(772,370,o),
(772,382,cs),
(772,438,o),
(722,462,o),
(672,462,cs),
(597,462,o),
(543,408,o),
(507,351,c),
(500,351,l),
(478,229,l),
(502,340,o),
(587,416,o),
(620,416,cs),
(631,416,o),
(638,408,o),
(638,394,cs),
(638,384,o),
(635,365,o),
(633,356,cs),
(569,107,ls),
(567,98,o),
(565,88,o),
(565,75,cs),
(565,19,o),
(601,-11,o),
(663,-11,cs)
);
},
{
closed = 1;
nodes = (
(168,0,l),
(275,450,l),
(138,450,l),
(35,0,l)
);
},
{
closed = 1;
nodes = (
(435,0,l),
(502,339,ls),
(519,425,o),
(472,462,o),
(410,462,cs),
(345,462,o),
(297,422,o),
(261,371,c),
(254,371,l),
(222,246,l),
(247,347,o),
(326,416,o),
(363,416,cs),
(375,416,o),
(381,408,o),
(381,394,cs),
(381,384,o),
(378,365,o),
(376,356,cs),
(299,0,l)
);
},
{
closed = 1;
nodes = (
(263,420,l),
(263,450,l),
(44,450,l),
(44,420,l)
);
}
);
width = 801;
}
);
unicode = 109;
},
{
glyphname = n;
kernLeft = n;
kernRight = n;
lastChange = "2016-08-22 13:41:59 +0000";
layers = (
{
anchors = (
{
name = bottom;
pos = (228,0);
},
{
name = top;
pos = (332,450);
}
);
layerId = "426C3F01-D24D-4224-A47E-56DA036E4742";
shapes = (
{
closed = 1;
nodes = (
(473,-13,o),
(527,69,o),
(566,157,c),
(546,166,l),
(504,73,o),
(471,38,o),
(442,38,cs),
(428,38,o),
(420,46,o),
(420,63,cs),
(420,69,o),
(421,80,o),
(425,97,cs),
(485,336,ls),
(489,353,o),
(491,368,o),
(491,381,cs),
(491,438,o),
(449,462,o),
(398,462,cs),
(324,462,o),
(262,413,o),
(222,361,c),
(215,361,l),
(187,234,l),
(217,342,o),
(292,420,o),
(352,420,cs),
(374,420,o),
(389,410,o),
(389,386,cs),
(389,377,o),
(387,369,o),
(385,359,cs),
(320,87,ls),
(318,78,o),
(316,67,o),
(316,56,cs),
(316,15,o),
(345,-13,o),
(392,-13,cs)
);
},
{
closed = 1;
nodes = (
(129,0,l),
(240,450,l),
(133,450,l),
(26,0,l)
);
},
{
closed = 1;
nodes = (
(228,425,l),
(228,450,l),
(39,450,l),
(39,425,l)
);
}
);
width = 560;
},
{
anchors = (
{
name = bottom;
pos = (244,0);
},
{
name = top;
pos = (348,450);
}
);
background = {
shapes = (
{
closed = 1;
nodes = (
(271,450,l),
(134,450,l),
(26,0,l),
(159,0,l)
);
},
{
closed = 1;
nodes = (
(40,420,l),
(259,420,l),
(259,450,l),
(40,450,l)
);
},
{
closed = 1;
nodes = (
(215,229,l),
(246,343,o),
(346,416,o),
(382,416,cs),
(394,416,o),
(401,408,o),
(401,394,cs),
(401,384,o),
(398,365,o),
(396,356,cs),
(332,107,ls),
(330,98,o),
(328,88,o),
(328,75,cs),
(328,19,o),
(364,-11,o),
(426,-11,cs),
(491,-11,o),
(554,21,o),
(600,146,c),
(575,155,l),
(539,69,o),
(501,35,o),
(476,35,cs),
(465,35,o),
(460,42,o),
(460,55,cs),
(460,61,o),
(461,72,o),
(465,89,cs),
(529,338,ls),
(533,355,o),
(535,370,o),
(535,382,cs),
(535,438,o),
(486,462,o),
(433,462,cs),
(353,462,o),
(293,408,o),
(253,351,c),
(246,351,l)
);
}
);
};
layerId = "DD3DBCA6-CF88-4DA3-ACF4-A2FFC969FFEC";
shapes = (
{
closed = 1;
nodes = (
(500,-11,o),
(563,21,o),
(609,146,c),
(584,155,l),
(548,69,o),
(510,35,o),
(485,35,cs),
(474,35,o),
(469,42,o),
(469,55,cs),
(469,61,o),
(470,72,o),
(474,89,cs),
(538,338,ls),
(542,355,o),
(544,370,o),
(544,382,cs),
(544,438,o),
(495,462,o),
(442,462,cs),
(362,462,o),
(302,408,o),
(262,351,c),
(255,351,l),
(224,229,l),
(255,343,o),
(355,416,o),
(391,416,cs),
(403,416,o),
(410,408,o),
(410,394,cs),
(410,384,o),
(407,365,o),
(405,356,cs),
(341,107,ls),
(339,98,o),
(337,88,o),
(337,75,cs),
(337,19,o),
(373,-11,o),
(435,-11,cs)
);
},
{
closed = 1;
nodes = (
(168,0,l),
(280,450,l),
(143,450,l),
(35,0,l)
);
},
{
closed = 1;
nodes = (
(268,420,l),
(268,450,l),
(49,450,l),
(49,420,l)
);
}
);
width = 592;
}
);
unicode = 110;
},
{
glyphname = eng;
kernLeft = n;
lastChange = "2016-08-22 11:45:51 +0000";
layers = (
{
layerId = "426C3F01-D24D-4224-A47E-56DA036E4742";
shapes = (
{
closed = 1;
nodes = (
(259,-324,o),
(346,-257,o),
(375,-134,cs),
(485,336,ls),
(489,354,o),
(491,368,o),
(491,380,cs),
(491,438,o),
(449,462,o),
(398,462,cs),
(324,462,o),
(265,416,o),
(225,364,c),
(214,364,l),
(187,272,l),
(243,363,o),
(295,418,o),
(352,418,cs),
(374,418,o),
(389,408,o),
(389,385,cs),
(389,377,o),
(386,369,o),
(385,359,cs),
(271,-152,ls),
(241,-288,o),
(210,-294,o),
(195,-294,cs),
(181,-294,o),
(173,-290,o),
(173,-278,cs),
(173,-270,o),
(176,-256,o),
(176,-246,cs),
(176,-223,o),
(158,-203,o),
(129,-203,cs),
(101,-203,o),
(80,-221,o),
(80,-251,cs),
(80,-297,o),
(129,-324,o),
(179,-324,cs)
);
},
{
closed = 1;
nodes = (
(129,0,l),
(240,450,l),
(133,450,l),
(26,0,l)
);
},
{
closed = 1;
nodes = (
(210,425,l),
(220,450,l),
(39,450,l),
(39,425,l)
);
}
);
width = 537;
},
{
layerId = "DD3DBCA6-CF88-4DA3-ACF4-A2FFC969FFEC";
shapes = (
{
closed = 1;
nodes = (
(298,-324,o),
(404,-257,o),
(461,-3,cs),
(538,338,ls),
(542,355,o),
(544,370,o),
(544,382,cs),
(544,438,o),
(496,462,o),
(442,462,cs),
(362,462,o),
(302,408,o),
(262,351,c),
(255,351,l),
(224,229,l),
(255,343,o),
(355,416,o),
(391,416,cs),
(403,416,o),
(410,408,o),
(410,394,cs),
(410,384,o),
(407,365,o),
(405,356,cs),
(300,-110,ls),
(261,-285,o),
(239,-287,o),
(231,-287,cs),
(217,-287,o),
(213,-280,o),
(213,-272,cs),
(213,-263,o),
(217,-252,o),
(217,-236,cs),
(217,-197,o),
(195,-180,o),
(161,-180,cs),
(122,-180,o),
(99,-203,o),
(99,-237,cs),
(99,-289,o),
(151,-324,o),
(213,-324,cs)
);
},
{
closed = 1;
nodes = (
(168,0,l),
(280,450,l),
(143,450,l),
(35,0,l)
);
},
{
closed = 1;
nodes = (
(268,420,l),
(268,450,l),
(49,450,l),
(49,420,l)
);
}
);
width = 575;
}
);
unicode = 331;
},
{
glyphname = o;
kernLeft = o;
kernRight = o;
lastChange = "2016-08-22 14:06:58 +0000";
layers = (
{
anchors = (
{
name = bottom;
pos = (210,0);
},
{
name = center;
pos = (262,225);
},
{
name = ogonek;
pos = (420,10);
},
{
name = top;
pos = (314,450);
},
{
name = topright;
pos = (459,397);
}
);
layerId = "426C3F01-D24D-4224-A47E-56DA036E4742";
shapes = (
{
closed = 1;
nodes = (
(359,-13,o),
(496,138,o),
(496,280,cs),
(496,384,o),
(422,462,o),
(313,462,cs),
(164,462,o),
(28,316,o),
(28,174,cs),
(28,70,o),
(101,-13,o),
(211,-13,cs)
);
},
{
closed = 1;
nodes = (
(160,12,o),
(141,52,o),
(141,127,cs),
(141,261,o),
(201,437,o),
(308,437,cs),
(365,437,o),
(382,388,o),
(382,317,cs),
(382,183,o),
(322,12,o),
(213,12,cs)
);
}
);
width = 524;
},
{
anchors = (
{
name = bottom;
pos = (226,0);
},
{
name = center;
pos = (278,225);
},
{
name = ogonek;
pos = (448,10);
},
{
name = top;
pos = (330,450);
},
{
name = topright;
pos = (482,396);
}
);
layerId = "DD3DBCA6-CF88-4DA3-ACF4-A2FFC969FFEC";
shapes = (
{
closed = 1;
nodes = (
(386,-13,o),
(533,137,o),
(533,280,cs),
(533,383,o),
(451,462,o),
(333,462,cs),
(169,462,o),
(23,312,o),
(23,169,cs),
(23,66,o),
(104,-13,o),
(222,-13,cs)
);
},
{
closed = 1;
nodes = (
(183,22,o),
(172,53,o),
(172,112,cs),
(172,249,o),
(228,427,o),
(330,427,cs),
(372,427,o),
(383,396,o),
(383,337,cs),
(383,200,o),
(327,22,o),
(225,22,cs)
);
}
);
width = 556;
}
);
unicode = 111;
},
{
glyphname = oslash;
kernLeft = o;
kernRight = o;
lastChange = "2016-08-22 14:18:21 +0000";
layers = (
{
layerId = "426C3F01-D24D-4224-A47E-56DA036E4742";
shapes = (
{
closed = 1;
nodes = (
(34,-53,l),
(102,20,l),
(132,-1,o),
(169,-13,o),
(212,-13,cs),
(360,-13,o),
(497,138,o),
(497,280,cs),
(497,326,o),
(482,368,o),
(456,399,c),
(534,483,l),
(496,483,l),
(436,419,l),
(405,446,o),
(363,462,o),
(314,462,cs),
(165,462,o),
(28,316,o),
(28,174,cs),
(28,120,o),
(47,72,o),
(81,38,c),
(-4,-53,l)
);
},
{
closed = 1;
nodes = (
(177,12,o),
(156,31,o),
(147,69,c),
(383,321,l),
(383,156,o),
(311,12,o),
(214,12,cs)
);
},
{
closed = 1;
nodes = (
(142,294,o),
(214,437,o),
(309,437,cs),
(354,437,o),
(374,406,o),
(380,359,c),
(142,104,l)
);
}
);
width = 524;
},
{
layerId = "DD3DBCA6-CF88-4DA3-ACF4-A2FFC969FFEC";
shapes = (
{
closed = 1;
nodes = (
(23,-53,l),
(99,22,l),
(132,0,o),
(174,-13,o),
(222,-13,cs),
(386,-13,o),
(533,137,o),
(533,280,cs),
(533,328,o),
(515,372,o),
(483,404,c),
(563,483,l),
(505,483,l),
(451,429,l),
(419,450,o),
(379,462,o),
(333,462,cs),
(169,462,o),
(23,312,o),
(23,169,cs),
(23,122,o),
(39,80,o),
(68,49,c),
(-34,-53,l)
);
},
{
closed = 1;
nodes = (
(187,22,o),
(174,47,o),
(172,95,c),
(382,303,l),
(374,172,o),
(319,22,o),
(225,22,cs)
);
},
{
closed = 1;
nodes = (
(183,282,o),
(238,427,o),
(330,427,cs),
(366,427,o),
(379,404,o),
(382,361,c),
(173,153,l)
);
}
);
width = 556;
}
);
unicode = 248;
},
{
glyphname = oe;
kernLeft = o;
kernRight = e;
lastChange = "2016-08-22 11:48:08 +0000";
layers = (
{
layerId = "426C3F01-D24D-4224-A47E-56DA036E4742";
shapes = (
{
closed = 1;
nodes = (
(360,-13,o),
(497,132,o),
(497,276,cs),
(497,382,o),
(423,462,o),
(316,462,cs),
(166,462,o),
(28,307,o),
(28,168,cs),
(28,66,o),
(102,-13,o),
(211,-13,cs)
);
},
{
closed = 1;
nodes = (
(160,12,o),
(142,51,o),
(142,122,cs),
(142,254,o),
(204,437,o),
(311,437,cs),
(366,437,o),
(383,388,o),
(383,314,cs),
(383,174,o),
(322,12,o),
(213,12,cs)
);
},
{
closed = 1;
nodes = (
(661,-13,o),
(727,34,o),
(775,119,c),
(755,133,l),
(703,47,o),
(641,17,o),
(577,17,cs),
(512,17,o),
(485,48,o),
(485,136,cs),
(485,259,o),
(537,432,o),
(637,432,cs),
(673,432,o),
(698,409,o),
(698,352,cs),
(698,277,o),
(655,219,o),
(536,219,cs),
(509,219,o),
(486,222,o),
(463,229,c),
(458,204,l),
(471,201,o),
(531,193,o),
(577,193,cs),
(697,193,o),
(786,247,o),
(786,338,cs),
(786,412,o),
(727,462,o),
(644,462,cs),
(508,462,o),
(371,327,o),
(371,184,cs),
(371,83,o),
(439,-13,o),
(570,-13,cs)
);
}
);
width = 798;
},
{
layerId = "DD3DBCA6-CF88-4DA3-ACF4-A2FFC969FFEC";
shapes = (
{
closed = 1;
nodes = (
(385,-13,o),
(532,133,o),
(532,274,cs),
(532,379,o),
(451,462,o),
(332,462,cs),
(173,462,o),
(23,312,o),
(23,170,cs),
(23,65,o),
(105,-13,o),
(223,-13,cs)
);
},
{
closed = 1;
nodes = (
(184,22,o),
(173,53,o),
(173,112,cs),
(173,249,o),
(231,427,o),
(330,427,cs),
(367,427,o),
(382,403,o),
(382,332,cs),
(382,195,o),
(326,22,o),
(226,22,cs)
);
},
{
closed = 1;
nodes = (
(660,-11,o),
(746,42,o),
(799,129,c),
(774,148,l),
(712,57,o),
(640,29,o),
(575,29,cs),
(519,29,o),
(495,50,o),
(504,105,cs),
(545,384,o),
(602,432,o),
(645,432,cs),
(682,432,o),
(702,398,o),
(702,352,cs),
(702,285,o),
(659,232,o),
(565,232,cs),
(513,232,o),
(490,232,o),
(467,242,c),
(462,207,l),
(473,204,o),
(546,196,o),
(596,196,cs),
(740,196,o),
(815,261,o),
(815,337,cs),
(815,409,o),
(746,462,o),
(656,462,cs),
(509,462,o),
(367,319,o),
(367,177,cs),
(367,79,o),
(435,-11,o),
(562,-11,cs)
);
}
);
width = 836;
}
);
unicode = 339;
},
{
glyphname = p;
lastChange = "2016-08-22 13:41:59 +0000";
layers = (
{
anchors = (
{
name = bottom;
pos = (236,0);
},
{
name = top;
pos = (340,450);
}
);
layerId = "426C3F01-D24D-4224-A47E-56DA036E4742";
shapes = (
{
closed = 1;
nodes = (
(71,-314,l),
(243,450,l),
(136,450,l),
(-32,-314,l)
);
},
{
closed = 1;
nodes = (
(171,-314,l),
(171,-289,l),
(-112,-289,l),
(-112,-314,l)
);
},
{
closed = 1;
nodes = (
(388,-13,o),
(527,127,o),
(527,282,cs),
(527,395,o),
(452,462,o),
(368,462,cs),
(309,462,o),
(261,429,o),
(232,386,c),
(225,386,l),
(208,298,l),
(250,394,o),
(305,430,o),
(352,430,cs),
(390,430,o),
(413,407,o),
(413,341,cs),
(413,241,o),
(360,16,o),
(249,16,cs),
(204,16,o),
(170,54,o),
(170,106,cs),
(170,116,o),
(170,125,o),
(172,138,c),
(152,50,l),
(159,50,l),
(177,11,o),
(210,-13,o),
(262,-13,cs)
);
},
{
closed = 1;
nodes = (
(231,425,l),
(231,450,l),
(42,450,l),
(42,425,l)
);
}
);
width = 575;
},
{
anchors = (
{
name = bottom;
pos = (247,0);
},
{
name = top;
pos = (351,450);
}
);
layerId = "DD3DBCA6-CF88-4DA3-ACF4-A2FFC969FFEC";
shapes = (
{
closed = 1;
nodes = (
(91,-282,l),
(269,450,l),
(132,450,l),
(-42,-282,l)
);
},
{
closed = 1;
nodes = (
(189,-309,l),
(189,-279,l),
(-115,-279,l),
(-115,-309,l)
);
},
{
closed = 1;
nodes = (
(441,-11,o),
(564,130,o),
(564,277,cs),
(564,394,o),
(487,462,o),
(400,462,cs),
(332,462,o),
(279,420,o),
(254,383,c),
(247,383,l),
(215,245,l),
(249,375,o),
(333,421,o),
(380,421,cs),
(409,421,o),
(422,402,o),
(422,349,cs),
(422,253,o),
(380,28,o),
(274,28,cs),
(226,28,o),
(194,74,o),
(194,128,cs),
(194,137,o),
(195,150,o),
(197,163,c),
(170,62,l),
(177,62,l),
(197,17,o),
(232,-11,o),
(296,-11,cs)
);
},
{
closed = 1;
nodes = (
(257,420,l),
(257,450,l),
(38,450,l),
(38,420,l)
);
}
);
width = 598;
}
);
unicode = 112;
},
{
glyphname = thorn;
lastChange = "2016-08-22 10:35:49 +0000";
layers = (
{
layerId = "426C3F01-D24D-4224-A47E-56DA036E4742";
shapes = (
{
closed = 1;
nodes = (
(373,-13,o),
(507,124,o),
(507,278,cs),
(507,394,o),
(436,462,o),
(354,462,cs),
(307,462,o),
(266,441,o),
(241,414,c),
(234,414,l),
(213,326,l),
(249,397,o),
(291,430,o),
(341,430,cs),
(390,430,o),
(400,394,o),
(400,333,cs),
(400,169,o),
(316,16,o),
(236,16,cs),
(194,16,o),
(167,57,o),
(167,93,cs),
(167,105,o),
(170,124,o),
(173,138,cs),
(321,754,l),
(214,754,l),
(140,440,l),
(77,163,o),
(75,147,o),
(75,131,cs),
(75,49,o),
(129,-13,o),
(225,-13,cs)
);
},
{
closed = 1;
nodes = (
(171,-314,l),
(171,-289,l),
(-112,-289,l),
(-112,-314,l)
);
},
{
closed = 1;
nodes = (
(71,-314,l),
(243,440,l),
(140,440,l),
(-32,-314,l)
);
},
{
closed = 1;
nodes = (
(309,729,l),
(309,754,l),
(114,754,l),
(114,729,l)
);
}
);
width = 575;
},
{
layerId = "DD3DBCA6-CF88-4DA3-ACF4-A2FFC969FFEC";
shapes = (
{
closed = 1;
nodes = (
(396,-13,o),
(536,129,o),
(536,287,cs),
(536,408,o),
(449,462,o),
(377,462,cs),
(324,462,o),
(278,431,o),
(253,390,c),
(246,390,l),
(222,292,l),
(257,380,o),
(311,425,o),
(355,425,cs),
(383,425,o),
(391,407,o),
(391,352,cs),
(391,197,o),
(326,26,o),
(240,26,cs),
(210,26,o),
(187,46,o),
(187,93,cs),
(187,110,o),
(190,134,o),
(193,148,cs),
(332,754,l),
(205,754,l),
(74,204,ls),
(67,173,o),
(66,146,o),
(66,135,cs),
(66,48,o),
(129,-13,o),
(233,-13,cs)
);
},
{
closed = 1;
nodes = (
(190,-309,l),
(190,-279,l),
(-114,-279,l),
(-114,-309,l)
);
},
{
closed = 1;
nodes = (
(92,-282,l),
(193,148,l),
(74,203,l),
(-41,-282,l)
);
},
{
closed = 1;
nodes = (
(320,724,l),
(320,754,l),
(105,754,l),
(105,724,l)
);
}
);
width = 569;
}
);
unicode = 254;
},
{
glyphname = q;
lastChange = "2016-08-22 13:41:59 +0000";
layers = (
{
anchors = (
{
name = bottom;
pos = (218,0);
},
{
name = top;
pos = (322,450);
}
);
layerId = "426C3F01-D24D-4224-A47E-56DA036E4742";
shapes = (
{
closed = 1;
nodes = (
(354,-314,l),
(536,450,l),
(429,450,l),
(251,-314,l)
);
},
{
closed = 1;
nodes = (
(438,-314,l),
(438,-289,l),
(171,-289,l),
(171,-314,l)
);
},
{
closed = 1;
nodes = (
(273,-13,o),
(319,23,o),
(345,70,c),
(352,70,l),
(364,170,l),
(319,40,o),
(265,19,o),
(229,19,cs),
(185,19,o),
(157,50,o),
(157,118,cs),
(157,216,o),
(215,433,o),
(315,433,cs),
(359,433,o),
(396,391,o),
(396,335,cs),
(396,325,o),
(396,313,o),
(394,300,c),
(416,391,l),
(409,391,l),
(391,433,o),
(361,462,o),
(305,462,cs),
(184,462,o),
(43,327,o),
(43,172,cs),
(43,57,o),
(120,-13,o),
(209,-13,cs)
);
}
);
width = 540;
},
{
anchors = (
{
name = bottom;
pos = (232,0);
},
{
name = top;
pos = (336,450);
}
);
layerId = "DD3DBCA6-CF88-4DA3-ACF4-A2FFC969FFEC";
shapes = (
{
closed = 1;
nodes = (
(395,-282,l),
(573,450,l),
(436,450,l),
(262,-282,l)
);
},
{
closed = 1;
nodes = (
(479,-309,l),
(479,-279,l),
(176,-279,l),
(176,-309,l)
);
},
{
closed = 1;
nodes = (
(267,-11,o),
(314,32,o),
(340,70,c),
(347,70,l),
(379,208,l),
(345,76,o),
(266,30,o),
(219,30,cs),
(189,30,o),
(177,48,o),
(177,108,cs),
(177,257,o),
(252,423,o),
(331,423,cs),
(369,423,o),
(405,385,o),
(405,336,cs),
(405,324,o),
(403,315,o),
(402,300,c),
(425,391,l),
(418,391,l),
(395,439,o),
(365,462,o),
(312,462,cs),
(181,462,o),
(35,320,o),
(35,166,cs),
(35,54,o),
(113,-11,o),
(198,-11,cs)
);
}
);
width = 568;
}
);
unicode = 113;
},
{
glyphname = r;
kernLeft = r;
kernRight = r;
lastChange = "2016-08-22 13:41:59 +0000";
layers = (
{
anchors = (
{
name = bottom;
pos = (161,0);
},
{
name = top;
pos = (265,450);
}
);
layerId = "426C3F01-D24D-4224-A47E-56DA036E4742";
shapes = (
{
closed = 1;
nodes = (
(155,0,l),
(266,450,l),
(159,450,l),
(52,0,l)
);
},
{
closed = 1;
nodes = (
(254,425,l),
(254,450,l),
(65,450,l),
(65,425,l)
);
},
{
closed = 1;
nodes = (
(225,301,o),
(295,395,o),
(326,395,cs),
(346,395,o),
(342,353,o),
(388,353,cs),
(425,353,o),
(441,380,o),
(441,407,cs),
(441,438,o),
(419,462,o),
(384,462,cs),
(335,462,o),
(284,415,o),
(248,358,c),
(241,358,l),
(203,195,l)
);
}
);
width = 425;
},
{
anchors = (
{
name = bottom;
pos = (167,0);
},
{
name = top;
pos = (271,450);
}
);
layerId = "DD3DBCA6-CF88-4DA3-ACF4-A2FFC969FFEC";
shapes = (
{
closed = 1;
nodes = (
(175,0,l),
(287,450,l),
(150,450,l),
(42,0,l)
);
},
{
closed = 1;
nodes = (
(275,420,l),
(275,450,l),
(56,450,l),
(56,420,l)
);
},
{
closed = 1;
nodes = (
(234,244,o),
(289,367,o),
(326,367,cs),
(348,367,o),
(364,326,o),
(407,326,cs),
(447,326,o),
(471,362,o),
(471,392,cs),
(471,420,o),
(450,462,o),
(399,462,cs),
(355,462,o),
(321,432,o),
(272,367,c),
(264,367,l),
(217,174,l)
);
}
);
width = 437;
}
);
unicode = 114;
},
{
glyphname = s;
kernLeft = s;
kernRight = s;
lastChange = "2016-08-22 13:50:53 +0000";
layers = (
{
anchors = (
{
name = bottom;
pos = (136,0);
},
{
name = top;
pos = (240,450);
}
);
layerId = "426C3F01-D24D-4224-A47E-56DA036E4742";
shapes = (
{
closed = 1;
nodes = (
(241,-13,o),
(328,52,o),
(328,144,cs),
(328,281,o),
(143,277,o),
(143,367,cs),
(143,407,o),
(180,427,o),
(230,427,cs),
(266,427,o),
(289,417,o),
(289,398,cs),
(289,382,o),
(273,374,o),
(273,354,cs),
(273,335,o),
(286,324,o),
(306,324,cs),
(333,324,o),
(352,344,o),
(352,375,cs),
(352,420,o),
(311,454,o),
(235,454,cs),
(130,454,o),
(70,390,o),
(70,317,cs),
(70,186,o),
(257,190,o),
(257,95,cs),
(257,52,o),
(218,17,o),
(137,17,cs),
(86,17,o),
(64,31,o),
(64,48,cs),
(64,64,o),
(82,78,o),
(82,102,cs),
(82,122,o),
(69,135,o),
(45,135,cs),
(16,135,o),
(-4,116,o),
(-4,83,cs),
(-4,32,o),
(46,-13,o),
(135,-13,cs)
);
}
);
width = 375;
},
{
anchors = (
{
name = bottom;
pos = (154,0);
},
{
name = top;
pos = (258,450);
}
);
layerId = "DD3DBCA6-CF88-4DA3-ACF4-A2FFC969FFEC";
shapes = (
{
closed = 1;
nodes = (
(272,-11,o),
(356,51,o),
(356,146,cs),
(356,292,o),
(159,321,o),
(159,388,cs),
(159,418,o),
(197,432,o),
(231,432,cs),
(253,432,o),
(276,426,o),
(276,408,cs),
(276,398,o),
(270,385,o),
(270,371,cs),
(270,346,o),
(290,322,o),
(326,322,cs),
(362,322,o),
(380,346,o),
(380,374,cs),
(380,425,o),
(317,462,o),
(242,462,cs),
(141,462,o),
(68,396,o),
(68,315,cs),
(68,182,o),
(262,150,o),
(262,75,cs),
(262,48,o),
(236,23,o),
(172,23,cs),
(125,23,o),
(110,36,o),
(110,50,cs),
(110,64,o),
(125,73,o),
(125,96,cs),
(125,123,o),
(105,151,o),
(64,151,cs),
(30,151,o),
(0,131,o),
(0,90,cs),
(0,32,o),
(61,-11,o),
(157,-11,cs)
);
}
);
width = 412;
}
);
unicode = 115;
},
{
glyphname = germandbls;
lastChange = "2016-08-22 10:35:49 +0000";
layers = (
{
layerId = "426C3F01-D24D-4224-A47E-56DA036E4742";
shapes = (
{
closed = 1;
nodes = (
(-43,-324,o),
(66,-304,o),
(130,-1,cs),
(261,615,ls),
(278,694,o),
(314,736,o),
(373,736,cs),
(416,736,o),
(436,714,o),
(436,663,cs),
(436,600,o),
(405,448,o),
(310,448,cs),
(272,448,l),
(267,422,l),
(304,422,ls),
(364,422,o),
(386,393,o),
(386,319,cs),
(386,202,o),
(332,19,o),
(267,19,cs),
(256,19,o),
(246,24,o),
(246,32,cs),
(246,46,o),
(275,54,o),
(275,84,cs),
(275,107,o),
(257,120,o),
(232,120,cs),
(198,120,o),
(180,95,o),
(180,63,cs),
(180,19,o),
(213,-6,o),
(268,-6,cs),
(409,-6,o),
(506,157,o),
(506,274,cs),
(506,367,o),
(444,428,o),
(366,435,c),
(366,439,l),
(462,464,o),
(541,530,o),
(541,619,cs),
(541,697,o),
(480,763,o),
(378,763,cs),
(268,763,o),
(166,687,o),
(137,550,cs),
(-10,-140,ls),
(-36,-260,o),
(-66,-294,o),
(-108,-294,cs),
(-128,-294,o),
(-132,-287,o),
(-132,-276,cs),
(-132,-267,o),
(-129,-256,o),
(-129,-247,cs),
(-129,-223,o),
(-148,-203,o),
(-176,-203,cs),
(-204,-203,o),
(-225,-223,o),
(-225,-252,cs),
(-225,-288,o),
(-193,-324,o),
(-107,-324,cs)
);
}
);
width = 557;
},
{
layerId = "DD3DBCA6-CF88-4DA3-ACF4-A2FFC969FFEC";
shapes = (
{
closed = 1;
nodes = (
(2,-324,o),
(126,-176,o),
(200,175,cs),
(293,615,ls),
(309,693,o),
(347,731,o),
(403,731,cs),
(441,731,o),
(467,713,o),
(467,656,cs),
(467,594,o),
(437,450,o),
(343,450,cs),
(305,450,l),
(298,418,l),
(335,418,ls),
(388,418,o),
(417,383,o),
(417,309,cs),
(417,210,o),
(366,24,o),
(295,24,cs),
(285,24,o),
(280,28,o),
(280,38,cs),
(280,63,o),
(315,69,o),
(315,101,cs),
(315,125,o),
(296,135,o),
(274,135,cs),
(235,135,o),
(213,104,o),
(213,68,cs),
(213,28,o),
(239,-6,o),
(313,-6,cs),
(468,-6,o),
(565,143,o),
(565,263,cs),
(565,354,o),
(508,428,o),
(424,435,c),
(424,439,l),
(522,465,o),
(598,532,o),
(598,622,cs),
(598,712,o),
(521,763,o),
(406,763,cs),
(266,763,o),
(150,687,o),
(121,550,cs),
(11,33,ls),
(-53,-268,o),
(-69,-289,o),
(-102,-289,cs),
(-117,-289,o),
(-125,-285,o),
(-125,-272,cs),
(-125,-256,o),
(-112,-245,o),
(-112,-224,cs),
(-112,-198,o),
(-132,-172,o),
(-172,-172,cs),
(-213,-172,o),
(-234,-199,o),
(-234,-236,cs),
(-234,-279,o),
(-205,-324,o),
(-131,-324,cs)
);
}
);
width = 589;
}
);
unicode = 223;
},
{
glyphname = t;
kernLeft = t;
kernRight = t;
lastChange = "2016-08-22 13:41:59 +0000";
layers = (
{
anchors = (
{
name = bottom;
pos = (112,0);
},
{
name = center;
pos = (164,225);
},
{
name = top;
pos = (216,450);
},
{
name = topright;
pos = (360,450);
}
);
layerId = "426C3F01-D24D-4224-A47E-56DA036E4742";
shapes = (
{
closed = 1;
nodes = (
(212,-13,o),
(270,73,o),
(309,157,c),
(289,166,l),
(243,73,o),
(207,38,o),
(175,38,cs),
(161,38,o),
(153,45,o),
(153,63,cs),
(153,69,o),
(154,80,o),
(158,97,cs),
(275,563,l),
(168,563,l),
(53,87,ls),
(51,78,o),
(49,67,o),
(49,56,cs),
(49,15,o),
(77,-13,o),
(126,-13,cs)
);
},
{
closed = 1;
nodes = (
(336,425,l),
(336,450,l),
(69,450,l),
(69,425,l)
);
}
);
width = 328;
},
{
anchors = (
{
name = bottom;
pos = (122,0);
},
{
name = center;
pos = (174,225);
},
{
name = top;
pos = (226,450);
},
{
name = topright;
pos = (380,450);
}
);
layerId = "DD3DBCA6-CF88-4DA3-ACF4-A2FFC969FFEC";
shapes = (
{
closed = 1;
nodes = (
(216,-11,o),
(293,40,o),
(332,142,c),
(307,151,l),
(266,64,o),
(221,36,o),
(196,36,cs),
(183,36,o),
(176,43,o),
(176,55,cs),
(176,59,o),
(177,70,o),
(181,87,cs),
(293,574,l),
(159,574,l),
(59,132,ls),
(55,114,o),
(50,84,o),
(50,66,cs),
(50,26,o),
(75,-11,o),
(140,-11,cs)
);
},
{
closed = 1;
nodes = (
(360,420,l),
(360,450,l),
(64,450,l),
(64,420,l)
);
}
);
width = 348;
}
);
unicode = 116;
},
{
glyphname = tbar;
lastChange = "2016-08-22 10:35:49 +0000";
layers = (
{
layerId = "426C3F01-D24D-4224-A47E-56DA036E4742";
shapes = (
{
closed = 1;
nodes = (
(312,277,l),
(312,312,l),
(19,312,l),
(19,277,l)
);
},
{
ref = t;
}
);
width = 328;
},
{
layerId = "DD3DBCA6-CF88-4DA3-ACF4-A2FFC969FFEC";
shapes = (
{
closed = 1;
nodes = (
(332,277,l),
(332,312,l),
(39,312,l),
(39,277,l)
);
},
{
ref = t;
}
);
width = 348;
}
);
unicode = 359;
},
{
glyphname = u;
kernLeft = u;
kernRight = u;
lastChange = "2016-08-22 14:07:11 +0000";
layers = (
{
anchors = (
{
name = bottom;
pos = (234,0);
},
{
name = ogonek;
pos = (462,10);
},
{
name = top;
pos = (338,450);
},
{
name = topright;
pos = (550,397);
}
);
layerId = "426C3F01-D24D-4224-A47E-56DA036E4742";
shapes = (
{
closed = 1;
nodes = (
(226,-12,o),
(285,41,o),
(327,96,c),
(334,96,l),
(356,216,l),
(327,113,o),
(257,32,o),
(195,32,cs),
(174,32,o),
(158,42,o),
(158,65,cs),
(158,73,o),
(160,81,o),
(162,91,cs),
(248,450,l),
(144,450,l),
(62,114,ls),
(58,97,o),
(56,82,o),
(56,70,cs),
(56,12,o),
(99,-12,o),
(150,-12,cs)
);
},
{
closed = 1;
nodes = (
(224,425,l),
(224,450,l),
(65,450,l),
(65,425,l)
);
},
{
closed = 1;
nodes = (
(477,-12,o),
(523,45,o),
(564,142,c),
(544,151,l),
(507,73,o),
(472,30,o),
(444,30,cs),
(430,30,o),
(424,41,o),
(424,60,cs),
(424,77,o),
(429,106,o),
(439,147,cs),
(514,450,l),
(412,450,l),
(341,154,ls),
(334,125,o),
(331,101,o),
(331,82,cs),
(331,9,o),
(373,-12,o),
(412,-12,cs)
);
}
);
width = 571;
},
{
anchors = (
{
name = bottom;
pos = (247,0);
},
{
name = ogonek;
pos = (486,10);
},
{
name = top;
pos = (351,450);
},
{
name = topright;
pos = (590,397);
}
);
layerId = "DD3DBCA6-CF88-4DA3-ACF4-A2FFC969FFEC";
shapes = (
{
closed = 1;
nodes = (
(232,-11,o),
(292,43,o),
(332,98,c),
(339,98,l),
(370,220,l),
(339,108,o),
(239,35,o),
(203,35,cs),
(191,35,o),
(184,43,o),
(184,57,cs),
(184,67,o),
(187,86,o),
(189,95,cs),
(280,450,l),
(143,450,l),
(56,113,ls),
(52,96,o),
(50,81,o),
(50,69,cs),
(50,13,o),
(99,-11,o),
(152,-11,cs)
);
},
{
closed = 1;
nodes = (
(215,420,l),
(215,450,l),
(41,450,l),
(41,420,l)
);
},
{
closed = 1;
nodes = (
(513,-11,o),
(576,69,o),
(602,152,c),
(577,161,l),
(540,69,o),
(499,41,o),
(479,41,cs),
(472,41,o),
(467,45,o),
(467,54,cs),
(467,58,o),
(468,70,o),
(472,87,cs),
(559,450,l),
(425,450,l),
(351,153,ls),
(338,100,o),
(335,86,o),
(335,70,cs),
(335,15,o),
(370,-11,o),
(422,-11,cs)
);
}
);
width = 598;
}
);
unicode = 117;
},
{
glyphname = v;
lastChange = "2016-08-22 13:51:38 +0000";
layers = (
{
anchors = (
{
name = bottom;
pos = (198,0);
},
{
name = top;
pos = (302,450);
}
);
layerId = "426C3F01-D24D-4224-A47E-56DA036E4742";
shapes = (
{
closed = 1;
nodes = (
(383,-13,o),
(481,242,o),
(481,375,cs),
(481,433,o),
(462,462,o),
(422,462,cs),
(388,462,o),
(371,440,o),
(371,412,cs),
(371,356,o),
(442,382,o),
(442,318,cs),
(442,240,o),
(344,29,o),
(242,29,cs),
(214,29,o),
(191,46,o),
(191,80,cs),
(191,87,o),
(192,95,o),
(195,108,cs),
(253,336,ls),
(264,378,o),
(265,389,o),
(265,397,cs),
(265,440,o),
(241,462,o),
(197,462,cs),
(117,462,o),
(65,389,o),
(25,308,c),
(45,299,l),
(89,381,o),
(119,411,o),
(145,411,cs),
(157,411,o),
(161,404,o),
(161,392,cs),
(161,386,o),
(160,375,o),
(156,358,cs),
(95,131,ls),
(91,115,o),
(89,100,o),
(89,87,cs),
(89,19,o),
(140,-13,o),
(203,-13,cs)
);
}
);
width = 500;
},
{
anchors = (
{
name = bottom;
pos = (204,0);
},
{
name = top;
pos = (308,450);
}
);
layerId = "DD3DBCA6-CF88-4DA3-ACF4-A2FFC969FFEC";
shapes = (
{
closed = 1;
nodes = (
(384,-12,o),
(482,226,o),
(482,365,cs),
(482,439,o),
(453,467,o),
(408,467,cs),
(366,467,o),
(343,443,o),
(343,404,cs),
(343,324,o),
(438,367,o),
(438,311,cs),
(438,256,o),
(354,40,o),
(256,40,cs),
(229,40,o),
(217,56,o),
(217,85,cs),
(217,94,o),
(218,101,o),
(221,114,cs),
(275,338,ls),
(277,352,o),
(280,362,o),
(280,376,cs),
(280,426,o),
(253,462,o),
(192,462,cs),
(118,462,o),
(71,409,o),
(28,308,c),
(51,297,l),
(91,381,o),
(118,411,o),
(141,411,cs),
(153,411,o),
(157,403,o),
(157,392,cs),
(157,386,o),
(156,375,o),
(152,358,cs),
(94,143,ls),
(90,127,o),
(88,113,o),
(88,98,cs),
(88,23,o),
(138,-12,o),
(206,-12,cs)
);
}
);
width = 512;
}
);
unicode = 118;
},
{
glyphname = w;
kernLeft = w;
kernRight = w;
lastChange = "2016-08-22 13:41:59 +0000";
layers = (
{
anchors = (
{
name = bottom;
pos = (332,0);
},
{
name = top;
pos = (436,450);
}
);
layerId = "426C3F01-D24D-4224-A47E-56DA036E4742";
shapes = (
{
closed = 1;
nodes = (
(277,-13,o),
(358,78,o),
(394,188,c),
(407,188,l),
(447,450,l),
(417,332,o),
(327,29,o),
(215,29,cs),
(195,29,o),
(186,38,o),
(186,61,cs),
(186,69,o),
(187,78,o),
(190,89,cs),
(253,336,ls),
(264,378,o),
(265,389,o),
(265,397,cs),
(265,440,o),
(241,462,o),
(197,462,cs),
(117,462,o),
(65,389,o),
(25,308,c),
(45,299,l),
(89,381,o),
(119,411,o),
(144,411,cs),
(156,411,o),
(161,404,o),
(161,392,cs),
(161,386,o),
(160,375,o),
(156,358,cs),
(90,112,ls),
(87,99,o),
(85,88,o),
(85,76,cs),
(85,23,o),
(121,-13,o),
(181,-13,cs)
);
},
{
closed = 1;
nodes = (
(659,-13,o),
(748,242,o),
(748,374,cs),
(748,433,o),
(729,462,o),
(689,462,cs),
(655,462,o),
(638,440,o),
(638,412,cs),
(638,355,o),
(709,384,o),
(709,315,cs),
(709,239,o),
(628,29,o),
(535,29,cs),
(505,29,o),
(489,51,o),
(489,107,cs),
(489,167,o),
(506,272,o),
(551,450,c),
(448,450,l),
(392,150,ls),
(374,52,o),
(439,-13,o),
(505,-13,cs)
);
}
);
width = 767;
},
{
anchors = (
{
name = bottom;
pos = (336,0);
},
{
name = top;
pos = (440,450);
}
);
layerId = "DD3DBCA6-CF88-4DA3-ACF4-A2FFC969FFEC";
shapes = (
{
closed = 1;
nodes = (
(315,-12,o),
(379,140,o),
(406,210,c),
(411,210,l),
(447,450,l),
(383,177,o),
(292,40,o),
(245,40,cs),
(236,40,o),
(227,45,o),
(227,66,cs),
(227,73,o),
(228,81,o),
(231,94,cs),
(281,338,ls),
(284,355,o),
(286,366,o),
(286,379,cs),
(286,425,o),
(259,462,o),
(198,462,cs),
(124,462,o),
(77,409,o),
(34,308,c),
(57,297,l),
(97,381,o),
(124,411,o),
(147,411,cs),
(159,411,o),
(163,403,o),
(163,392,cs),
(163,386,o),
(162,374,o),
(158,358,cs),
(102,132,ls),
(98,116,o),
(96,101,o),
(96,88,cs),
(96,23,o),
(144,-12,o),
(199,-12,cs)
);
},
{
closed = 1;
nodes = (
(666,-12,o),
(760,239,o),
(760,366,cs),
(760,437,o),
(731,462,o),
(688,462,cs),
(646,462,o),
(623,438,o),
(623,399,cs),
(623,319,o),
(718,363,o),
(718,306,cs),
(718,252,o),
(637,40,o),
(560,40,cs),
(537,40,o),
(523,59,o),
(523,99,cs),
(523,158,o),
(539,226,o),
(585,450,c),
(447,450,l),
(403,163,ls),
(389,70,o),
(429,-12,o),
(516,-12,cs)
);
}
);
width = 776;
}
);
unicode = 119;
},
{
glyphname = x;
lastChange = "2016-08-22 13:51:58 +0000";
layers = (
{
anchors = (
{
name = bottom;
pos = (223,0);
},
{
name = top;
pos = (327,450);
}
);
layerId = "426C3F01-D24D-4224-A47E-56DA036E4742";
shapes = (
{
closed = 1;
nodes = (
(428,-13,o),
(472,53,o),
(517,147,c),
(497,156,l),
(454,68,o),
(426,38,o),
(401,38,cs),
(382,38,o),
(365,54,o),
(360,82,cs),
(310,364,ls),
(297,435,o),
(272,462,o),
(228,462,cs),
(154,462,o),
(107,385,o),
(68,302,c),
(88,293,l),
(132,383,o),
(156,411,o),
(178,411,cs),
(192,411,o),
(200,398,o),
(206,367,cs),
(262,69,ls),
(274,8,o),
(301,-13,o),
(347,-13,cs)
);
},
{
closed = 1;
nodes = (
(103,-13,o),
(169,51,o),
(240,161,c),
(244,161,l),
(246,218,l),
(210,147,o),
(136,51,o),
(108,51,cs),
(93,51,o),
(82,81,o),
(51,81,cs),
(22,81,o),
(6,55,o),
(6,32,cs),
(6,11,o),
(19,-13,o),
(51,-13,cs)
);
},
{
closed = 1;
nodes = (
(333,297,o),
(390,396,o),
(426,396,cs),
(444,396,o),
(456,374,o),
(485,374,cs),
(514,374,o),
(529,396,o),
(529,417,cs),
(529,436,o),
(517,460,o),
(484,460,cs),
(429,460,o),
(367,397,o),
(325,310,c),
(314,310,l),
(314,196,l)
);
}
);
width = 550;
},
{
anchors = (
{
name = bottom;
pos = (205,0);
},
{
name = top;
pos = (309,450);
}
);
layerId = "DD3DBCA6-CF88-4DA3-ACF4-A2FFC969FFEC";
shapes = (
{
closed = 1;
nodes = (
(406,-13,o),
(446,53,o),
(491,147,c),
(468,159,l),
(425,73,o),
(404,43,o),
(379,43,cs),
(367,43,o),
(362,50,o),
(359,67,cs),
(303,364,ls),
(288,440,o),
(256,462,o),
(209,462,cs),
(129,462,o),
(81,396,o),
(43,302,c),
(66,293,l),
(105,376,o),
(125,402,o),
(144,402,cs),
(155,402,o),
(159,393,o),
(164,367,cs),
(214,101,ls),
(230,17,o),
(270,-13,o),
(324,-13,cs)
);
},
{
closed = 1;
nodes = (
(83,-13,o),
(125,21,o),
(202,143,c),
(206,143,l),
(224,223,l),
(139,91,o),
(126,79,o),
(111,79,cs),
(86,79,o),
(83,111,o),
(43,111,cs),
(3,111,o),
(-18,78,o),
(-18,48,cs),
(-18,19,o),
(1,-13,o),
(41,-13,cs)
);
},
{
closed = 1;
nodes = (
(329,330,o),
(359,373,o),
(383,373,cs),
(403,373,o),
(414,343,o),
(450,343,cs),
(487,343,o),
(507,374,o),
(507,404,cs),
(507,437,o),
(484,462,o),
(448,462,cs),
(406,462,o),
(368,427,o),
(312,342,c),
(301,342,l),
(314,285,l)
);
}
);
width = 514;
}
);
unicode = 120;
},
{
glyphname = y;
kernLeft = y;
kernRight = y;
lastChange = "2016-10-31 11:00:18 +0000";
layers = (
{
anchors = (
{
name = bottom;
pos = (392,0);
},
{
name = top;
pos = (316,450);
}
);
layerId = "426C3F01-D24D-4224-A47E-56DA036E4742";
shapes = (
{
closed = 1;
nodes = (
(130,-314,o),
(246,-185,o),
(331,61,cs),
(432,352,ls),
(440,375,o),
(449,381,o),
(458,381,cs),
(471,381,o),
(476,368,o),
(495,368,cs),
(518,368,o),
(536,388,o),
(536,415,cs),
(536,434,o),
(527,462,o),
(489,462,cs),
(462,462,o),
(435,449,o),
(418,400,cs),
(298,46,l),
(266,-29,ls),
(203,-177,o),
(115,-273,o),
(84,-273,cs),
(60,-273,o),
(63,-218,o),
(20,-218,cs),
(-7,-218,o),
(-21,-240,o),
(-21,-263,cs),
(-21,-292,o),
(1,-314,o),
(39,-314,cs)
);
},
{
closed = 1;
nodes = (
(333,82,l),
(324,120,l),
(320,120,l),
(239,390,ls),
(221,443,o),
(200,462,o),
(163,462,cs),
(92,462,o),
(58,397,o),
(20,302,c),
(40,293,l),
(77,378,o),
(92,407,o),
(112,407,cs),
(124,407,o),
(130,396,o),
(139,367,cs),
(263,-49,l)
);
}
);
width = 527;
},
{
anchors = (
{
name = bottom;
pos = (392,0);
},
{
name = top;
pos = (326,450);
}
);
layerId = "DD3DBCA6-CF88-4DA3-ACF4-A2FFC969FFEC";
shapes = (
{
closed = 1;
nodes = (
(125,-314,o),
(261,-150,o),
(358,83,cs),
(455,317,ls),
(467,346,o),
(474,352,o),
(483,352,cs),
(493,352,o),
(507,338,o),
(527,338,cs),
(566,338,o),
(590,365,o),
(590,402,cs),
(590,437,o),
(572,462,o),
(528,462,cs),
(492,462,o),
(461,445,o),
(437,379,cs),
(320,68,l),
(288,7,ls),
(210,-142,o),
(116,-255,o),
(82,-255,cs),
(53,-255,o),
(64,-177,o),
(-1,-177,cs),
(-37,-177,o),
(-64,-200,o),
(-64,-237,cs),
(-64,-277,o),
(-34,-314,o),
(19,-314,cs)
);
},
{
closed = 1;
nodes = (
(372,144,l),
(363,182,l),
(359,182,l),
(286,397,ls),
(268,449,o),
(238,462,o),
(200,462,cs),
(113,462,o),
(74,395,o),
(25,297,c),
(55,283,l),
(92,364,o),
(109,390,o),
(126,390,cs),
(138,390,o),
(143,379,o),
(153,350,cs),
(289,-25,l)
);
}
);
width = 547;
}
);
unicode = 121;
},
{
glyphname = z;
kernLeft = z;
kernRight = z;
lastChange = "2016-08-22 13:41:59 +0000";
layers = (
{
anchors = (
{
name = bottom;
pos = (185,0);
},
{
name = top;
pos = (289,450);
}
);
layerId = "426C3F01-D24D-4224-A47E-56DA036E4742";
shapes = (
{
closed = 1;
nodes = (
(94,-8,o),
(34,47,o),
(77,47,cs),
(112,47,o),
(188,-13,o),
(266,-13,cs),
(344,-13,o),
(411,46,o),
(411,120,cs),
(411,155,o),
(396,185,o),
(368,185,cs),
(350,185,o),
(332,173,o),
(332,148,cs),
(332,105,o),
(387,127,o),
(387,99,cs),
(387,86,o),
(376,70,o),
(350,70,cs),
(306,70,o),
(219,116,o),
(133,116,c),
(133,120,l),
(407,382,ls),
(449,423,o),
(453,434,o),
(453,441,cs),
(453,452,o),
(446,457,o),
(435,457,cs),
(401,457,o),
(423,412,o),
(396,412,cs),
(294,412,o),
(267,415,o),
(154,450,c),
(139,450,l),
(65,294,l),
(82,287,l),
(118,354,l),
(148,342,o),
(176,339,o),
(207,339,cs),
(244,339,o),
(286,345,o),
(337,357,c),
(339,354,l),
(86,112,ls),
(32,60,o),
(17,35,o),
(17,15,cs),
(17,1,o),
(23,-8,o),
(38,-8,cs)
);
}
);
width = 474;
},
{
anchors = (
{
name = bottom;
pos = (195,0);
},
{
name = top;
pos = (299,450);
}
);
layerId = "DD3DBCA6-CF88-4DA3-ACF4-A2FFC969FFEC";
shapes = (
{
closed = 1;
nodes = (
(107,-13,o),
(54,47,o),
(89,47,cs),
(153,47,o),
(213,-13,o),
(290,-13,cs),
(385,-13,o),
(452,78,o),
(452,162,cs),
(452,208,o),
(432,239,o),
(398,239,cs),
(374,239,o),
(350,224,o),
(350,194,cs),
(350,142,o),
(419,160,o),
(419,136,cs),
(419,126,o),
(409,103,o),
(379,103,cs),
(342,103,o),
(314,138,o),
(159,138,c),
(159,142,l),
(467,399,ls),
(484,413,o),
(492,427,o),
(492,440,cs),
(492,454,o),
(483,462,o),
(466,462,cs),
(427,462,o),
(444,417,o),
(423,417,cs),
(333,417,o),
(238,428,o),
(166,450,c),
(141,450,l),
(54,264,l),
(81,253,l),
(118,326,l),
(145,315,o),
(169,315,o),
(198,315,cs),
(234,315,o),
(288,321,o),
(339,336,c),
(341,333,l),
(79,112,ls),
(19,62,o),
(9,43,o),
(9,24,cs),
(9,2,o),
(23,-13,o),
(47,-13,cs)
);
}
);
width = 494;
}
);
unicode = 122;
},
{
glyphname = f_f;
kernLeft = f;
kernRight = f;
lastChange = "2016-08-22 14:11:03 +0000";
layers = (
{
layerId = "426C3F01-D24D-4224-A47E-56DA036E4742";
shapes = (
{
closed = 1;
nodes = (
(3,-324,o),
(101,-256,o),
(171,45,cs),
(265,453,ls),
(307,634,o),
(348,688,o),
(406,688,cs),
(427,688,o),
(441,681,o),
(441,670,cs),
(441,657,o),
(420,647,o),
(420,621,cs),
(420,596,o),
(439,577,o),
(470,577,cs),
(504,577,o),
(524,603,o),
(524,633,cs),
(524,684,o),
(471,718,o),
(413,718,cs),
(309,718,o),
(188,608,o),
(144,392,cs),
(35,-140,ls),
(10,-260,o),
(-26,-294,o),
(-68,-294,cs),
(-88,-294,o),
(-92,-287,o),
(-92,-276,cs),
(-92,-267,o),
(-89,-256,o),
(-89,-247,cs),
(-89,-223,o),
(-108,-203,o),
(-136,-203,cs),
(-164,-203,o),
(-185,-223,o),
(-185,-251,cs),
(-185,-293,o),
(-140,-324,o),
(-82,-324,cs)
);
},
{
closed = 1;
nodes = (
(288,-274,o),
(384,-206,o),
(456,95,cs),
(553,501,ls),
(596,681,o),
(636,736,o),
(694,736,cs),
(715,736,o),
(729,729,o),
(729,718,cs),
(729,705,o),
(708,695,o),
(708,669,cs),
(708,645,o),
(727,625,o),
(758,625,cs),
(792,625,o),
(812,651,o),
(812,681,cs),
(812,732,o),
(759,766,o),
(701,766,cs),
(597,766,o),
(478,655,o),
(432,440,cs),
(320,-90,ls),
(295,-210,o),
(259,-244,o),
(217,-244,cs),
(197,-244,o),
(193,-237,o),
(193,-226,cs),
(193,-217,o),
(196,-206,o),
(196,-197,cs),
(196,-172,o),
(177,-153,o),
(149,-153,cs),
(121,-153,o),
(100,-173,o),
(100,-201,cs),
(100,-243,o),
(145,-274,o),
(203,-274,cs)
);
},
{
closed = 1;
nodes = (
(378,425,l),
(378,450,l),
(57,450,l),
(57,425,l)
);
},
{
closed = 1;
nodes = (
(654,425,l),
(654,450,l),
(333,450,l),
(333,425,l)
);
}
);
width = 589;
},
{
layerId = "DD3DBCA6-CF88-4DA3-ACF4-A2FFC969FFEC";
shapes = (
{
closed = 1;
nodes = (
(37,-324,o),
(159,-182,o),
(223,175,cs),
(277,476,ls),
(307,655,o),
(346,711,o),
(394,711,cs),
(414,711,o),
(421,701,o),
(421,693,cs),
(421,678,o),
(400,665,o),
(400,633,cs),
(400,598,o),
(425,575,o),
(463,575,cs),
(506,575,o),
(526,604,o),
(526,642,cs),
(526,702,o),
(475,741,o),
(408,741,cs),
(298,741,o),
(167,638,o),
(125,418,cs),
(61,82,ls),
(-6,-269,o),
(-28,-289,o),
(-61,-289,cs),
(-76,-289,o),
(-84,-285,o),
(-84,-272,cs),
(-84,-256,o),
(-71,-245,o),
(-71,-224,cs),
(-71,-198,o),
(-91,-172,o),
(-131,-172,cs),
(-172,-172,o),
(-193,-199,o),
(-193,-235,cs),
(-193,-279,o),
(-163,-324,o),
(-91,-324,cs)
);
},
{
closed = 1;
nodes = (
(319,-289,o),
(440,-143,o),
(507,210,cs),
(562,501,ls),
(595,684,o),
(638,736,o),
(682,736,cs),
(700,736,o),
(708,728,o),
(708,718,cs),
(708,702,o),
(687,691,o),
(687,658,cs),
(687,623,o),
(712,600,o),
(750,600,cs),
(793,600,o),
(813,629,o),
(813,667,cs),
(813,727,o),
(761,766,o),
(696,766,cs),
(588,766,o),
(456,660,o),
(410,434,cs),
(336,68,ls),
(275,-233,o),
(256,-254,o),
(224,-254,cs),
(207,-254,o),
(200,-248,o),
(200,-237,cs),
(200,-222,o),
(213,-210,o),
(213,-189,cs),
(213,-164,o),
(193,-137,o),
(153,-137,cs),
(112,-137,o),
(91,-164,o),
(91,-200,cs),
(91,-244,o),
(122,-289,o),
(192,-289,cs)
);
},
{
closed = 1;
nodes = (
(386,420,l),
(386,450,l),
(25,450,l),
(25,420,l)
);
},
{
closed = 1;
nodes = (
(673,420,l),
(673,450,l),
(312,450,l),
(312,420,l)
);
}
);
width = 594;
}
);
},
{
glyphname = f_f_i;
kernLeft = f;
kernRight = i;
lastChange = "2016-08-22 14:11:03 +0000";
layers = (
{
layerId = "426C3F01-D24D-4224-A47E-56DA036E4742";
shapes = (
{
closed = 1;
nodes = (
(277,-284,o),
(377,-216,o),
(445,85,cs),
(542,511,ls),
(580,679,o),
(628,736,o),
(689,736,cs),
(711,736,o),
(728,729,o),
(728,718,cs),
(728,705,o),
(707,695,o),
(707,669,cs),
(707,645,o),
(726,625,o),
(757,625,cs),
(791,625,o),
(811,651,o),
(811,681,cs),
(811,732,o),
(756,766,o),
(696,766,cs),
(588,766,o),
(463,657,o),
(421,450,cs),
(309,-100,ls),
(285,-220,o),
(248,-254,o),
(206,-254,cs),
(186,-254,o),
(182,-247,o),
(182,-236,cs),
(182,-227,o),
(185,-216,o),
(185,-207,cs),
(185,-182,o),
(166,-163,o),
(138,-163,cs),
(110,-163,o),
(89,-183,o),
(89,-211,cs),
(89,-253,o),
(134,-284,o),
(192,-284,cs)
);
},
{
closed = 1;
nodes = (
(6,-324,o),
(112,-210,o),
(171,45,cs),
(268,463,ls),
(307,634,o),
(351,688,o),
(409,688,cs),
(430,688,o),
(444,681,o),
(444,670,cs),
(444,657,o),
(423,647,o),
(423,621,cs),
(423,596,o),
(442,577,o),
(473,577,cs),
(507,577,o),
(527,603,o),
(527,633,cs),
(527,684,o),
(474,718,o),
(416,718,cs),
(309,718,o),
(189,605,o),
(147,402,cs),
(35,-140,ls),
(11,-256,o),
(-24,-294,o),
(-68,-294,cs),
(-88,-294,o),
(-92,-287,o),
(-92,-276,cs),
(-92,-267,o),
(-89,-256,o),
(-89,-247,cs),
(-89,-223,o),
(-108,-203,o),
(-136,-203,cs),
(-164,-203,o),
(-185,-223,o),
(-185,-251,cs),
(-185,-294,o),
(-136,-324,o),
(-88,-324,cs)
);
},
{
closed = 1;
nodes = (
(381,425,l),
(381,450,l),
(60,450,l),
(60,425,l)
);
},
{
closed = 1;
nodes = (
(643,425,l),
(643,450,l),
(322,450,l),
(322,425,l)
);
},
{
closed = 1;
nodes = (
(753,-13,o),
(811,73,o),
(850,157,c),
(830,166,l),
(784,73,o),
(748,38,o),
(716,38,cs),
(702,38,o),
(694,45,o),
(694,63,cs),
(694,69,o),
(695,80,o),
(699,97,cs),
(788,450,l),
(681,450,l),
(594,87,ls),
(592,78,o),
(590,67,o),
(590,56,cs),
(590,15,o),
(618,-13,o),
(667,-13,cs)
);
},
{
closed = 1;
nodes = (
(776,425,l),
(776,450,l),
(587,450,l),
(587,425,l)
);
}
);
width = 852;
},
{
layerId = "DD3DBCA6-CF88-4DA3-ACF4-A2FFC969FFEC";
shapes = (
{
closed = 1;
nodes = (
(308,-289,o),
(423,-145,o),
(499,210,cs),
(561,501,l),
(597,681,o),
(654,736,o),
(709,736,cs),
(731,736,o),
(742,728,o),
(742,718,cs),
(742,703,o),
(721,689,o),
(721,655,cs),
(721,618,o),
(746,596,o),
(784,596,cs),
(827,596,o),
(847,625,o),
(847,662,cs),
(847,727,o),
(786,766,o),
(714,766,cs),
(595,766,o),
(455,660,o),
(406,434,cs),
(327,68,ls),
(262,-233,o),
(247,-254,o),
(214,-254,cs),
(199,-254,o),
(191,-248,o),
(191,-237,cs),
(191,-221,o),
(204,-210,o),
(204,-189,cs),
(204,-164,o),
(184,-137,o),
(144,-137,cs),
(103,-137,o),
(82,-164,o),
(82,-200,cs),
(82,-244,o),
(113,-289,o),
(183,-289,cs)
);
},
{
closed = 1;
nodes = (
(37,-324,o),
(159,-182,o),
(223,175,cs),
(277,476,ls),
(307,655,o),
(346,711,o),
(394,711,cs),
(414,711,o),
(421,701,o),
(421,693,cs),
(421,678,o),
(400,665,o),
(400,633,cs),
(400,598,o),
(425,575,o),
(463,575,cs),
(506,575,o),
(526,604,o),
(526,642,cs),
(526,702,o),
(475,741,o),
(408,741,cs),
(298,741,o),
(167,638,o),
(125,418,cs),
(61,82,ls),
(-6,-269,o),
(-28,-289,o),
(-61,-289,cs),
(-76,-289,o),
(-84,-285,o),
(-84,-272,cs),
(-84,-256,o),
(-71,-245,o),
(-71,-224,cs),
(-71,-198,o),
(-91,-172,o),
(-131,-172,cs),
(-172,-172,o),
(-193,-199,o),
(-193,-235,cs),
(-193,-279,o),
(-163,-324,o),
(-91,-324,cs)
);
},
{
closed = 1;
nodes = (
(388,420,l),
(388,450,l),
(27,450,l),
(27,420,l)
);
},
{
closed = 1;
nodes = (
(671,420,l),
(671,450,l),
(310,450,l),
(310,420,l)
);
},
{
closed = 1;
nodes = (
(778,-11,o),
(850,35,o),
(887,147,c),
(862,156,l),
(821,65,o),
(777,37,o),
(756,37,cs),
(748,37,o),
(742,41,o),
(742,52,cs),
(742,57,o),
(743,69,o),
(747,87,cs),
(831,450,l),
(697,450,l),
(623,153,ls),
(610,100,o),
(607,86,o),
(607,70,cs),
(607,15,o),
(640,-11,o),
(699,-11,cs)
);
},
{
closed = 1;
nodes = (
(774,420,l),
(774,450,l),
(600,450,l),
(600,420,l)
);
}
);
width = 882;
}
);
},
{
glyphname = f_f_l;
kernLeft = f;
kernRight = l;
lastChange = "2016-08-22 14:11:03 +0000";
layers = (
{
layerId = "426C3F01-D24D-4224-A47E-56DA036E4742";
shapes = (
{
closed = 1;
nodes = (
(288,-274,o),
(384,-206,o),
(456,95,cs),
(556,511,ls),
(597,686,o),
(639,736,o),
(697,736,cs),
(718,736,o),
(732,729,o),
(732,718,cs),
(732,705,o),
(711,695,o),
(711,669,cs),
(711,645,o),
(730,625,o),
(761,625,cs),
(795,625,o),
(815,651,o),
(815,681,cs),
(815,732,o),
(762,766,o),
(704,766,cs),
(598,766,o),
(479,657,o),
(435,450,cs),
(320,-90,ls),
(295,-210,o),
(259,-244,o),
(217,-244,cs),
(197,-244,o),
(193,-237,o),
(193,-226,cs),
(193,-217,o),
(196,-206,o),
(196,-197,cs),
(196,-172,o),
(177,-153,o),
(149,-153,cs),
(121,-153,o),
(100,-173,o),
(100,-201,cs),
(100,-243,o),
(145,-274,o),
(203,-274,cs)
);
},
{
closed = 1;
nodes = (
(-2,-324,o),
(100,-263,o),
(171,45,cs),
(268,463,ls),
(307,632,o),
(350,686,o),
(408,686,cs),
(429,686,o),
(443,679,o),
(443,668,cs),
(443,655,o),
(422,645,o),
(422,619,cs),
(422,594,o),
(441,575,o),
(472,575,cs),
(506,575,o),
(526,601,o),
(526,631,cs),
(526,682,o),
(473,716,o),
(415,716,cs),
(308,716,o),
(188,603,o),
(147,402,cs),
(35,-140,ls),
(11,-256,o),
(-24,-294,o),
(-68,-294,cs),
(-88,-294,o),
(-92,-287,o),
(-92,-276,cs),
(-92,-267,o),
(-89,-256,o),
(-89,-247,cs),
(-89,-223,o),
(-108,-203,o),
(-136,-203,cs),
(-164,-203,o),
(-185,-223,o),
(-185,-251,cs),
(-185,-293,o),
(-140,-324,o),
(-82,-324,cs)
);
},
{
closed = 1;
nodes = (
(381,425,l),
(381,450,l),
(60,450,l),
(60,425,l)
);
},
{
closed = 1;
nodes = (
(657,425,l),
(657,450,l),
(336,450,l),
(336,425,l)
);
},
{
closed = 1;
nodes = (
(777,-13,o),
(836,73,o),
(876,157,c),
(856,166,l),
(808,73,o),
(771,38,o),
(738,38,cs),
(723,38,o),
(715,45,o),
(715,63,cs),
(715,69,o),
(716,80,o),
(720,97,cs),
(885,764,l),
(769,734,l),
(615,87,ls),
(613,78,o),
(611,67,o),
(611,56,cs),
(611,15,o),
(639,-13,o),
(689,-13,cs)
);
}
);
width = 895;
},
{
layerId = "DD3DBCA6-CF88-4DA3-ACF4-A2FFC969FFEC";
shapes = (
{
closed = 1;
nodes = (
(316,-289,o),
(431,-142,o),
(500,210,cs),
(557,501,ls),
(591,682,o),
(631,736,o),
(678,736,cs),
(696,736,o),
(704,728,o),
(704,718,cs),
(704,702,o),
(683,691,o),
(683,658,cs),
(683,623,o),
(708,600,o),
(746,600,cs),
(789,600,o),
(809,629,o),
(809,667,cs),
(809,727,o),
(757,766,o),
(692,766,cs),
(584,766,o),
(452,660,o),
(405,434,cs),
(329,68,ls),
(266,-233,o),
(249,-254,o),
(216,-254,cs),
(201,-254,o),
(193,-250,o),
(193,-237,cs),
(193,-222,o),
(206,-211,o),
(206,-189,cs),
(206,-165,o),
(186,-137,o),
(146,-137,cs),
(105,-137,o),
(84,-164,o),
(84,-200,cs),
(84,-244,o),
(114,-289,o),
(185,-289,cs)
);
},
{
closed = 1;
nodes = (
(37,-324,o),
(159,-182,o),
(223,175,cs),
(277,476,ls),
(307,655,o),
(347,711,o),
(395,711,cs),
(415,711,o),
(422,701,o),
(422,693,cs),
(422,678,o),
(401,665,o),
(401,633,cs),
(401,598,o),
(426,575,o),
(464,575,cs),
(507,575,o),
(527,604,o),
(527,642,cs),
(527,702,o),
(476,741,o),
(409,741,cs),
(299,741,o),
(167,638,o),
(125,418,cs),
(61,82,ls),
(-6,-269,o),
(-28,-289,o),
(-61,-289,cs),
(-76,-289,o),
(-84,-285,o),
(-84,-272,cs),
(-84,-256,o),
(-71,-245,o),
(-71,-224,cs),
(-71,-198,o),
(-91,-172,o),
(-131,-172,cs),
(-172,-172,o),
(-193,-199,o),
(-193,-235,cs),
(-193,-279,o),
(-163,-324,o),
(-91,-324,cs)
);
},
{
closed = 1;
nodes = (
(386,420,l),
(386,450,l),
(25,450,l),
(25,420,l)
);
},
{
closed = 1;
nodes = (
(668,420,l),
(668,450,l),
(307,450,l),
(307,420,l)
);
},
{
closed = 1;
nodes = (
(772,-11,o),
(831,43,o),
(864,152,c),
(839,161,l),
(806,69,o),
(769,41,o),
(751,41,cs),
(744,41,o),
(739,45,o),
(739,54,cs),
(739,58,o),
(740,70,o),
(744,87,cs),
(906,766,l),
(766,741,l),
(630,132,ls),
(625,108,o),
(621,83,o),
(621,67,cs),
(621,26,o),
(647,-11,o),
(704,-11,cs)
);
}
);
width = 885;
}
);
},
{
glyphname = f_i;
kernLeft = f;
kernRight = i;
lastChange = "2016-08-22 14:11:03 +0000";
layers = (
{
layerId = "426C3F01-D24D-4224-A47E-56DA036E4742";
shapes = (
{
closed = 1;
nodes = (
(3,-324,o),
(101,-256,o),
(171,45,cs),
(279,511,ls),
(319,684,o),
(365,736,o),
(425,736,cs),
(447,736,o),
(464,729,o),
(464,718,cs),
(464,705,o),
(443,695,o),
(443,669,cs),
(443,645,o),
(462,625,o),
(493,625,cs),
(527,625,o),
(547,651,o),
(547,681,cs),
(547,732,o),
(492,766,o),
(432,766,cs),
(324,766,o),
(201,657,o),
(158,450,cs),
(35,-140,ls),
(10,-260,o),
(-26,-294,o),
(-68,-294,cs),
(-88,-294,o),
(-92,-287,o),
(-92,-276,cs),
(-92,-267,o),
(-89,-256,o),
(-89,-247,cs),
(-89,-223,o),
(-108,-203,o),
(-136,-203,cs),
(-164,-203,o),
(-185,-223,o),
(-185,-251,cs),
(-185,-293,o),
(-140,-324,o),
(-82,-324,cs)
);
},
{
closed = 1;
nodes = (
(380,425,l),
(380,450,l),
(59,450,l),
(59,425,l)
);
},
{
closed = 1;
nodes = (
(491,-13,o),
(549,73,o),
(588,157,c),
(568,166,l),
(522,73,o),
(486,38,o),
(454,38,cs),
(440,38,o),
(432,45,o),
(432,63,cs),
(432,69,o),
(433,80,o),
(437,97,cs),
(525,450,l),
(418,450,l),
(332,87,ls),
(330,78,o),
(328,67,o),
(328,56,cs),
(328,15,o),
(356,-13,o),
(405,-13,cs)
);
},
{
closed = 1;
nodes = (
(513,425,l),
(513,450,l),
(324,450,l),
(324,425,l)
);
}
);
width = 590;
},
{
layerId = "DD3DBCA6-CF88-4DA3-ACF4-A2FFC969FFEC";
shapes = (
{
closed = 1;
nodes = (
(33,-324,o),
(151,-181,o),
(224,175,cs),
(291,501,ls),
(327,681,o),
(385,736,o),
(440,736,cs),
(462,736,o),
(473,728,o),
(473,718,cs),
(473,703,o),
(452,689,o),
(452,655,cs),
(452,618,o),
(477,596,o),
(515,596,cs),
(558,596,o),
(578,625,o),
(578,662,cs),
(578,727,o),
(517,766,o),
(445,766,cs),
(326,766,o),
(183,661,o),
(136,434,cs),
(52,33,ls),
(-11,-268,o),
(-28,-289,o),
(-61,-289,cs),
(-76,-289,o),
(-84,-285,o),
(-84,-272,cs),
(-84,-256,o),
(-71,-245,o),
(-71,-224,cs),
(-71,-198,o),
(-91,-172,o),
(-131,-172,cs),
(-172,-172,o),
(-193,-199,o),
(-193,-235,cs),
(-193,-279,o),
(-163,-324,o),
(-92,-324,cs)
);
},
{
closed = 1;
nodes = (
(401,420,l),
(401,450,l),
(40,450,l),
(40,420,l)
);
},
{
closed = 1;
nodes = (
(508,-11,o),
(580,35,o),
(617,147,c),
(592,156,l),
(551,65,o),
(507,37,o),
(486,37,cs),
(478,37,o),
(472,41,o),
(472,52,cs),
(472,57,o),
(473,69,o),
(477,87,cs),
(561,450,l),
(427,450,l),
(353,153,ls),
(340,100,o),
(337,86,o),
(337,70,cs),
(337,15,o),
(370,-11,o),
(429,-11,cs)
);
},
{
closed = 1;
nodes = (
(504,420,l),
(504,450,l),
(330,450,l),
(330,420,l)
);
}
);
width = 612;
}
);
},
{
glyphname = f_l;
kernLeft = f;
kernRight = l;
lastChange = "2016-08-22 14:11:03 +0000";
layers = (
{
layerId = "426C3F01-D24D-4224-A47E-56DA036E4742";
shapes = (
{
closed = 1;
nodes = (
(3,-324,o),
(101,-256,o),
(171,45,cs),
(279,511,ls),
(319,684,o),
(362,736,o),
(420,736,cs),
(441,736,o),
(455,729,o),
(455,718,cs),
(455,705,o),
(434,695,o),
(434,669,cs),
(434,645,o),
(453,625,o),
(484,625,cs),
(518,625,o),
(538,651,o),
(538,681,cs),
(538,732,o),
(485,766,o),
(427,766,cs),
(323,766,o),
(201,659,o),
(158,450,cs),
(35,-140,ls),
(10,-260,o),
(-26,-294,o),
(-68,-294,cs),
(-88,-294,o),
(-92,-287,o),
(-92,-276,cs),
(-92,-267,o),
(-89,-256,o),
(-89,-247,cs),
(-89,-223,o),
(-108,-203,o),
(-136,-203,cs),
(-164,-203,o),
(-185,-223,o),
(-185,-251,cs),
(-185,-293,o),
(-140,-324,o),
(-82,-324,cs)
);
},
{
closed = 1;
nodes = (
(364,425,l),
(364,450,l),
(59,450,l),
(59,425,l)
);
},
{
closed = 1;
nodes = (
(499,-13,o),
(558,73,o),
(598,157,c),
(578,166,l),
(530,73,o),
(493,38,o),
(459,38,cs),
(445,38,o),
(437,45,o),
(437,63,cs),
(437,69,o),
(438,80,o),
(442,97,cs),
(606,764,l),
(491,732,l),
(337,87,ls),
(335,78,o),
(333,67,o),
(333,56,cs),
(333,15,o),
(361,-13,o),
(410,-13,cs)
);
}
);
width = 616;
},
{
layerId = "DD3DBCA6-CF88-4DA3-ACF4-A2FFC969FFEC";
shapes = (
{
closed = 1;
nodes = (
(35,-324,o),
(153,-177,o),
(223,175,cs),
(288,501,ls),
(322,682,o),
(362,736,o),
(409,736,cs),
(427,736,o),
(435,728,o),
(435,718,cs),
(435,702,o),
(414,691,o),
(414,658,cs),
(414,623,o),
(439,600,o),
(477,600,cs),
(520,600,o),
(540,629,o),
(540,667,cs),
(540,727,o),
(488,766,o),
(423,766,cs),
(315,766,o),
(183,660,o),
(136,434,cs),
(52,33,ls),
(-11,-268,o),
(-28,-289,o),
(-61,-289,cs),
(-76,-289,o),
(-84,-285,o),
(-84,-272,cs),
(-84,-256,o),
(-71,-245,o),
(-71,-224,cs),
(-71,-198,o),
(-91,-172,o),
(-131,-172,cs),
(-172,-172,o),
(-193,-199,o),
(-193,-235,cs),
(-193,-279,o),
(-163,-324,o),
(-92,-324,cs)
);
},
{
closed = 1;
nodes = (
(399,420,l),
(399,450,l),
(38,450,l),
(38,420,l)
);
},
{
closed = 1;
nodes = (
(503,-11,o),
(562,43,o),
(595,152,c),
(570,161,l),
(537,69,o),
(500,41,o),
(482,41,cs),
(475,41,o),
(470,45,o),
(470,54,cs),
(470,58,o),
(471,70,o),
(475,87,cs),
(637,766,l),
(497,741,l),
(361,132,ls),
(356,108,o),
(352,83,o),
(352,67,cs),
(352,26,o),
(378,-11,o),
(435,-11,cs)
);
}
);
width = 616;
}
);
},
{
glyphname = ordfeminine;
lastChange = "2016-08-22 10:35:49 +0000";
layers = (
{
layerId = "426C3F01-D24D-4224-A47E-56DA036E4742";
shapes = (
{
closed = 1;
nodes = (
(260,458,o),
(288,478,o),
(305,512,c),
(309,512,l),
(316,577,l),
(292,508,o),
(262,488,o),
(239,488,cs),
(217,488,o),
(207,507,o),
(207,542,cs),
(207,606,o),
(241,734,o),
(298,734,cs),
(324,734,o),
(337,706,o),
(337,679,cs),
(337,671,o),
(336,664,o),
(336,655,c),
(350,715,l),
(346,715,l),
(337,743,o),
(326,763,o),
(289,763,cs),
(211,763,o),
(125,673,o),
(125,573,cs),
(125,500,o),
(171,458,o),
(224,458,cs)
);
},
{
closed = 1;
nodes = (
(409,458,o),
(440,511,o),
(460,559,c),
(437,565,l),
(418,519,o),
(399,496,o),
(385,496,cs),
(379,496,o),
(375,501,o),
(375,514,cs),
(375,526,o),
(378,539,o),
(384,562,cs),
(432,753,l),
(359,753,l),
(314,567,ls),
(309,548,o),
(307,531,o),
(307,519,cs),
(307,471,o),
(339,458,o),
(362,458,cs)
);
}
);
width = 370;
},
{
layerId = "DD3DBCA6-CF88-4DA3-ACF4-A2FFC969FFEC";
shapes = (
{
closed = 1;
nodes = (
(269,458,o),
(299,478,o),
(318,512,c),
(322,512,l),
(332,587,l),
(308,518,o),
(275,498,o),
(252,498,cs),
(230,498,o),
(220,517,o),
(220,550,cs),
(220,610,o),
(254,724,o),
(310,724,cs),
(338,724,o),
(350,696,o),
(350,669,cs),
(350,661,o),
(349,654,o),
(349,645,c),
(363,715,l),
(359,715,l),
(349,743,o),
(335,763,o),
(296,763,cs),
(212,763,o),
(123,673,o),
(123,573,cs),
(123,500,o),
(172,458,o),
(229,458,cs)
);
},
{
closed = 1;
nodes = (
(432,458,o),
(466,495,o),
(488,559,c),
(465,565,l),
(446,519,o),
(427,496,o),
(413,496,cs),
(407,496,o),
(403,501,o),
(403,514,cs),
(403,526,o),
(406,539,o),
(412,562,cs),
(460,753,l),
(372,753,l),
(327,567,ls),
(322,548,o),
(320,530,o),
(320,519,cs),
(320,470,o),
(356,458,o),
(384,458,cs)
);
}
);
width = 402;
}
);
unicode = 170;
},
{
glyphname = ordmasculine;
lastChange = "2016-08-22 13:52:25 +0000";
layers = (
{
layerId = "426C3F01-D24D-4224-A47E-56DA036E4742";
shapes = (
{
closed = 1;
nodes = (
(332,457,o),
(422,554,o),
(422,645,cs),
(422,712,o),
(373,763,o),
(302,763,cs),
(204,763,o),
(115,667,o),
(115,576,cs),
(115,509,o),
(163,457,o),
(234,457,cs)
);
},
{
closed = 1;
nodes = (
(210,484,o),
(199,506,o),
(199,549,cs),
(199,628,o),
(231,737,o),
(291,737,cs),
(326,737,o),
(337,706,o),
(337,672,cs),
(337,586,o),
(305,484,o),
(245,484,cs)
);
}
);
width = 346;
},
{
layerId = "DD3DBCA6-CF88-4DA3-ACF4-A2FFC969FFEC";
shapes = (
{
closed = 1;
nodes = (
(358,457,o),
(453,554,o),
(453,645,cs),
(453,712,o),
(400,763,o),
(319,763,cs),
(212,763,o),
(118,667,o),
(118,576,cs),
(118,509,o),
(170,457,o),
(251,457,cs)
);
},
{
closed = 1;
nodes = (
(227,484,o),
(216,506,o),
(216,549,cs),
(216,628,o),
(248,737,o),
(315,737,cs),
(343,737,o),
(354,706,o),
(354,672,cs),
(354,586,o),
(322,484,o),
(257,484,cs)
);
}
);
width = 374;
}
);
unicode = 186;
},
{
glyphname = Delta;
lastChange = "2016-08-22 14:11:03 +0000";
layers = (
{
layerId = "426C3F01-D24D-4224-A47E-56DA036E4742";
shapes = (
{
closed = 1;
nodes = (
(641,0,l),
(641,37,l),
(359,729,l),
(302,715,l),
(31,37,l),
(31,0,l)
);
},
{
closed = 1;
nodes = (
(279,570,l),
(478,37,l),
(67,37,l)
);
}
);
width = 680;
},
{
layerId = "DD3DBCA6-CF88-4DA3-ACF4-A2FFC969FFEC";
shapes = (
{
closed = 1;
nodes = (
(663,0,l),
(663,43,l),
(366,733,l),
(296,716,l),
(11,43,l),
(11,0,l)
);
},
{
closed = 1;
nodes = (
(278,527,l),
(469,73,l),
(93,73,l)
);
}
);
width = 700;
}
);
unicode = 916;
},
{
glyphname = Omega;
lastChange = "2016-08-22 14:11:03 +0000";
layers = (
{
layerId = "426C3F01-D24D-4224-A47E-56DA036E4742";
shapes = (
{
closed = 1;
nodes = (
(335,0,l),
(345,23,l),
(257,156,o),
(222,257,o),
(222,412,cs),
(222,636,o),
(295,702,o),
(380,702,cs),
(471,702,o),
(545,625,o),
(545,408,cs),
(545,267,o),
(514,160,o),
(421,23,c),
(430,0,l),
(701,0,l),
(730,174,l),
(707,174,l),
(686,109,o),
(672,95,o),
(630,95,cs),
(508,99,l),
(607,187,o),
(694,269,o),
(694,421,cs),
(694,607,o),
(565,733,o),
(387,733,cs),
(208,733,o),
(72,606,o),
(72,412,cs),
(72,249,o),
(168,165,o),
(251,100,c),
(144,96,ls),
(100,96,o),
(84,112,o),
(62,174,c),
(38,174,l),
(63,0,l)
);
}
);
width = 762;
},
{
layerId = "DD3DBCA6-CF88-4DA3-ACF4-A2FFC969FFEC";
shapes = (
{
closed = 1;
nodes = (
(365,0,l),
(375,26,l),
(326,132,o),
(263,268,o),
(263,399,cs),
(263,626,o),
(323,694,o),
(415,694,cs),
(506,694,o),
(572,615,o),
(572,402,cs),
(572,267,o),
(500,123,o),
(458,26,c),
(468,0,l),
(756,0,l),
(788,189,l),
(747,189,l),
(724,127,o),
(709,116,o),
(665,116,cs),
(552,116,l),
(644,188,o),
(751,274,o),
(751,414,cs),
(751,612,o),
(615,733,o),
(419,733,cs),
(226,733,o),
(83,609,o),
(83,408,cs),
(83,253,o),
(195,171,o),
(274,116,c),
(176,116,ls),
(127,116,o),
(111,128,o),
(87,189,c),
(48,189,l),
(75,0,l)
);
}
);
width = 782;
}
);
unicode = 937;
},
{
glyphname = mu;
lastChange = "2016-08-22 14:11:03 +0000";
layers = (
{
layerId = "426C3F01-D24D-4224-A47E-56DA036E4742";
shapes = (
{
closed = 1;
nodes = (
(226,-12,o),
(285,41,o),
(327,96,c),
(334,96,l),
(356,216,l),
(327,113,o),
(257,32,o),
(195,32,cs),
(174,32,o),
(158,42,o),
(158,65,cs),
(158,73,o),
(160,81,o),
(162,91,cs),
(248,450,l),
(144,450,l),
(62,114,ls),
(58,97,o),
(56,82,o),
(56,70,cs),
(56,12,o),
(99,-12,o),
(150,-12,cs)
);
},
{
closed = 1;
nodes = (
(37,-261,o),
(68,-236,o),
(68,-174,cs),
(68,-143,o),
(60,-118,o),
(60,-69,cs),
(60,-45,o),
(62,-16,o),
(68,21,c),
(72,21,l),
(65,126,l),
(29,-59,o),
(-41,-153,o),
(-41,-217,cs),
(-41,-248,o),
(-24,-261,o),
(1,-261,cs)
);
},
{
closed = 1;
nodes = (
(224,425,l),
(224,450,l),
(65,450,l),
(65,425,l)
);
},
{
closed = 1;
nodes = (
(477,-12,o),
(523,45,o),
(564,142,c),
(544,151,l),
(507,73,o),
(472,30,o),
(444,30,cs),
(430,30,o),
(424,41,o),
(424,60,cs),
(424,77,o),
(429,106,o),
(439,147,cs),
(514,450,l),
(412,450,l),
(341,154,ls),
(334,125,o),
(331,101,o),
(331,82,cs),
(331,9,o),
(373,-12,o),
(412,-12,cs)
);
}
);
width = 571;
},
{
background = {
shapes = (
{
closed = 1;
nodes = (
(41,420,l),
(215,420,l),
(215,450,l),
(41,450,l)
);
},
{
closed = 1;
nodes = (
(559,450,l),
(425,450,l),
(351,153,ls),
(338,100,o),
(335,86,o),
(335,70,cs),
(335,15,o),
(370,-11,o),
(422,-11,cs),
(513,-11,o),
(576,69,o),
(602,152,c),
(577,161,l),
(540,69,o),
(499,41,o),
(479,41,cs),
(472,41,o),
(467,45,o),
(467,54,cs),
(467,58,o),
(468,70,o),
(472,87,cs)
);
},
{
closed = 1;
nodes = (
(370,220,l),
(339,108,o),
(239,35,o),
(203,35,cs),
(191,35,o),
(184,43,o),
(184,57,cs),
(184,67,o),
(187,86,o),
(189,95,cs),
(280,450,l),
(143,450,l),
(56,113,ls),
(52,96,o),
(50,81,o),
(50,69,cs),
(50,13,o),
(99,-11,o),
(152,-11,cs),
(232,-11,o),
(292,43,o),
(332,98,c),
(339,98,l)
);
}
);
};
layerId = "DD3DBCA6-CF88-4DA3-ACF4-A2FFC969FFEC";
shapes = (
{
closed = 1;
nodes = (
(232,-11,o),
(292,43,o),
(332,98,c),
(339,98,l),
(370,220,l),
(339,108,o),
(239,35,o),
(203,35,cs),
(191,35,o),
(184,43,o),
(184,57,cs),
(184,67,o),
(187,86,o),
(189,95,cs),
(280,450,l),
(143,450,l),
(56,113,ls),
(52,96,o),
(50,81,o),
(50,69,cs),
(50,13,o),
(99,-11,o),
(152,-11,cs)
);
},
{
closed = 1;
nodes = (
(48,-277,o),
(81,-246,o),
(81,-174,cs),
(81,-145,o),
(76,-108,o),
(76,-57,cs),
(76,-38,o),
(76,-17,o),
(78,8,c),
(82,8,l),
(54,104,l),
(13,-90,o),
(-49,-153,o),
(-49,-220,cs),
(-49,-252,o),
(-34,-277,o),
(5,-277,cs)
);
},
{
closed = 1;
nodes = (
(215,420,l),
(215,450,l),
(41,450,l),
(41,420,l)
);
},
{
closed = 1;
nodes = (
(513,-11,o),
(576,69,o),
(602,152,c),
(577,161,l),
(540,69,o),
(499,41,o),
(479,41,cs),
(472,41,o),
(467,45,o),
(467,54,cs),
(467,58,o),
(468,70,o),
(472,87,cs),
(559,450,l),
(425,450,l),
(351,153,ls),
(338,100,o),
(335,86,o),
(335,70,cs),
(335,15,o),
(370,-11,o),
(422,-11,cs)
);
}
);
width = 598;
}
);
unicode = 956;
},
{
glyphname = pi;
lastChange = "2016-08-22 12:51:23 +0000";
layers = (
{
layerId = "426C3F01-D24D-4224-A47E-56DA036E4742";
shapes = (
{
closed = 1;
nodes = (
(98,-12,o),
(126,-5,o),
(151,6,c),
(168,29,o),
(220,117,o),
(220,365,cs),
(220,377,l),
(353,377,l),
(350,331,o),
(343,218,o),
(343,155,cs),
(343,40,o),
(366,-13,o),
(447,-13,cs),
(507,-13,o),
(544,16,o),
(572,62,c),
(563,80,l),
(546,64,o),
(530,57,o),
(515,57,cs),
(483,57,o),
(471,89,o),
(471,214,cs),
(471,270,o),
(471,324,o),
(476,377,c),
(531,377,l),
(582,490,l),
(567,496,l),
(550,472,o),
(534,465,o),
(489,465,cs),
(395,465,o),
(302,465,o),
(208,465,cs),
(124,465,o),
(79,438,o),
(19,362,c),
(36,340,l),
(80,369,o),
(105,377,o),
(168,377,c),
(168,272,o),
(145,116,o),
(70,9,c),
(78,-13,l)
);
}
);
width = 602;
},
{
layerId = "DD3DBCA6-CF88-4DA3-ACF4-A2FFC969FFEC";
shapes = (
{
closed = 1;
nodes = (
(116,-12,o),
(144,-6,o),
(174,6,c),
(192,28,o),
(245,111,o),
(245,353,cs),
(245,363,l),
(372,363,l),
(366,295,o),
(362,206,o),
(362,163,cs),
(362,17,o),
(408,-14,o),
(472,-14,cs),
(542,-14,o),
(591,24,o),
(619,64,c),
(605,96,l),
(588,83,o),
(576,77,o),
(561,77,cs),
(535,77,o),
(516,96,o),
(516,166,cs),
(516,239,o),
(516,295,o),
(522,363,c),
(590,363,l),
(633,500,l),
(599,509,l),
(579,476,o),
(566,474,o),
(518,474,cs),
(459,474,o),
(292,477,o),
(249,477,cs),
(133,477,o),
(101,455,o),
(29,361,c),
(48,325,l),
(97,354,o),
(125,363,o),
(187,363,c),
(187,266,o),
(160,118,o),
(84,12,c),
(93,-14,l)
);
}
);
width = 622;
}
);
unicode = 960;
},
{
glyphname = zero;
lastChange = "2016-08-22 13:52:36 +0000";
layers = (
{
layerId = "426C3F01-D24D-4224-A47E-56DA036E4742";
shapes = (
{
closed = 1;
nodes = (
(456,-11,o),
(602,249,o),
(602,445,cs),
(602,567,o),
(546,706,o),
(418,706,cs),
(254,706,o),
(78,476,o),
(78,248,cs),
(78,119,o),
(135,-11,o),
(268,-11,cs)
);
},
{
closed = 1;
nodes = (
(218,14,o),
(182,38,o),
(182,126,cs),
(182,266,o),
(272,680,o),
(425,680,cs),
(472,680,o),
(498,641,o),
(498,560,cs),
(498,416,o),
(416,14,o),
(257,14,cs)
);
}
);
width = 606;
},
{
layerId = "DD3DBCA6-CF88-4DA3-ACF4-A2FFC969FFEC";
shapes = (
{
closed = 1;
nodes = (
(472,-11,o),
(625,249,o),
(625,443,cs),
(625,567,o),
(562,706,o),
(424,706,cs),
(247,706,o),
(61,477,o),
(61,251,cs),
(61,118,o),
(125,-11,o),
(268,-11,cs)
);
},
{
closed = 1;
nodes = (
(236,19,o),
(205,34,o),
(205,123,cs),
(205,263,o),
(283,675,o),
(422,675,cs),
(459,675,o),
(481,646,o),
(481,566,cs),
(481,423,o),
(410,19,o),
(264,19,cs)
);
}
);
width = 626;
}
);
unicode = 48;
},
{
glyphname = one;
lastChange = "2016-08-22 10:35:49 +0000";
layers = (
{
layerId = "426C3F01-D24D-4224-A47E-56DA036E4742";
shapes = (
{
closed = 1;
nodes = (
(207,0,l),
(359,706,l),
(247,706,l),
(99,0,l)
);
},
{
closed = 1;
nodes = (
(336,0,l),
(336,25,l),
(2,25,l),
(2,0,l)
);
},
{
closed = 1;
nodes = (
(352,681,l),
(352,706,l),
(123,706,l),
(123,681,l)
);
}
);
width = 360;
},
{
layerId = "DD3DBCA6-CF88-4DA3-ACF4-A2FFC969FFEC";
shapes = (
{
closed = 1;
nodes = (
(253,0,l),
(405,706,l),
(253,706,l),
(105,0,l)
);
},
{
closed = 1;
nodes = (
(392,0,l),
(392,35,l),
(-12,35,l),
(-12,0,l)
);
},
{
closed = 1;
nodes = (
(378,671,l),
(378,706,l),
(109,706,l),
(109,671,l)
);
}
);
width = 432;
}
);
unicode = 49;
},
{
glyphname = two;
lastChange = "2016-08-22 10:35:49 +0000";
layers = (
{
layerId = "426C3F01-D24D-4224-A47E-56DA036E4742";
shapes = (
{
closed = 1;
nodes = (
(441,0,l),
(487,188,l),
(462,188,l),
(438,102,o),
(420,89,o),
(377,89,cs),
(110,89,l),
(110,93,l),
(401,333,ls),
(503,417,o),
(548,476,o),
(548,547,cs),
(548,644,o),
(465,706,o),
(349,706,cs),
(217,706,o),
(136,625,o),
(136,534,cs),
(136,470,o),
(176,448,o),
(207,448,cs),
(237,448,o),
(262,468,o),
(262,502,cs),
(262,564,o),
(177,535,o),
(177,577,cs),
(177,615,o),
(246,681,o),
(325,681,cs),
(392,681,o),
(428,633,o),
(428,550,cs),
(428,445,o),
(370,354,o),
(267,265,cs),
(27,58,l),
(15,0,l)
);
}
);
width = 538;
},
{
layerId = "DD3DBCA6-CF88-4DA3-ACF4-A2FFC969FFEC";
shapes = (
{
closed = 1;
nodes = (
(458,0,l),
(514,218,l),
(482,218,l),
(465,140,o),
(453,131,o),
(419,131,cs),
(140,131,l),
(140,135,l),
(403,306,ls),
(531,389,o),
(569,462,o),
(569,527,cs),
(569,636,o),
(466,706,o),
(335,706,cs),
(174,706,o),
(102,601,o),
(102,515,cs),
(102,436,o),
(164,420,o),
(194,420,cs),
(233,420,o),
(267,446,o),
(267,492,cs),
(267,570,o),
(169,550,o),
(169,585,cs),
(169,610,o),
(224,671,o),
(300,671,cs),
(361,671,o),
(400,632,o),
(400,538,cs),
(400,449,o),
(365,354,o),
(218,244,cs),
(16,93,l),
(-6,0,l)
);
}
);
width = 570;
}
);
unicode = 50;
},
{
glyphname = three;
lastChange = "2016-08-22 13:52:45 +0000";
layers = (
{
layerId = "426C3F01-D24D-4224-A47E-56DA036E4742";
shapes = (
{
closed = 1;
nodes = (
(390,-13,o),
(512,103,o),
(512,211,cs),
(512,302,o),
(426,376,o),
(341,376,c),
(341,381,l),
(472,418,o),
(545,496,o),
(545,571,cs),
(545,641,o),
(481,711,o),
(357,711,cs),
(250,711,o),
(165,658,o),
(165,591,cs),
(165,554,o),
(191,538,o),
(216,538,cs),
(246,538,o),
(268,560,o),
(268,588,cs),
(268,617,o),
(243,619,o),
(243,640,cs),
(243,667,o),
(286,686,o),
(336,686,cs),
(404,686,o),
(434,650,o),
(434,594,cs),
(434,517,o),
(378,390,o),
(263,390,cs),
(238,390,o),
(216,396,o),
(204,396,cs),
(190,396,o),
(177,388,o),
(177,375,cs),
(177,363,o),
(186,354,o),
(206,354,cs),
(225,354,o),
(241,363,o),
(250,363,cs),
(337,363,o),
(386,332,o),
(386,237,cs),
(386,153,o),
(347,12,o),
(208,12,cs),
(149,12,o),
(93,38,o),
(93,62,cs),
(93,88,o),
(155,81,o),
(155,132,cs),
(155,162,o),
(133,184,o),
(100,184,cs),
(60,184,o),
(35,154,o),
(35,112,cs),
(35,50,o),
(91,-13,o),
(218,-13,cs)
);
}
);
width = 545;
},
{
layerId = "DD3DBCA6-CF88-4DA3-ACF4-A2FFC969FFEC";
shapes = (
{
closed = 1;
nodes = (
(386,-13,o),
(515,86,o),
(515,205,cs),
(515,305,o),
(424,376,o),
(334,376,c),
(334,381,l),
(467,418,o),
(538,487,o),
(538,566,cs),
(538,643,o),
(472,711,o),
(347,711,cs),
(234,711,o),
(148,654,o),
(148,581,cs),
(148,537,o),
(179,518,o),
(209,518,cs),
(245,518,o),
(271,545,o),
(271,577,cs),
(271,614,o),
(236,614,o),
(236,640,cs),
(236,664,o),
(265,681,o),
(314,681,cs),
(366,681,o),
(397,662,o),
(397,598,cs),
(397,517,o),
(346,395,o),
(245,395,cs),
(222,395,o),
(198,401,o),
(187,401,cs),
(173,401,o),
(160,391,o),
(160,374,cs),
(160,360,o),
(169,349,o),
(192,349,cs),
(212,349,o),
(211,358,o),
(245,358,cs),
(319,358,o),
(349,317,o),
(349,220,cs),
(349,74,o),
(280,17,o),
(197,17,cs),
(148,17,o),
(86,37,o),
(86,63,cs),
(86,89,o),
(148,84,o),
(148,136,cs),
(148,171,o),
(120,194,o),
(85,194,cs),
(40,194,o),
(18,156,o),
(18,114,cs),
(18,48,o),
(74,-13,o),
(211,-13,cs)
);
}
);
width = 565;
}
);
unicode = 51;
},
{
glyphname = four;
lastChange = "2016-08-22 10:35:49 +0000";
layers = (
{
layerId = "426C3F01-D24D-4224-A47E-56DA036E4742";
shapes = (
{
closed = 1;
nodes = (
(62,220,l),
(62,224,l),
(373,565,l),
(377,565,l),
(481,681,l),
(464,706,l),
(18,224,l),
(35,199,l)
);
},
{
closed = 1;
nodes = (
(463,0,l),
(463,25,l),
(168,25,l),
(168,0,l)
);
},
{
closed = 1;
nodes = (
(527,196,l),
(527,224,l),
(18,224,l),
(18,196,l)
);
},
{
closed = 1;
nodes = (
(520,108,l),
(565,289,l),
(540,289,l),
(495,108,l)
);
},
{
closed = 1;
nodes = (
(366,0,l),
(518,706,l),
(464,706,l),
(385,605,l),
(258,0,l)
);
}
);
width = 552;
},
{
layerId = "DD3DBCA6-CF88-4DA3-ACF4-A2FFC969FFEC";
shapes = (
{
closed = 1;
nodes = (
(58,220,l),
(58,224,l),
(343,537,l),
(347,537,l),
(477,681,l),
(460,706,l),
(14,224,l),
(31,199,l)
);
},
{
closed = 1;
nodes = (
(469,0,l),
(469,30,l),
(164,30,l),
(164,0,l)
);
},
{
closed = 1;
nodes = (
(533,191,l),
(533,224,l),
(14,224,l),
(14,191,l)
);
},
{
closed = 1;
nodes = (
(526,108,l),
(571,289,l),
(541,289,l),
(496,108,l)
);
},
{
closed = 1;
nodes = (
(382,0,l),
(534,706,l),
(460,706,l),
(357,585,l),
(234,0,l)
);
}
);
width = 572;
}
);
unicode = 52;
},
{
glyphname = five;
lastChange = "2016-08-22 10:35:49 +0000";
layers = (
{
layerId = "426C3F01-D24D-4224-A47E-56DA036E4742";
shapes = (
{
closed = 1;
nodes = (
(398,-8,o),
(546,113,o),
(546,246,cs),
(546,350,o),
(454,428,o),
(309,428,cs),
(269,428,o),
(231,422,o),
(182,407,c),
(178,411,l),
(238,617,l),
(535,617,l),
(603,754,l),
(573,754,l),
(547,710,o),
(536,706,o),
(466,706,cs),
(232,706,l),
(138,376,l),
(149,366,l),
(191,385,o),
(238,395,o),
(277,395,cs),
(348,395,o),
(415,362,o),
(415,253,cs),
(415,164,o),
(370,18,o),
(222,18,cs),
(153,18,o),
(117,50,o),
(117,64,cs),
(117,83,o),
(178,91,o),
(178,138,cs),
(178,168,o),
(153,191,o),
(119,191,cs),
(77,191,o),
(52,156,o),
(52,120,cs),
(52,69,o),
(101,-8,o),
(233,-8,cs)
);
}
);
width = 581;
},
{
layerId = "DD3DBCA6-CF88-4DA3-ACF4-A2FFC969FFEC";
shapes = (
{
closed = 1;
nodes = (
(415,-11,o),
(547,116,o),
(547,242,cs),
(547,351,o),
(448,428,o),
(292,428,cs),
(249,428,o),
(212,422,o),
(163,407,c),
(159,411,l),
(207,575,l),
(534,575,l),
(614,754,l),
(584,754,l),
(558,710,o),
(547,706,o),
(477,706,cs),
(206,706,l),
(112,376,l),
(130,356,l),
(172,375,o),
(219,385,o),
(259,385,cs),
(325,385,o),
(376,358,o),
(376,263,cs),
(376,179,o),
(337,18,o),
(215,18,cs),
(162,18,o),
(128,49,o),
(128,65,cs),
(128,85,o),
(184,96,o),
(184,152,cs),
(184,194,o),
(152,221,o),
(113,221,cs),
(60,221,o),
(33,171,o),
(33,125,cs),
(33,64,o),
(82,-11,o),
(227,-11,cs)
);
}
);
width = 601;
}
);
unicode = 53;
},
{
glyphname = six;
lastChange = "2016-08-22 13:52:55 +0000";
layers = (
{
layerId = "426C3F01-D24D-4224-A47E-56DA036E4742";
shapes = (
{
closed = 1;
nodes = (
(441,-13,o),
(576,137,o),
(576,277,cs),
(576,384,o),
(498,462,o),
(385,462,cs),
(339,462,o),
(301,449,o),
(248,414,c),
(245,417,l),
(274,548,o),
(404,686,o),
(582,706,c),
(582,731,l),
(355,731,o),
(72,477,o),
(72,221,cs),
(72,86,o),
(150,-13,o),
(280,-13,cs)
);
},
{
closed = 1;
nodes = (
(211,12,o),
(179,47,o),
(179,142,cs),
(179,220,o),
(201,306,o),
(219,352,c),
(274,410,o),
(329,437,o),
(379,437,cs),
(437,437,o),
(461,401,o),
(461,324,cs),
(461,225,o),
(421,12,o),
(272,12,c)
);
}
);
width = 595;
},
{
layerId = "DD3DBCA6-CF88-4DA3-ACF4-A2FFC969FFEC";
shapes = (
{
closed = 1;
nodes = (
(451,-13,o),
(596,127,o),
(596,267,cs),
(596,373,o),
(514,462,o),
(397,462,cs),
(352,462,o),
(315,449,o),
(271,414,c),
(268,417,l),
(297,543,o),
(427,677,o),
(605,696,c),
(605,731,l),
(362,731,o),
(55,503,o),
(55,228,cs),
(55,83,o),
(141,-13,o),
(281,-13,cs)
);
},
{
closed = 1;
nodes = (
(225,17,o),
(212,54,o),
(212,123,cs),
(212,212,o),
(234,308,o),
(252,352,c),
(295,403,o),
(337,427,o),
(377,427,cs),
(427,427,o),
(436,391,o),
(436,342,cs),
(436,246,o),
(402,17,o),
(276,17,cs)
);
}
);
width = 615;
}
);
unicode = 54;
},
{
glyphname = seven;
lastChange = "2016-08-22 10:35:49 +0000";
layers = (
{
layerId = "426C3F01-D24D-4224-A47E-56DA036E4742";
shapes = (
{
closed = 1;
nodes = (
(285,-10,o),
(313,25,o),
(313,78,cs),
(313,102,o),
(307,138,o),
(307,165,cs),
(307,213,o),
(327,279,o),
(397,378,cs),
(610,681,l),
(613,706,l),
(192,706,l),
(101,518,l),
(131,518,l),
(167,604,o),
(193,617,o),
(261,617,cs),
(528,617,l),
(528,613,l),
(330,334,ls),
(196,146,o),
(179,102,o),
(179,60,cs),
(179,9,o),
(205,-10,o),
(239,-10,cs)
);
}
);
width = 502;
},
{
layerId = "DD3DBCA6-CF88-4DA3-ACF4-A2FFC969FFEC";
shapes = (
{
closed = 1;
nodes = (
(287,-10,o),
(327,28,o),
(327,90,cs),
(327,122,o),
(316,146,o),
(316,192,cs),
(316,232,o),
(324,289,o),
(392,378,cs),
(615,671,l),
(618,706,l),
(177,706,l),
(76,498,l),
(116,498,l),
(145,566,o),
(171,576,o),
(226,576,cs),
(483,576,l),
(483,572,l),
(302,334,ls),
(158,144,o),
(142,120,o),
(142,77,cs),
(142,14,o),
(176,-10,o),
(225,-10,cs)
);
}
);
width = 522;
}
);
unicode = 55;
},
{
glyphname = eight;
lastChange = "2016-08-22 12:56:48 +0000";
layers = (
{
layerId = "426C3F01-D24D-4224-A47E-56DA036E4742";
shapes = (
{
closed = 1;
nodes = (
(443,-13,o),
(569,90,o),
(569,197,cs),
(569,289,o),
(476,370,o),
(336,370,cs),
(182,370,o),
(57,273,o),
(57,159,cs),
(57,62,o),
(146,-13,o),
(283,-13,cs)
);
},
{
closed = 1;
nodes = (
(212,12,o),
(180,46,o),
(180,126,cs),
(180,246,o),
(253,349,o),
(352,349,cs),
(414,349,o),
(448,308,o),
(448,233,cs),
(448,154,o),
(410,12,o),
(277,12,cs)
);
},
{
closed = 1;
nodes = (
(413,361,l),
(532,381,o),
(617,470,o),
(617,555,cs),
(617,636,o),
(539,707,o),
(416,707,c),
(279,707,o),
(156,620,o),
(156,516,cs),
(156,449,o),
(207,390,o),
(289,367,c),
(289,363,l),
(413,357,l)
);
},
{
closed = 1;
nodes = (
(299,370,o),
(265,405,o),
(265,483,cs),
(265,592,o),
(332,686,o),
(423,686,cs),
(477,686,o),
(506,652,o),
(506,585,cs),
(506,513,o),
(473,370,o),
(357,370,cs)
);
}
);
width = 610;
},
{
layerId = "DD3DBCA6-CF88-4DA3-ACF4-A2FFC969FFEC";
shapes = (
{
closed = 1;
nodes = (
(451,-13,o),
(580,90,o),
(580,197,cs),
(580,289,o),
(484,370,o),
(335,370,cs),
(172,370,o),
(38,273,o),
(38,159,cs),
(38,62,o),
(136,-13,o),
(281,-13,cs)
);
},
{
closed = 1;
nodes = (
(226,22,o),
(197,52,o),
(197,126,cs),
(197,242,o),
(268,344,o),
(348,344,cs),
(397,344,o),
(423,305,o),
(423,235,cs),
(423,156,o),
(389,22,o),
(278,22,cs)
);
},
{
closed = 1;
nodes = (
(414,365,l),
(539,385,o),
(628,474,o),
(628,559,cs),
(628,640,o),
(547,711,o),
(416,711,cs),
(271,711,o),
(137,624,o),
(137,520,cs),
(137,453,o),
(192,393,o),
(280,370,c),
(280,366,l),
(414,361,l)
);
},
{
closed = 1;
nodes = (
(311,384,o),
(292,410,o),
(292,469,cs),
(292,555,o),
(332,685,o),
(423,685,cs),
(457,685,o),
(481,667,o),
(481,606,cs),
(481,540,o),
(453,384,o),
(352,384,cs)
);
}
);
width = 630;
}
);
unicode = 56;
},
{
glyphname = nine;
lastChange = "2016-08-22 13:53:04 +0000";
layers = (
{
layerId = "426C3F01-D24D-4224-A47E-56DA036E4742";
shapes = (
{
closed = 1;
nodes = (
(327,-13,o),
(610,241,o),
(610,497,cs),
(610,632,o),
(532,731,o),
(402,731,cs),
(241,731,o),
(106,581,o),
(106,441,cs),
(106,334,o),
(184,256,o),
(297,256,c),
(343,256,o),
(381,269,o),
(434,304,c),
(437,301,l),
(408,170,o),
(278,32,o),
(100,12,c),
(100,-13,l)
);
},
{
closed = 1;
nodes = (
(245,281,o),
(221,317,o),
(221,394,cs),
(221,493,o),
(261,706,o),
(410,706,c),
(471,706,o),
(503,671,o),
(503,576,cs),
(503,498,o),
(481,412,o),
(463,366,c),
(408,308,o),
(353,281,o),
(303,281,cs)
);
}
);
width = 595;
},
{
layerId = "DD3DBCA6-CF88-4DA3-ACF4-A2FFC969FFEC";
shapes = (
{
closed = 1;
nodes = (
(331,-13,o),
(638,215,o),
(638,490,cs),
(638,635,o),
(552,731,o),
(412,731,cs),
(242,731,o),
(97,591,o),
(97,451,cs),
(97,345,o),
(179,256,o),
(296,256,c),
(341,256,o),
(378,269,o),
(422,304,c),
(425,301,l),
(396,175,o),
(266,41,o),
(88,22,c),
(88,-13,l)
);
},
{
closed = 1;
nodes = (
(266,291,o),
(257,327,o),
(257,376,cs),
(257,472,o),
(291,701,o),
(417,701,c),
(468,701,o),
(481,664,o),
(481,595,cs),
(481,506,o),
(459,410,o),
(441,366,c),
(398,315,o),
(356,291,o),
(316,291,cs)
);
}
);
width = 615;
}
);
unicode = 57;
},
{
glyphname = zero.denominator;
lastChange = "2016-08-22 14:11:03 +0000";
layers = (
{
background = {
shapes = (
{
closed = 1;
nodes = (
(24,534,o),
(101,451,o),
(203,451,cs),
(305,451,o),
(383,534,o),
(383,656,cs),
(383,778,o),
(305,862,o),
(203,862,cs),
(101,862,o),
(24,778,o),
(24,656,cs)
);
},
{
closed = 1;
nodes = (
(126,807,o),
(144,842,o),
(203,842,cs),
(259,842,o),
(280,807,o),
(280,656,cs),
(280,506,o),
(259,472,o),
(203,472,cs),
(144,472,o),
(126,506,o),
(126,656,cs)
);
}
);
};
layerId = "426C3F01-D24D-4224-A47E-56DA036E4742";
shapes = (
{
closed = 1;
nodes = (
(271,-5,o),
(356,138,o),
(356,245,cs),
(356,313,o),
(320,390,o),
(243,390,cs),
(145,390,o),
(41,264,o),
(41,140,cs),
(41,66,o),
(77,-5,o),
(157,-5,cs)
);
},
{
closed = 1;
nodes = (
(142,12,o),
(126,19,o),
(126,68,cs),
(126,145,o),
(167,372,o),
(241,372,cs),
(260,372,o),
(271,358,o),
(271,314,cs),
(271,235,o),
(234,12,o),
(156,12,cs)
);
}
);
width = 391;
},
{
layerId = "DD3DBCA6-CF88-4DA3-ACF4-A2FFC969FFEC";
shapes = (
{
closed = 1;
nodes = (
(281,-5,o),
(366,138,o),
(366,245,cs),
(366,313,o),
(330,390,o),
(253,390,cs),
(155,390,o),
(51,264,o),
(51,140,cs),
(51,66,o),
(87,-5,o),
(167,-5,cs)
);
},
{
closed = 1;
nodes = (
(152,12,o),
(136,19,o),
(136,68,cs),
(136,145,o),
(177,372,o),
(251,372,cs),
(270,372,o),
(281,358,o),
(281,314,cs),
(281,235,o),
(244,12,o),
(166,12,cs)
);
}
);
width = 411;
}
);
},
{
glyphname = one.denominator;
lastChange = "2016-08-22 14:11:03 +0000";
layers = (
{
background = {
shapes = (
{
closed = 1;
nodes = (
(4,836,l),
(91,836,l),
(91,476,l),
(4,476,l),
(4,459,l),
(266,459,l),
(266,476,l),
(184,476,l),
(184,854,l),
(4,854,l)
);
}
);
};
layerId = "426C3F01-D24D-4224-A47E-56DA036E4742";
shapes = (
{
closed = 1;
nodes = (
(217,0,l),
(217,21,l),
(143,21,l),
(223,389,l),
(52,389,l),
(52,368,l),
(128,368,l),
(57,21,l),
(-14,21,l),
(-14,0,l)
);
}
);
width = 278;
},
{
layerId = "DD3DBCA6-CF88-4DA3-ACF4-A2FFC969FFEC";
shapes = (
{
closed = 1;
nodes = (
(227,0,l),
(227,21,l),
(153,21,l),
(233,389,l),
(62,389,l),
(62,368,l),
(138,368,l),
(67,21,l),
(-4,21,l),
(-4,0,l)
);
}
);
width = 298;
}
);
},
{
glyphname = two.denominator;
lastChange = "2016-08-22 14:11:03 +0000";
layers = (
{
background = {
shapes = (
{
closed = 1;
nodes = (
(304,602,l),
(304,549,o),
(296,544,o),
(271,544,cs),
(89,544,l),
(89,548,l),
(247,643,ls),
(303,676,o),
(321,715,o),
(321,755,cs),
(321,832,o),
(249,862,o),
(180,862,cs),
(107,862,o),
(34,829,o),
(34,762,cs),
(34,730,o),
(51,695,o),
(92,695,cs),
(117,695,o),
(141,710,o),
(141,743,cs),
(141,766,o),
(129,784,o),
(104,784,cs),
(88,784,o),
(82,777,o),
(76,777,cs),
(71,777,o),
(68,781,o),
(68,788,cs),
(68,810,o),
(102,838,o),
(142,838,cs),
(190,838,o),
(220,799,o),
(220,735,cs),
(220,691,o),
(206,659,o),
(146,614,cs),
(17,516,l),
(17,459,l),
(321,459,l),
(321,602,l)
);
}
);
};
layerId = "426C3F01-D24D-4224-A47E-56DA036E4742";
shapes = (
{
closed = 1;
nodes = (
(258,0,l),
(290,126,l),
(272,126,l),
(263,84,o),
(258,80,o),
(241,80,cs),
(86,80,l),
(86,84,l),
(226,164,ls),
(300,206,o),
(319,253,o),
(319,287,cs),
(319,349,o),
(260,389,o),
(186,389,cs),
(94,389,o),
(56,327,o),
(56,280,cs),
(56,234,o),
(93,226,o),
(109,226,cs),
(132,226,o),
(152,242,o),
(152,269,cs),
(152,315,o),
(96,306,o),
(96,324,cs),
(96,335,o),
(124,368,o),
(165,368,cs),
(198,368,o),
(220,348,o),
(220,294,cs),
(220,248,o),
(206,193,o),
(117,131,cs),
(12,58,l),
(-1,0,l)
);
}
);
width = 350;
},
{
layerId = "DD3DBCA6-CF88-4DA3-ACF4-A2FFC969FFEC";
shapes = (
{
closed = 1;
nodes = (
(268,0,l),
(300,126,l),
(282,126,l),
(273,84,o),
(268,80,o),
(251,80,cs),
(96,80,l),
(96,84,l),
(236,164,ls),
(310,206,o),
(329,253,o),
(329,287,cs),
(329,349,o),
(270,389,o),
(196,389,cs),
(104,389,o),
(66,327,o),
(66,280,cs),
(66,234,o),
(103,226,o),
(119,226,cs),
(142,226,o),
(162,242,o),
(162,269,cs),
(162,315,o),
(106,306,o),
(106,324,cs),
(106,335,o),
(134,368,o),
(175,368,cs),
(208,368,o),
(230,348,o),
(230,294,cs),
(230,248,o),
(216,193,o),
(127,131,cs),
(22,58,l),
(9,0,l)
);
}
);
width = 370;
}
);
},
{
glyphname = three.denominator;
lastChange = "2016-08-22 14:11:03 +0000";
layers = (
{
background = {
shapes = (
{
closed = 1;
nodes = (
(111,663,l),
(182,663,o),
(208,630,o),
(208,568,cs),
(208,507,o),
(183,472,o),
(133,472,cs),
(115,472,o),
(74,476,o),
(74,490,cs),
(74,505,o),
(111,507,o),
(111,547,cs),
(111,583,o),
(83,591,o),
(64,591,cs),
(30,591,o),
(13,563,o),
(13,532,cs),
(13,482,o),
(61,451,o),
(141,451,cs),
(249,451,o),
(317,509,o),
(317,572,cs),
(317,642,o),
(253,675,o),
(172,678,c)
);
},
{
closed = 1;
nodes = (
(76,663,l),
(172,663,l),
(172,684,l),
(76,684,l)
);
},
{
closed = 1;
nodes = (
(139,678,l),
(253,685,o),
(299,721,o),
(299,772,cs),
(299,827,o),
(247,862,o),
(161,862,cs),
(71,862,o),
(36,823,o),
(36,784,cs),
(36,755,o),
(55,739,o),
(81,739,cs),
(104,739,o),
(130,751,o),
(130,778,cs),
(130,807,o),
(99,812,o),
(99,826,cs),
(99,839,o),
(123,842,o),
(143,842,cs),
(176,842,o),
(197,830,o),
(197,777,cs),
(197,717,o),
(170,684,o),
(100,684,c)
);
}
);
};
layerId = "426C3F01-D24D-4224-A47E-56DA036E4742";
shapes = (
{
closed = 1;
nodes = (
(200,-8,o),
(271,43,o),
(271,111,cs),
(271,168,o),
(221,206,o),
(171,206,c),
(171,210,l),
(244,230,o),
(282,266,o),
(282,310,cs),
(282,354,o),
(246,391,o),
(177,391,cs),
(115,391,o),
(68,359,o),
(68,317,cs),
(68,292,o),
(85,281,o),
(102,281,cs),
(123,281,o),
(138,297,o),
(138,315,cs),
(138,337,o),
(117,336,o),
(117,352,cs),
(117,364,o),
(131,373,o),
(158,373,cs),
(184,373,o),
(201,366,o),
(201,329,cs),
(201,284,o),
(174,218,o),
(120,218,cs),
(108,218,o),
(95,221,o),
(89,221,cs),
(81,221,o),
(74,215,o),
(74,205,cs),
(74,197,o),
(79,190,o),
(92,190,cs),
(103,190,o),
(100,195,o),
(122,195,cs),
(161,195,o),
(174,171,o),
(174,117,cs),
(174,25,o),
(132,9,o),
(95,9,cs),
(70,9,o),
(35,19,o),
(35,34,cs),
(35,48,o),
(69,46,o),
(69,75,cs),
(69,95,o),
(53,108,o),
(33,108,cs),
(8,108,o),
(-3,85,o),
(-3,62,cs),
(-3,25,o),
(27,-8,o),
(104,-8,cs)
);
}
);
width = 337;
},
{
layerId = "DD3DBCA6-CF88-4DA3-ACF4-A2FFC969FFEC";
shapes = (
{
closed = 1;
nodes = (
(210,-8,o),
(281,43,o),
(281,111,cs),
(281,168,o),
(231,206,o),
(181,206,c),
(181,210,l),
(254,230,o),
(292,266,o),
(292,310,cs),
(292,354,o),
(256,391,o),
(187,391,cs),
(125,391,o),
(78,359,o),
(78,317,cs),
(78,292,o),
(95,281,o),
(112,281,cs),
(133,281,o),
(148,297,o),
(148,315,cs),
(148,337,o),
(127,336,o),
(127,352,cs),
(127,364,o),
(141,373,o),
(168,373,cs),
(194,373,o),
(211,366,o),
(211,329,cs),
(211,284,o),
(184,218,o),
(130,218,cs),
(118,218,o),
(105,221,o),
(99,221,cs),
(91,221,o),
(84,215,o),
(84,205,cs),
(84,197,o),
(89,190,o),
(102,190,cs),
(113,190,o),
(110,195,o),
(132,195,cs),
(171,195,o),
(184,171,o),
(184,117,cs),
(184,25,o),
(142,9,o),
(105,9,cs),
(80,9,o),
(45,19,o),
(45,34,cs),
(45,48,o),
(79,46,o),
(79,75,cs),
(79,95,o),
(63,108,o),
(43,108,cs),
(18,108,o),
(7,85,o),
(7,62,cs),
(7,25,o),
(37,-8,o),
(114,-8,cs)
);
}
);
width = 357;
}
);
},
{
glyphname = four.denominator;
lastChange = "2016-08-22 14:11:03 +0000";
layers = (
{
background = {
shapes = (
{
closed = 1;
nodes = (
(36,588,l),
(36,592,l),
(171,779,l),
(175,779,l),
(175,588,l)
);
},
{
closed = 1;
nodes = (
(338,569,l),
(338,524,l),
(356,524,l),
(356,631,l),
(338,631,l),
(338,588,l),
(268,588,l),
(268,862,l),
(208,862,l),
(8,588,l),
(8,569,l),
(175,569,l),
(175,476,l),
(115,476,l),
(115,459,l),
(322,459,l),
(322,476,l),
(267,476,l),
(267,569,l)
);
}
);
};
layerId = "426C3F01-D24D-4224-A47E-56DA036E4742";
shapes = (
{
closed = 1;
nodes = (
(263,0,l),
(263,17,l),
(220,17,l),
(239,104,l),
(288,104,l),
(277,60,l),
(294,60,l),
(319,159,l),
(302,159,l),
(293,123,l),
(243,123,l),
(300,389,l),
(257,389,l),
(13,123,l),
(13,104,l),
(152,104,l),
(133,17,l),
(95,17,l),
(95,0,l)
);
},
{
closed = 1;
nodes = (
(186,291,l),
(191,291,l),
(156,123,l),
(37,123,l)
);
}
);
width = 377;
},
{
layerId = "DD3DBCA6-CF88-4DA3-ACF4-A2FFC969FFEC";
shapes = (
{
closed = 1;
nodes = (
(273,0,l),
(273,17,l),
(230,17,l),
(249,104,l),
(298,104,l),
(287,60,l),
(304,60,l),
(329,159,l),
(312,159,l),
(303,123,l),
(253,123,l),
(310,389,l),
(267,389,l),
(23,123,l),
(23,104,l),
(162,104,l),
(143,17,l),
(105,17,l),
(105,0,l)
);
},
{
closed = 1;
nodes = (
(196,291,l),
(201,291,l),
(166,123,l),
(47,123,l)
);
}
);
width = 397;
}
);
},
{
glyphname = five.denominator;
lastChange = "2016-08-22 14:11:03 +0000";
layers = (
{
background = {
shapes = (
{
closed = 1;
nodes = (
(79,769,l),
(292,769,l),
(312,876,l),
(295,876,l),
(288,857,o),
(281,854,o),
(259,854,cs),
(65,854,l)
);
},
{
closed = 1;
nodes = (
(47,668,l),
(56,661,l),
(70,687,l),
(84,854,l),
(61,854,l)
);
},
{
closed = 1;
nodes = (
(124,706,o),
(73,696,o),
(63,690,c),
(56,661,l),
(67,671,o),
(101,678,o),
(128,678,cs),
(183,678,o),
(222,647,o),
(222,571,cs),
(222,504,o),
(192,472,o),
(135,472,cs),
(113,472,o),
(81,476,o),
(81,488,cs),
(81,500,o),
(117,501,o),
(117,539,cs),
(117,571,o),
(92,584,o),
(68,584,cs),
(37,584,o),
(15,562,o),
(15,530,cs),
(15,485,o),
(62,451,o),
(149,451,cs),
(251,451,o),
(333,498,o),
(333,582,cs),
(333,648,o),
(282,706,o),
(170,706,cs)
);
}
);
};
layerId = "426C3F01-D24D-4224-A47E-56DA036E4742";
shapes = (
{
closed = 1;
nodes = (
(222,-6,o),
(292,65,o),
(292,134,cs),
(292,195,o),
(237,237,o),
(150,237,cs),
(126,237,o),
(106,234,o),
(79,225,c),
(77,228,l),
(101,310,l),
(284,310,l),
(330,417,l),
(314,417,l),
(299,392,o),
(293,390,o),
(255,390,cs),
(101,390,l),
(50,208,l),
(61,195,l),
(84,206,o),
(110,211,o),
(132,211,cs),
(167,211,o),
(192,198,o),
(192,148,cs),
(192,102,o),
(172,11,o),
(109,11,cs),
(83,11,o),
(64,28,o),
(64,37,cs),
(64,48,o),
(94,55,o),
(94,87,cs),
(94,113,o),
(76,128,o),
(54,128,cs),
(23,128,o),
(8,98,o),
(8,71,cs),
(8,35,o),
(35,-6,o),
(116,-6,cs)
);
}
);
width = 349;
},
{
layerId = "DD3DBCA6-CF88-4DA3-ACF4-A2FFC969FFEC";
shapes = (
{
closed = 1;
nodes = (
(232,-6,o),
(302,65,o),
(302,134,cs),
(302,195,o),
(247,237,o),
(160,237,cs),
(136,237,o),
(116,234,o),
(89,225,c),
(87,228,l),
(111,310,l),
(294,310,l),
(340,417,l),
(324,417,l),
(309,392,o),
(303,390,o),
(265,390,cs),
(111,390,l),
(60,208,l),
(71,195,l),
(94,206,o),
(120,211,o),
(142,211,cs),
(177,211,o),
(202,198,o),
(202,148,cs),
(202,102,o),
(182,11,o),
(119,11,cs),
(93,11,o),
(74,28,o),
(74,37,cs),
(74,48,o),
(104,55,o),
(104,87,cs),
(104,113,o),
(86,128,o),
(64,128,cs),
(33,128,o),
(18,98,o),
(18,71,cs),
(18,35,o),
(45,-6,o),
(126,-6,cs)
);
}
);
width = 369;
}
);
},
{
glyphname = six.denominator;
lastChange = "2016-08-22 14:11:03 +0000";
layers = (
{
background = {
shapes = (
{
closed = 1;
nodes = (
(287,874,l),
(147,869,o),
(25,747,o),
(25,619,cs),
(25,517,o),
(94,451,o),
(180,451,cs),
(260,451,o),
(334,509,o),
(334,588,cs),
(334,658,o),
(275,712,o),
(203,712,cs),
(173,712,o),
(153,703,o),
(136,689,c),
(132,689,l),
(144,771,o),
(199,844,o),
(287,854,c)
);
},
{
closed = 1;
nodes = (
(121,599,o),
(121,627,o),
(126,650,c),
(138,670,o),
(157,688,o),
(186,688,cs),
(216,688,o),
(233,669,o),
(233,580,cs),
(233,501,o),
(220,472,o),
(178,472,cs),
(136,472,o),
(121,500,o),
(121,580,cs)
);
}
);
};
layerId = "426C3F01-D24D-4224-A47E-56DA036E4742";
shapes = (
{
closed = 1;
nodes = (
(225,-7,o),
(306,68,o),
(306,145,cs),
(306,204,o),
(261,255,o),
(196,255,cs),
(172,255,o),
(152,247,o),
(129,228,c),
(126,231,l),
(142,299,o),
(214,371,o),
(312,382,c),
(312,403,l),
(176,403,o),
(5,282,o),
(5,127,cs),
(5,45,o),
(53,-7,o),
(131,-7,cs)
);
},
{
closed = 1;
nodes = (
(102,10,o),
(98,31,o),
(98,64,cs),
(98,115,o),
(110,170,o),
(120,194,c),
(142,221,o),
(163,233,o),
(183,233,cs),
(209,233,o),
(212,214,o),
(212,192,cs),
(212,140,o),
(194,10,o),
(129,10,cs)
);
}
);
width = 348;
},
{
layerId = "DD3DBCA6-CF88-4DA3-ACF4-A2FFC969FFEC";
shapes = (
{
closed = 1;
nodes = (
(235,-7,o),
(316,68,o),
(316,145,cs),
(316,204,o),
(271,255,o),
(206,255,cs),
(182,255,o),
(162,247,o),
(139,228,c),
(136,231,l),
(152,299,o),
(224,371,o),
(322,382,c),
(322,403,l),
(186,403,o),
(15,282,o),
(15,127,cs),
(15,45,o),
(63,-7,o),
(141,-7,cs)
);
},
{
closed = 1;
nodes = (
(112,10,o),
(108,31,o),
(108,64,cs),
(108,115,o),
(120,170,o),
(130,194,c),
(152,221,o),
(173,233,o),
(193,233,cs),
(219,233,o),
(222,214,o),
(222,192,cs),
(222,140,o),
(204,10,o),
(139,10,cs)
);
}
);
width = 368;
}
);
},
{
glyphname = seven.denominator;
lastChange = "2016-08-22 14:11:03 +0000";
layers = (
{
background = {
shapes = (
{
closed = 1;
nodes = (
(20,707,l),
(41,707,l),
(59,759,o),
(57,768,o),
(70,768,cs),
(261,768,l),
(166,618,ls),
(127,557,o),
(111,530,o),
(111,501,cs),
(111,471,o),
(129,451,o),
(166,451,cs),
(199,451,o),
(226,466,o),
(226,501,cs),
(226,528,o),
(209,560,o),
(209,597,cs),
(209,621,o),
(220,651,o),
(245,690,cs),
(325,818,l),
(325,854,l),
(60,854,l)
);
}
);
};
layerId = "426C3F01-D24D-4224-A47E-56DA036E4742";
shapes = (
{
closed = 1;
nodes = (
(164,-9,o),
(188,13,o),
(188,49,cs),
(188,68,o),
(181,79,o),
(181,108,cs),
(181,128,o),
(184,158,o),
(220,205,cs),
(344,365,l),
(345,386,l),
(101,386,l),
(45,268,l),
(68,268,l),
(83,302,o),
(97,307,o),
(125,307,cs),
(264,307,l),
(264,303,l),
(168,181,ls),
(86,77,o),
(79,67,o),
(79,43,cs),
(79,6,o),
(99,-9,o),
(128,-9,cs)
);
}
);
width = 335;
},
{
layerId = "DD3DBCA6-CF88-4DA3-ACF4-A2FFC969FFEC";
shapes = (
{
closed = 1;
nodes = (
(174,-9,o),
(198,13,o),
(198,49,cs),
(198,68,o),
(191,79,o),
(191,108,cs),
(191,128,o),
(194,158,o),
(230,205,cs),
(354,365,l),
(355,386,l),
(111,386,l),
(55,268,l),
(78,268,l),
(93,302,o),
(107,307,o),
(135,307,cs),
(274,307,l),
(274,303,l),
(178,181,ls),
(96,77,o),
(89,67,o),
(89,43,cs),
(89,6,o),
(109,-9,o),
(138,-9,cs)
);
}
);
width = 355;
}
);
},
{
glyphname = eight.denominator;
lastChange = "2016-08-22 14:11:03 +0000";
layers = (
{
background = {
shapes = (
{
closed = 1;
nodes = (
(118,622,o),
(133,654,o),
(176,654,cs),
(219,654,o),
(233,620,o),
(233,559,cs),
(233,494,o),
(216,468,o),
(176,468,cs),
(135,468,o),
(118,494,o),
(118,559,cs)
);
},
{
closed = 1;
nodes = (
(318,815,o),
(273,862,o),
(175,862,cs),
(81,862,o),
(34,818,o),
(34,764,cs),
(34,702,o),
(97,664,o),
(176,664,cs),
(256,664,o),
(318,702,o),
(318,763,cs)
);
},
{
closed = 1;
nodes = (
(223,705,o),
(211,675,o),
(176,675,cs),
(142,675,o),
(129,705,o),
(129,762,cs),
(129,818,o),
(142,842,o),
(176,842,cs),
(211,842,o),
(223,818,o),
(223,762,cs)
);
},
{
closed = 1;
nodes = (
(17,497,o),
(69,451,o),
(176,451,cs),
(283,451,o),
(334,497,o),
(334,555,cs),
(334,618,o),
(283,650,o),
(213,664,c),
(213,668,l),
(140,668,l),
(140,664,l),
(68,651,o),
(17,618,o),
(17,555,cs)
);
}
);
};
layerId = "426C3F01-D24D-4224-A47E-56DA036E4742";
shapes = (
{
closed = 1;
nodes = (
(226,-9,o),
(297,48,o),
(297,107,cs),
(297,147,o),
(262,184,o),
(204,196,c),
(204,200,l),
(274,211,o),
(323,259,o),
(323,306,cs),
(323,351,o),
(278,390,o),
(205,390,cs),
(125,390,o),
(50,342,o),
(50,285,cs),
(50,248,o),
(81,215,o),
(130,203,c),
(130,199,l),
(54,188,o),
(-4,140,o),
(-4,86,cs),
(-4,32,o),
(51,-9,o),
(131,-9,cs)
);
},
{
closed = 1;
nodes = (
(104,12,o),
(88,28,o),
(88,67,cs),
(88,131,o),
(127,187,o),
(168,187,cs),
(192,187,o),
(205,166,o),
(205,128,cs),
(205,84,o),
(187,12,o),
(130,12,cs)
);
},
{
closed = 1;
nodes = (
(150,212,o),
(142,224,o),
(142,253,cs),
(142,296,o),
(159,375,o),
(209,375,cs),
(225,375,o),
(237,368,o),
(237,335,cs),
(237,300,o),
(223,212,o),
(170,212,cs)
);
}
);
width = 352;
},
{
layerId = "DD3DBCA6-CF88-4DA3-ACF4-A2FFC969FFEC";
shapes = (
{
closed = 1;
nodes = (
(236,-9,o),
(307,48,o),
(307,107,cs),
(307,147,o),
(272,184,o),
(214,196,c),
(214,200,l),
(284,211,o),
(333,259,o),
(333,306,cs),
(333,351,o),
(288,390,o),
(215,390,cs),
(135,390,o),
(60,342,o),
(60,285,cs),
(60,248,o),
(91,215,o),
(140,203,c),
(140,199,l),
(64,188,o),
(6,140,o),
(6,86,cs),
(6,32,o),
(61,-9,o),
(141,-9,cs)
);
},
{
closed = 1;
nodes = (
(114,12,o),
(98,28,o),
(98,67,cs),
(98,131,o),
(137,187,o),
(178,187,cs),
(202,187,o),
(215,166,o),
(215,128,cs),
(215,84,o),
(197,12,o),
(140,12,cs)
);
},
{
closed = 1;
nodes = (
(160,212,o),
(152,224,o),
(152,253,cs),
(152,296,o),
(169,375,o),
(219,375,cs),
(235,375,o),
(247,368,o),
(247,335,cs),
(247,300,o),
(233,212,o),
(180,212,cs)
);
}
);
width = 372;
}
);
},
{
glyphname = nine.denominator;
lastChange = "2016-08-22 14:11:03 +0000";
layers = (
{
background = {
shapes = (
{
closed = 1;
nodes = (
(57,455,l),
(196,460,o),
(325,563,o),
(325,694,cs),
(325,796,o),
(256,862,o),
(169,862,cs),
(89,862,o),
(16,803,o),
(16,725,cs),
(16,655,o),
(74,601,o),
(147,601,cs),
(176,601,o),
(195,608,o),
(213,623,c),
(217,623,l),
(205,540,o),
(145,484,o),
(57,475,c)
);
},
{
closed = 1;
nodes = (
(228,713,o),
(228,686,o),
(223,663,c),
(212,642,o),
(192,625,o),
(163,625,cs),
(133,625,o),
(116,644,o),
(116,732,cs),
(116,812,o),
(129,842,o),
(171,842,cs),
(213,842,o),
(228,812,o),
(228,733,cs)
);
}
);
};
layerId = "426C3F01-D24D-4224-A47E-56DA036E4742";
shapes = (
{
closed = 1;
nodes = (
(159,-9,o),
(330,112,o),
(330,267,cs),
(330,349,o),
(282,401,o),
(204,401,cs),
(110,401,o),
(29,326,o),
(29,248,cs),
(29,190,o),
(75,139,o),
(139,139,cs),
(164,139,o),
(184,146,o),
(206,166,c),
(208,163,l),
(192,94,o),
(121,22,o),
(24,12,c),
(24,-9,l)
);
},
{
closed = 1;
nodes = (
(126,160,o),
(123,180,o),
(123,202,cs),
(123,254,o),
(141,383,o),
(207,383,cs),
(233,383,o),
(237,363,o),
(237,329,cs),
(237,278,o),
(225,224,o),
(215,200,c),
(194,173,o),
(173,160,o),
(152,160,cs)
);
}
);
width = 348;
},
{
layerId = "DD3DBCA6-CF88-4DA3-ACF4-A2FFC969FFEC";
shapes = (
{
closed = 1;
nodes = (
(169,-9,o),
(340,112,o),
(340,267,cs),
(340,349,o),
(292,401,o),
(214,401,cs),
(120,401,o),
(39,326,o),
(39,248,cs),
(39,190,o),
(85,139,o),
(149,139,cs),
(174,139,o),
(194,146,o),
(216,166,c),
(218,163,l),
(202,94,o),
(131,22,o),
(34,12,c),
(34,-9,l)
);
},
{
closed = 1;
nodes = (
(136,160,o),
(133,180,o),
(133,202,cs),
(133,254,o),
(151,383,o),
(217,383,cs),
(243,383,o),
(247,363,o),
(247,329,cs),
(247,278,o),
(235,224,o),
(225,200,c),
(204,173,o),
(183,160,o),
(162,160,cs)
);
}
);
width = 368;
}
);
},
{
glyphname = zero.numerator;
lastChange = "2016-08-22 14:11:03 +0000";
layers = (
{
background = {
shapes = (
{
closed = 1;
nodes = (
(24,534,o),
(101,451,o),
(203,451,cs),
(305,451,o),
(383,534,o),
(383,656,cs),
(383,778,o),
(305,862,o),
(203,862,cs),
(101,862,o),
(24,778,o),
(24,656,cs)
);
},
{
closed = 1;
nodes = (
(126,807,o),
(144,842,o),
(203,842,cs),
(259,842,o),
(280,807,o),
(280,656,cs),
(280,506,o),
(259,472,o),
(203,472,cs),
(144,472,o),
(126,506,o),
(126,656,cs)
);
}
);
};
layerId = "426C3F01-D24D-4224-A47E-56DA036E4742";
shapes = (
{
closed = 1;
nodes = (
(357,359,o),
(442,502,o),
(442,609,cs),
(442,677,o),
(406,754,o),
(329,754,cs),
(231,754,o),
(127,628,o),
(127,504,cs),
(127,430,o),
(163,359,o),
(243,359,cs)
);
},
{
closed = 1;
nodes = (
(228,376,o),
(212,383,o),
(212,432,cs),
(212,509,o),
(253,736,o),
(327,736,cs),
(346,736,o),
(357,722,o),
(357,678,cs),
(357,599,o),
(320,376,o),
(242,376,cs)
);
}
);
width = 391;
},
{
layerId = "DD3DBCA6-CF88-4DA3-ACF4-A2FFC969FFEC";
shapes = (
{
closed = 1;
nodes = (
(367,359,o),
(452,502,o),
(452,609,cs),
(452,677,o),
(416,754,o),
(339,754,cs),
(241,754,o),
(137,628,o),
(137,504,cs),
(137,430,o),
(173,359,o),
(253,359,cs)
);
},
{
closed = 1;
nodes = (
(238,376,o),
(222,383,o),
(222,432,cs),
(222,509,o),
(263,736,o),
(337,736,cs),
(356,736,o),
(367,722,o),
(367,678,cs),
(367,599,o),
(330,376,o),
(252,376,cs)
);
}
);
width = 411;
}
);
},
{
glyphname = one.numerator;
lastChange = "2016-08-22 14:11:03 +0000";
layers = (
{
background = {
shapes = (
{
closed = 1;
nodes = (
(4,836,l),
(91,836,l),
(91,476,l),
(4,476,l),
(4,459,l),
(266,459,l),
(266,476,l),
(184,476,l),
(184,854,l),
(4,854,l)
);
}
);
};
layerId = "426C3F01-D24D-4224-A47E-56DA036E4742";
shapes = (
{
closed = 1;
nodes = (
(297,359,l),
(297,380,l),
(223,380,l),
(303,748,l),
(132,748,l),
(132,727,l),
(208,727,l),
(137,380,l),
(66,380,l),
(66,359,l)
);
}
);
width = 278;
},
{
layerId = "DD3DBCA6-CF88-4DA3-ACF4-A2FFC969FFEC";
shapes = (
{
closed = 1;
nodes = (
(307,359,l),
(307,380,l),
(233,380,l),
(313,748,l),
(142,748,l),
(142,727,l),
(218,727,l),
(147,380,l),
(76,380,l),
(76,359,l)
);
}
);
width = 298;
}
);
},
{
glyphname = two.numerator;
lastChange = "2016-08-22 14:11:03 +0000";
layers = (
{
background = {
shapes = (
{
closed = 1;
nodes = (
(304,602,l),
(304,549,o),
(296,544,o),
(271,544,cs),
(89,544,l),
(89,548,l),
(247,643,ls),
(303,676,o),
(321,715,o),
(321,755,cs),
(321,832,o),
(249,862,o),
(180,862,cs),
(107,862,o),
(34,829,o),
(34,762,cs),
(34,730,o),
(51,695,o),
(92,695,cs),
(117,695,o),
(141,710,o),
(141,743,cs),
(141,766,o),
(129,784,o),
(104,784,cs),
(88,784,o),
(82,777,o),
(76,777,cs),
(71,777,o),
(68,781,o),
(68,788,cs),
(68,810,o),
(102,838,o),
(142,838,cs),
(190,838,o),
(220,799,o),
(220,735,cs),
(220,691,o),
(206,659,o),
(146,614,cs),
(17,516,l),
(17,459,l),
(321,459,l),
(321,602,l)
);
}
);
};
layerId = "426C3F01-D24D-4224-A47E-56DA036E4742";
shapes = (
{
closed = 1;
nodes = (
(340,358,l),
(372,484,l),
(354,484,l),
(345,442,o),
(340,438,o),
(323,438,cs),
(168,438,l),
(168,442,l),
(308,522,ls),
(382,564,o),
(401,611,o),
(401,645,cs),
(401,707,o),
(342,747,o),
(268,747,cs),
(176,747,o),
(138,685,o),
(138,638,cs),
(138,592,o),
(175,584,o),
(191,584,cs),
(214,584,o),
(234,600,o),
(234,627,cs),
(234,673,o),
(178,664,o),
(178,682,cs),
(178,693,o),
(206,726,o),
(247,726,cs),
(280,726,o),
(302,706,o),
(302,652,cs),
(302,606,o),
(288,551,o),
(199,489,cs),
(94,416,l),
(81,358,l)
);
}
);
width = 350;
},
{
layerId = "DD3DBCA6-CF88-4DA3-ACF4-A2FFC969FFEC";
shapes = (
{
closed = 1;
nodes = (
(350,358,l),
(382,484,l),
(364,484,l),
(355,442,o),
(350,438,o),
(333,438,cs),
(178,438,l),
(178,442,l),
(318,522,ls),
(392,564,o),
(411,611,o),
(411,645,cs),
(411,707,o),
(352,747,o),
(278,747,cs),
(186,747,o),
(148,685,o),
(148,638,cs),
(148,592,o),
(185,584,o),
(201,584,cs),
(224,584,o),
(244,600,o),
(244,627,cs),
(244,673,o),
(188,664,o),
(188,682,cs),
(188,693,o),
(216,726,o),
(257,726,cs),
(290,726,o),
(312,706,o),
(312,652,cs),
(312,606,o),
(298,551,o),
(209,489,cs),
(104,416,l),
(91,358,l)
);
}
);
width = 370;
}
);
},
{
glyphname = three.numerator;
lastChange = "2016-08-22 14:11:03 +0000";
layers = (
{
background = {
shapes = (
{
closed = 1;
nodes = (
(111,663,l),
(182,663,o),
(208,630,o),
(208,568,cs),
(208,507,o),
(183,472,o),
(133,472,cs),
(115,472,o),
(74,476,o),
(74,490,cs),
(74,505,o),
(111,507,o),
(111,547,cs),
(111,583,o),
(83,591,o),
(64,591,cs),
(30,591,o),
(13,563,o),
(13,532,cs),
(13,482,o),
(61,451,o),
(141,451,cs),
(249,451,o),
(317,509,o),
(317,572,cs),
(317,642,o),
(253,675,o),
(172,678,c)
);
},
{
closed = 1;
nodes = (
(76,663,l),
(172,663,l),
(172,684,l),
(76,684,l)
);
},
{
closed = 1;
nodes = (
(139,678,l),
(253,685,o),
(299,721,o),
(299,772,cs),
(299,827,o),
(247,862,o),
(161,862,cs),
(71,862,o),
(36,823,o),
(36,784,cs),
(36,755,o),
(55,739,o),
(81,739,cs),
(104,739,o),
(130,751,o),
(130,778,cs),
(130,807,o),
(99,812,o),
(99,826,cs),
(99,839,o),
(123,842,o),
(143,842,cs),
(176,842,o),
(197,830,o),
(197,777,cs),
(197,717,o),
(170,684,o),
(100,684,c)
);
}
);
};
layerId = "426C3F01-D24D-4224-A47E-56DA036E4742";
shapes = (
{
closed = 1;
nodes = (
(288,351,o),
(359,402,o),
(359,470,cs),
(359,527,o),
(309,565,o),
(259,565,c),
(259,569,l),
(332,589,o),
(370,625,o),
(370,669,cs),
(370,713,o),
(334,750,o),
(265,750,cs),
(203,750,o),
(156,718,o),
(156,676,cs),
(156,651,o),
(173,640,o),
(190,640,cs),
(211,640,o),
(226,656,o),
(226,674,cs),
(226,696,o),
(205,695,o),
(205,711,cs),
(205,723,o),
(219,732,o),
(246,732,cs),
(272,732,o),
(289,725,o),
(289,688,cs),
(289,643,o),
(262,577,o),
(208,577,cs),
(196,577,o),
(183,580,o),
(177,580,cs),
(169,580,o),
(162,574,o),
(162,564,cs),
(162,556,o),
(167,549,o),
(180,549,cs),
(191,549,o),
(188,554,o),
(210,554,cs),
(249,554,o),
(262,530,o),
(262,476,cs),
(262,384,o),
(220,368,o),
(183,368,cs),
(158,368,o),
(123,378,o),
(123,393,cs),
(123,407,o),
(157,405,o),
(157,434,cs),
(157,454,o),
(141,467,o),
(121,467,cs),
(96,467,o),
(85,444,o),
(85,421,cs),
(85,384,o),
(115,351,o),
(192,351,cs)
);
}
);
width = 337;
},
{
layerId = "DD3DBCA6-CF88-4DA3-ACF4-A2FFC969FFEC";
shapes = (
{
closed = 1;
nodes = (
(298,351,o),
(369,402,o),
(369,470,cs),
(369,527,o),
(319,565,o),
(269,565,c),
(269,569,l),
(342,589,o),
(380,625,o),
(380,669,cs),
(380,713,o),
(344,750,o),
(275,750,cs),
(213,750,o),
(166,718,o),
(166,676,cs),
(166,651,o),
(183,640,o),
(200,640,cs),
(221,640,o),
(236,656,o),
(236,674,cs),
(236,696,o),
(215,695,o),
(215,711,cs),
(215,723,o),
(229,732,o),
(256,732,cs),
(282,732,o),
(299,725,o),
(299,688,cs),
(299,643,o),
(272,577,o),
(218,577,cs),
(206,577,o),
(193,580,o),
(187,580,cs),
(179,580,o),
(172,574,o),
(172,564,cs),
(172,556,o),
(177,549,o),
(190,549,cs),
(201,549,o),
(198,554,o),
(220,554,cs),
(259,554,o),
(272,530,o),
(272,476,cs),
(272,384,o),
(230,368,o),
(193,368,cs),
(168,368,o),
(133,378,o),
(133,393,cs),
(133,407,o),
(167,405,o),
(167,434,cs),
(167,454,o),
(151,467,o),
(131,467,cs),
(106,467,o),
(95,444,o),
(95,421,cs),
(95,384,o),
(125,351,o),
(202,351,cs)
);
}
);
width = 357;
}
);
},
{
glyphname = four.numerator;
lastChange = "2016-08-22 14:11:03 +0000";
layers = (
{
background = {
shapes = (
{
closed = 1;
nodes = (
(36,588,l),
(36,592,l),
(171,779,l),
(175,779,l),
(175,588,l)
);
},
{
closed = 1;
nodes = (
(338,569,l),
(338,524,l),
(356,524,l),
(356,631,l),
(338,631,l),
(338,588,l),
(268,588,l),
(268,862,l),
(208,862,l),
(8,588,l),
(8,569,l),
(175,569,l),
(175,476,l),
(115,476,l),
(115,459,l),
(322,459,l),
(322,476,l),
(267,476,l),
(267,569,l)
);
}
);
};
layerId = "426C3F01-D24D-4224-A47E-56DA036E4742";
shapes = (
{
closed = 1;
nodes = (
(347,359,l),
(347,376,l),
(304,376,l),
(323,463,l),
(372,463,l),
(361,419,l),
(378,419,l),
(403,518,l),
(386,518,l),
(377,482,l),
(327,482,l),
(384,748,l),
(341,748,l),
(97,482,l),
(97,463,l),
(236,463,l),
(217,376,l),
(179,376,l),
(179,359,l)
);
},
{
closed = 1;
nodes = (
(270,650,l),
(275,650,l),
(240,482,l),
(121,482,l)
);
}
);
width = 377;
},
{
layerId = "DD3DBCA6-CF88-4DA3-ACF4-A2FFC969FFEC";
shapes = (
{
closed = 1;
nodes = (
(357,359,l),
(357,376,l),
(314,376,l),
(333,463,l),
(382,463,l),
(371,419,l),
(388,419,l),
(413,518,l),
(396,518,l),
(387,482,l),
(337,482,l),
(394,748,l),
(351,748,l),
(107,482,l),
(107,463,l),
(246,463,l),
(227,376,l),
(189,376,l),
(189,359,l)
);
},
{
closed = 1;
nodes = (
(280,650,l),
(285,650,l),
(250,482,l),
(131,482,l)
);
}
);
width = 397;
}
);
},
{
glyphname = five.numerator;
lastChange = "2016-08-22 14:11:03 +0000";
layers = (
{
background = {
shapes = (
{
closed = 1;
nodes = (
(79,769,l),
(292,769,l),
(312,876,l),
(295,876,l),
(288,857,o),
(281,854,o),
(259,854,cs),
(65,854,l)
);
},
{
closed = 1;
nodes = (
(47,668,l),
(56,661,l),
(70,687,l),
(84,854,l),
(61,854,l)
);
},
{
closed = 1;
nodes = (
(124,706,o),
(73,696,o),
(63,690,c),
(56,661,l),
(67,671,o),
(101,678,o),
(128,678,cs),
(183,678,o),
(222,647,o),
(222,571,cs),
(222,504,o),
(192,472,o),
(135,472,cs),
(113,472,o),
(81,476,o),
(81,488,cs),
(81,500,o),
(117,501,o),
(117,539,cs),
(117,571,o),
(92,584,o),
(68,584,cs),
(37,584,o),
(15,562,o),
(15,530,cs),
(15,485,o),
(62,451,o),
(149,451,cs),
(251,451,o),
(333,498,o),
(333,582,cs),
(333,648,o),
(282,706,o),
(170,706,cs)
);
}
);
};
layerId = "426C3F01-D24D-4224-A47E-56DA036E4742";
shapes = (
{
closed = 1;
nodes = (
(312,358,o),
(382,429,o),
(382,498,cs),
(382,559,o),
(327,601,o),
(240,601,cs),
(216,601,o),
(196,598,o),
(169,589,c),
(167,592,l),
(191,674,l),
(374,674,l),
(420,781,l),
(404,781,l),
(389,756,o),
(383,754,o),
(345,754,cs),
(191,754,l),
(140,572,l),
(151,559,l),
(174,570,o),
(200,575,o),
(222,575,cs),
(257,575,o),
(282,562,o),
(282,512,cs),
(282,466,o),
(262,375,o),
(199,375,cs),
(173,375,o),
(154,392,o),
(154,401,cs),
(154,412,o),
(184,419,o),
(184,451,cs),
(184,477,o),
(166,492,o),
(144,492,cs),
(113,492,o),
(98,462,o),
(98,435,cs),
(98,399,o),
(125,358,o),
(206,358,cs)
);
}
);
width = 349;
},
{
layerId = "DD3DBCA6-CF88-4DA3-ACF4-A2FFC969FFEC";
shapes = (
{
closed = 1;
nodes = (
(322,358,o),
(392,429,o),
(392,498,cs),
(392,559,o),
(337,601,o),
(250,601,cs),
(226,601,o),
(206,598,o),
(179,589,c),
(177,592,l),
(201,674,l),
(384,674,l),
(430,781,l),
(414,781,l),
(399,756,o),
(393,754,o),
(355,754,cs),
(201,754,l),
(150,572,l),
(161,559,l),
(184,570,o),
(210,575,o),
(232,575,cs),
(267,575,o),
(292,562,o),
(292,512,cs),
(292,466,o),
(272,375,o),
(209,375,cs),
(183,375,o),
(164,392,o),
(164,401,cs),
(164,412,o),
(194,419,o),
(194,451,cs),
(194,477,o),
(176,492,o),
(154,492,cs),
(123,492,o),
(108,462,o),
(108,435,cs),
(108,399,o),
(135,358,o),
(216,358,cs)
);
}
);
width = 369;
}
);
},
{
glyphname = six.numerator;
lastChange = "2016-08-22 14:11:03 +0000";
layers = (
{
background = {
shapes = (
{
closed = 1;
nodes = (
(287,874,l),
(147,869,o),
(25,747,o),
(25,619,cs),
(25,517,o),
(94,451,o),
(180,451,cs),
(260,451,o),
(334,509,o),
(334,588,cs),
(334,658,o),
(275,712,o),
(203,712,cs),
(173,712,o),
(153,703,o),
(136,689,c),
(132,689,l),
(144,771,o),
(199,844,o),
(287,854,c)
);
},
{
closed = 1;
nodes = (
(121,599,o),
(121,627,o),
(126,650,c),
(138,670,o),
(157,688,o),
(186,688,cs),
(216,688,o),
(233,669,o),
(233,580,cs),
(233,501,o),
(220,472,o),
(178,472,cs),
(136,472,o),
(121,500,o),
(121,580,cs)
);
}
);
};
layerId = "426C3F01-D24D-4224-A47E-56DA036E4742";
shapes = (
{
closed = 1;
nodes = (
(315,350,o),
(396,425,o),
(396,502,cs),
(396,561,o),
(351,612,o),
(286,612,cs),
(262,612,o),
(242,604,o),
(219,585,c),
(216,588,l),
(232,656,o),
(304,728,o),
(402,739,c),
(402,760,l),
(266,760,o),
(95,639,o),
(95,484,cs),
(95,402,o),
(143,350,o),
(221,350,cs)
);
},
{
closed = 1;
nodes = (
(192,367,o),
(188,388,o),
(188,421,cs),
(188,472,o),
(200,527,o),
(210,551,c),
(232,578,o),
(253,590,o),
(273,590,cs),
(299,590,o),
(302,571,o),
(302,549,cs),
(302,497,o),
(284,367,o),
(219,367,cs)
);
}
);
width = 348;
},
{
layerId = "DD3DBCA6-CF88-4DA3-ACF4-A2FFC969FFEC";
shapes = (
{
closed = 1;
nodes = (
(325,350,o),
(406,425,o),
(406,502,cs),
(406,561,o),
(361,612,o),
(296,612,cs),
(272,612,o),
(252,604,o),
(229,585,c),
(226,588,l),
(242,656,o),
(314,728,o),
(412,739,c),
(412,760,l),
(276,760,o),
(105,639,o),
(105,484,cs),
(105,402,o),
(153,350,o),
(231,350,cs)
);
},
{
closed = 1;
nodes = (
(202,367,o),
(198,388,o),
(198,421,cs),
(198,472,o),
(210,527,o),
(220,551,c),
(242,578,o),
(263,590,o),
(283,590,cs),
(309,590,o),
(312,571,o),
(312,549,cs),
(312,497,o),
(294,367,o),
(229,367,cs)
);
}
);
width = 368;
}
);
},
{
glyphname = seven.numerator;
lastChange = "2016-08-22 14:11:03 +0000";
layers = (
{
background = {
shapes = (
{
closed = 1;
nodes = (
(20,707,l),
(41,707,l),
(59,759,o),
(57,768,o),
(70,768,cs),
(261,768,l),
(166,618,ls),
(127,557,o),
(111,530,o),
(111,501,cs),
(111,471,o),
(129,451,o),
(166,451,cs),
(199,451,o),
(226,466,o),
(226,501,cs),
(226,528,o),
(209,560,o),
(209,597,cs),
(209,621,o),
(220,651,o),
(245,690,cs),
(325,818,l),
(325,854,l),
(60,854,l)
);
}
);
};
layerId = "426C3F01-D24D-4224-A47E-56DA036E4742";
shapes = (
{
closed = 1;
nodes = (
(254,349,o),
(278,371,o),
(278,407,cs),
(278,426,o),
(271,437,o),
(271,466,cs),
(271,486,o),
(274,516,o),
(310,563,cs),
(434,723,l),
(435,744,l),
(191,744,l),
(135,626,l),
(158,626,l),
(173,660,o),
(187,665,o),
(215,665,cs),
(354,665,l),
(354,661,l),
(258,539,ls),
(176,435,o),
(169,425,o),
(169,401,cs),
(169,364,o),
(189,349,o),
(218,349,cs)
);
}
);
width = 335;
},
{
layerId = "DD3DBCA6-CF88-4DA3-ACF4-A2FFC969FFEC";
shapes = (
{
closed = 1;
nodes = (
(264,349,o),
(288,371,o),
(288,407,cs),
(288,426,o),
(281,437,o),
(281,466,cs),
(281,486,o),
(284,516,o),
(320,563,cs),
(444,723,l),
(445,744,l),
(201,744,l),
(145,626,l),
(168,626,l),
(183,660,o),
(197,665,o),
(225,665,cs),
(364,665,l),
(364,661,l),
(268,539,ls),
(186,435,o),
(179,425,o),
(179,401,cs),
(179,364,o),
(199,349,o),
(228,349,cs)
);
}
);
width = 355;
}
);
},
{
glyphname = eight.numerator;
lastChange = "2016-08-22 14:11:03 +0000";
layers = (
{
background = {
shapes = (
{
closed = 1;
nodes = (
(118,622,o),
(133,654,o),
(176,654,cs),
(219,654,o),
(233,620,o),
(233,559,cs),
(233,494,o),
(216,468,o),
(176,468,cs),
(135,468,o),
(118,494,o),
(118,559,cs)
);
},
{
closed = 1;
nodes = (
(318,815,o),
(273,862,o),
(175,862,cs),
(81,862,o),
(34,818,o),
(34,764,cs),
(34,702,o),
(97,664,o),
(176,664,cs),
(256,664,o),
(318,702,o),
(318,763,cs)
);
},
{
closed = 1;
nodes = (
(223,705,o),
(211,675,o),
(176,675,cs),
(142,675,o),
(129,705,o),
(129,762,cs),
(129,818,o),
(142,842,o),
(176,842,cs),
(211,842,o),
(223,818,o),
(223,762,cs)
);
},
{
closed = 1;
nodes = (
(17,497,o),
(69,451,o),
(176,451,cs),
(283,451,o),
(334,497,o),
(334,555,cs),
(334,618,o),
(283,650,o),
(213,664,c),
(213,668,l),
(140,668,l),
(140,664,l),
(68,651,o),
(17,618,o),
(17,555,cs)
);
}
);
};
layerId = "426C3F01-D24D-4224-A47E-56DA036E4742";
shapes = (
{
closed = 1;
nodes = (
(313,349,o),
(384,406,o),
(384,465,cs),
(384,505,o),
(349,542,o),
(291,554,c),
(291,558,l),
(361,569,o),
(410,617,o),
(410,664,cs),
(410,709,o),
(365,748,o),
(292,748,cs),
(212,748,o),
(137,700,o),
(137,643,cs),
(137,606,o),
(168,573,o),
(217,561,c),
(217,557,l),
(141,546,o),
(83,498,o),
(83,444,cs),
(83,390,o),
(138,349,o),
(218,349,cs)
);
},
{
closed = 1;
nodes = (
(191,370,o),
(175,386,o),
(175,425,cs),
(175,489,o),
(214,545,o),
(255,545,cs),
(279,545,o),
(292,524,o),
(292,486,cs),
(292,442,o),
(274,370,o),
(217,370,cs)
);
},
{
closed = 1;
nodes = (
(237,570,o),
(229,582,o),
(229,611,cs),
(229,654,o),
(246,733,o),
(296,733,cs),
(312,733,o),
(324,726,o),
(324,693,cs),
(324,658,o),
(310,570,o),
(257,570,cs)
);
}
);
width = 352;
},
{
layerId = "DD3DBCA6-CF88-4DA3-ACF4-A2FFC969FFEC";
shapes = (
{
closed = 1;
nodes = (
(323,349,o),
(394,406,o),
(394,465,cs),
(394,505,o),
(359,542,o),
(301,554,c),
(301,558,l),
(371,569,o),
(420,617,o),
(420,664,cs),
(420,709,o),
(375,748,o),
(302,748,cs),
(222,748,o),
(147,700,o),
(147,643,cs),
(147,606,o),
(178,573,o),
(227,561,c),
(227,557,l),
(151,546,o),
(93,498,o),
(93,444,cs),
(93,390,o),
(148,349,o),
(228,349,cs)
);
},
{
closed = 1;
nodes = (
(201,370,o),
(185,386,o),
(185,425,cs),
(185,489,o),
(224,545,o),
(265,545,cs),
(289,545,o),
(302,524,o),
(302,486,cs),
(302,442,o),
(284,370,o),
(227,370,cs)
);
},
{
closed = 1;
nodes = (
(247,570,o),
(239,582,o),
(239,611,cs),
(239,654,o),
(256,733,o),
(306,733,cs),
(322,733,o),
(334,726,o),
(334,693,cs),
(334,658,o),
(320,570,o),
(267,570,cs)
);
}
);
width = 372;
}
);
},
{
glyphname = nine.numerator;
lastChange = "2016-08-22 14:11:03 +0000";
layers = (
{
background = {
shapes = (
{
closed = 1;
nodes = (
(57,455,l),
(196,460,o),
(325,563,o),
(325,694,cs),
(325,796,o),
(256,862,o),
(169,862,cs),
(89,862,o),
(16,803,o),
(16,725,cs),
(16,655,o),
(74,601,o),
(147,601,cs),
(176,601,o),
(195,608,o),
(213,623,c),
(217,623,l),
(205,540,o),
(145,484,o),
(57,475,c)
);
},
{
closed = 1;
nodes = (
(228,713,o),
(228,686,o),
(223,663,c),
(212,642,o),
(192,625,o),
(163,625,cs),
(133,625,o),
(116,644,o),
(116,732,cs),
(116,812,o),
(129,842,o),
(171,842,cs),
(213,842,o),
(228,812,o),
(228,733,cs)
);
}
);
};
layerId = "426C3F01-D24D-4224-A47E-56DA036E4742";
shapes = (
{
closed = 1;
nodes = (
(249,350,o),
(420,471,o),
(420,626,cs),
(420,708,o),
(372,760,o),
(294,760,cs),
(200,760,o),
(119,685,o),
(119,607,cs),
(119,549,o),
(165,498,o),
(229,498,cs),
(254,498,o),
(274,505,o),
(296,525,c),
(299,522,l),
(283,453,o),
(211,381,o),
(114,371,c),
(114,350,l)
);
},
{
closed = 1;
nodes = (
(216,519,o),
(213,539,o),
(213,561,cs),
(213,613,o),
(231,742,o),
(297,742,cs),
(323,742,o),
(327,722,o),
(327,688,cs),
(327,637,o),
(315,583,o),
(305,559,c),
(284,532,o),
(263,519,o),
(242,519,cs)
);
}
);
width = 348;
},
{
layerId = "DD3DBCA6-CF88-4DA3-ACF4-A2FFC969FFEC";
shapes = (
{
closed = 1;
nodes = (
(259,350,o),
(430,471,o),
(430,626,cs),
(430,708,o),
(382,760,o),
(304,760,cs),
(210,760,o),
(129,685,o),
(129,607,cs),
(129,549,o),
(175,498,o),
(239,498,cs),
(264,498,o),
(284,505,o),
(306,525,c),
(309,522,l),
(293,453,o),
(221,381,o),
(124,371,c),
(124,350,l)
);
},
{
closed = 1;
nodes = (
(226,519,o),
(223,539,o),
(223,561,cs),
(223,613,o),
(241,742,o),
(307,742,cs),
(333,742,o),
(337,722,o),
(337,688,cs),
(337,637,o),
(325,583,o),
(315,559,c),
(294,532,o),
(273,519,o),
(252,519,cs)
);
}
);
width = 368;
}
);
},
{
glyphname = zeroinferior;
lastChange = "2016-08-22 13:57:29 +0000";
layers = (
{
background = {
shapes = (
{
closed = 1;
nodes = (
(24,534,o),
(101,451,o),
(203,451,cs),
(305,451,o),
(383,534,o),
(383,656,cs),
(383,778,o),
(305,862,o),
(203,862,cs),
(101,862,o),
(24,778,o),
(24,656,cs)
);
},
{
closed = 1;
nodes = (
(126,807,o),
(144,842,o),
(203,842,cs),
(259,842,o),
(280,807,o),
(280,656,cs),
(280,506,o),
(259,472,o),
(203,472,cs),
(144,472,o),
(126,506,o),
(126,656,cs)
);
}
);
};
layerId = "426C3F01-D24D-4224-A47E-56DA036E4742";
shapes = (
{
closed = 1;
nodes = (
(245,-105,o),
(330,38,o),
(330,145,cs),
(330,213,o),
(294,290,o),
(217,290,cs),
(119,290,o),
(15,164,o),
(15,40,cs),
(15,-34,o),
(51,-105,o),
(131,-105,cs)
);
},
{
closed = 1;
nodes = (
(116,-88,o),
(100,-81,o),
(100,-32,cs),
(100,45,o),
(141,272,o),
(215,272,cs),
(234,272,o),
(245,258,o),
(245,214,cs),
(245,135,o),
(208,-88,o),
(130,-88,cs)
);
}
);
width = 391;
},
{
layerId = "DD3DBCA6-CF88-4DA3-ACF4-A2FFC969FFEC";
shapes = (
{
closed = 1;
nodes = (
(255,-105,o),
(340,38,o),
(340,145,cs),
(340,213,o),
(304,290,o),
(227,290,cs),
(129,290,o),
(25,164,o),
(25,40,cs),
(25,-34,o),
(61,-105,o),
(141,-105,cs)
);
},
{
closed = 1;
nodes = (
(126,-88,o),
(110,-81,o),
(110,-32,cs),
(110,45,o),
(151,272,o),
(225,272,cs),
(244,272,o),
(255,258,o),
(255,214,cs),
(255,135,o),
(218,-88,o),
(140,-88,cs)
);
}
);
width = 411;
}
);
unicode = 8320;
},
